<?xml version="1.0" encoding="utf-8"?>
<!-- Generator: Adobe Illustrator 19.2.1, SVG Export Plug-In . SVG Version: 6.00 Build 0)  -->
<svg version="1.1" id="Layer_1" xmlns="http://www.w3.org/2000/svg" xmlns:xlink="http://www.w3.org/1999/xlink" x="0px" y="0px"
	 viewBox="0 0 453.3 142.9" style="enable-background:new 0 0 453.3 142.9;" xml:space="preserve">
<style type="text/css">
	.st0{fill:#FFFFFF;}
	.st1{fill:none;stroke:#FFFFFF;stroke-width:2;stroke-miterlimit:10;}
	.st2{fill:none;stroke:#3B5666;stroke-width:5;stroke-miterlimit:10;}
	.st3{fill:#FFFFFF;stroke:#3B5666;stroke-width:5;stroke-miterlimit:10;}
	.st4{fill:none;stroke:#3B5666;stroke-width:5;stroke-linecap:square;stroke-miterlimit:10;}
</style>
<g>
	<g>
		<path class="st0" d="M52.7,141.3l-0.5,1.4h-1.7l2.8-8h2.1l2.7,8h-1.8l-0.5-1.4H52.7z M54.3,136.7l-1.1,3.3h2.2L54.3,136.7z"/>
		<path class="st0" d="M60.6,139.4c0,0.7,0.1,1.2,0.4,1.5c0.2,0.3,0.7,0.5,1.1,0.5c0.5,0,0.9-0.2,1.2-0.6c0.2-0.3,0.3-0.7,0.3-1.4
			v-4.7h1.7v4.6c0,1.2-0.3,2-0.8,2.6c-0.5,0.6-1.4,0.9-2.3,0.9c-1,0-1.9-0.4-2.4-1c-0.5-0.6-0.7-1.3-0.7-2.5v-4.6h1.6V139.4z"/>
		<path class="st0" d="M69.8,142.7h-1.6v-6.7h-1.9v-1.3h5.4v1.3h-1.9V142.7z"/>
		<path class="st0" d="M74.6,142.7h-1.6v-8h1.6v3.4h3v-3.4h1.6v8h-1.6v-3.3h-3V142.7z"/>
		<path class="st0" d="M85.9,140.3c0,0.9-0.2,1.5-0.7,1.9c-0.4,0.4-1.1,0.6-1.8,0.6c-0.8,0-1.5-0.2-1.9-0.7c-0.4-0.4-0.6-1-0.6-2.3
			v-2.6c0-1,0.2-1.6,0.5-2c0.4-0.5,1.1-0.7,1.9-0.7c0.7,0,1.4,0.2,1.8,0.6c0.5,0.5,0.7,1,0.7,2V140.3z M82.4,140.1
			c0,0.6,0,0.8,0.2,1c0.2,0.2,0.5,0.4,0.8,0.4c0.3,0,0.6-0.2,0.8-0.4c0.1-0.2,0.2-0.4,0.2-1v-2.8c0-0.5-0.1-0.8-0.2-1
			c-0.2-0.2-0.4-0.3-0.7-0.3c-0.4,0-0.7,0.1-0.8,0.4c-0.1,0.2-0.2,0.4-0.2,0.9V140.1z"/>
	</g>
	<g>
		<path class="st0" d="M219.8,139.9c0,2.2-1,3-3.5,3v-1.5c0.2,0,0.2,0,0.3,0c0.5,0,0.9-0.1,1.1-0.3c0.3-0.3,0.4-0.6,0.4-1.6v-3.4
			h-1.9v-1.3h3.5V139.9z"/>
		<path class="st0" d="M229.4,134.7h1.7l-2.2,8h-1.7l-1.3-5.2l-1.3,5.2H223l-2.2-8h1.7l1.3,5l1.3-5h1.6l1.2,5.1L229.4,134.7z"/>
		<path class="st0" d="M235.4,142.7h-1.6v-6.7h-1.9v-1.3h5.4v1.3h-1.9V142.7z"/>
	</g>
	<g>
		<path class="st0" d="M358.7,142.7H357v-8h2.6c1.9,0,3,0.9,3,2.6c0,1.7-1.1,2.7-2.9,2.7h-1V142.7z M359.4,138.6
			c0.9,0,1.5-0.5,1.5-1.3c0-0.8-0.6-1.3-1.5-1.3h-0.7v2.5H359.4z"/>
		<path class="st0" d="M364.9,141.3l-0.5,1.4h-1.7l2.8-8h2.1l2.7,8h-1.8l-0.5-1.4H364.9z M366.5,136.7l-1.1,3.3h2.2L366.5,136.7z"/>
		<path class="st0" d="M372.5,140.4v0.1c0,0.5,0.5,0.9,1.1,0.9c0.6,0,1.1-0.4,1.1-0.9c0-0.3-0.1-0.5-0.3-0.6c-0.2-0.2-0.3-0.2-1-0.4
			c-1.8-0.6-2.4-1.3-2.4-2.5c0-1.5,1.1-2.4,2.6-2.4c1.6,0,2.6,0.9,2.7,2.4h-1.7c-0.1-0.7-0.4-1-1-1c-0.6,0-1,0.3-1,0.8
			c0,0.3,0.2,0.6,0.5,0.8c0.2,0.1,0.3,0.2,0.9,0.4c0.9,0.3,1.3,0.6,1.7,0.9c0.4,0.4,0.6,0.9,0.6,1.5c0,1.5-1.1,2.4-2.8,2.4
			c-1.7,0-2.7-1-2.7-2.5H372.5z"/>
		<path class="st0" d="M379.2,140.4v0.1c0,0.5,0.5,0.9,1.1,0.9c0.6,0,1.1-0.4,1.1-0.9c0-0.3-0.1-0.5-0.3-0.6c-0.2-0.2-0.3-0.2-1-0.4
			c-1.8-0.6-2.4-1.3-2.4-2.5c0-1.5,1.1-2.4,2.6-2.4c1.6,0,2.6,0.9,2.7,2.4h-1.7c-0.1-0.7-0.4-1-1-1c-0.6,0-1,0.3-1,0.8
			c0,0.3,0.2,0.6,0.5,0.8c0.2,0.1,0.3,0.2,0.9,0.4c0.9,0.3,1.3,0.6,1.7,0.9c0.4,0.4,0.6,0.9,0.6,1.5c0,1.5-1.1,2.4-2.8,2.4
			c-1.7,0-2.7-1-2.7-2.5H379.2z"/>
		<path class="st0" d="M386.3,142.7h-1.6v-8h2.6c1.9,0,3,0.9,3,2.6c0,1.7-1.1,2.7-2.9,2.7h-1V142.7z M387,138.6
			c0.9,0,1.5-0.5,1.5-1.3c0-0.8-0.6-1.3-1.5-1.3h-0.7v2.5H387z"/>
		<path class="st0" d="M398.4,135.9c0.7,0.8,1,1.7,1,2.9c0,2.3-1.8,4.1-4.1,4.1c-2.3,0-4.2-1.8-4.2-4.1c0-2.4,1.8-4.2,4.2-4.2
			C396.6,134.6,397.6,135,398.4,135.9z M392.9,138.7c0,1.5,1.1,2.6,2.5,2.6c1.4,0,2.5-1.1,2.5-2.6c0-1.5-1-2.7-2.4-2.7
			C393.9,136.1,392.9,137.2,392.9,138.7z"/>
		<path class="st0" d="M402.7,142.7h-1.6v-8h2.5c2,0,3,0.9,3,2.5c0,1.3-0.7,2.1-1.9,2.4l2.2,3.1h-2l-2.2-3.2V142.7z M403.4,138.6
			c0.9,0,1.5-0.5,1.5-1.3c0-0.8-0.5-1.2-1.3-1.2h-0.9v2.5H403.4z"/>
		<path class="st0" d="M411.1,142.7h-1.6v-6.7h-1.9v-1.3h5.4v1.3h-1.9V142.7z"/>
	</g>
	<g>
		<path class="st1" d="M120.2,2.5h5c3.3,0,6.2,1.3,8.4,3.5c2.2,2.2,3.5,5.1,3.5,8.4v56.2v56.2c0,3.3-1.3,6.2-3.5,8.4
			c-2.2,2.2-5.1,3.5-8.4,3.5h-5"/>
		<path class="st1" d="M17.9,2.5h-5C9.6,2.5,6.7,3.8,4.5,6S1,11.1,1,14.4v56.2v56.2c0,3.3,1.3,6.2,3.5,8.4c2.2,2.2,5.1,3.5,8.4,3.5
			h5"/>
	</g>
	<g>
		<path class="st1" d="M278.4,2.5h5c3.3,0,6.2,1.3,8.4,3.5c2.2,2.2,3.5,5.1,3.5,8.4v56.2v56.2c0,3.3-1.3,6.2-3.5,8.4
			c-2.2,2.2-5.1,3.5-8.4,3.5h-5"/>
		<path class="st1" d="M176.1,2.5h-5c-3.3,0-6.2,1.3-8.4,3.5c-2.2,2.2-3.5,5.1-3.5,8.4v56.2v56.2c0,3.3,1.3,6.2,3.5,8.4
			c2.2,2.2,5.1,3.5,8.4,3.5h5"/>
	</g>
	<g>
		<path class="st1" d="M435.4,2.5h5c3.3,0,6.2,1.3,8.4,3.5c2.2,2.2,3.5,5.1,3.5,8.4v56.2v56.2c0,3.3-1.3,6.2-3.5,8.4
			c-2.2,2.2-5.1,3.5-8.4,3.5h-5"/>
		<path class="st1" d="M333,2.5h-5c-3.3,0-6.2,1.3-8.4,3.5s-3.5,5.1-3.5,8.4v56.2v56.2c0,3.3,1.3,6.2,3.5,8.4
			c2.2,2.2,5.1,3.5,8.4,3.5h5"/>
	</g>
	<g>
		<path class="st2" d="M55.3,16.3c0-7.6,6.2-13.8,13.8-13.8s13.8,6.2,13.8,13.8"/>
		<path class="st3" d="M123.5,16.3H69.1H14.7V113c0,3.3,1.4,6.4,3.5,8.6c2.2,2.2,5.2,3.5,8.6,3.5h42.3h42.3c3.3,0,6.4-1.4,8.6-3.5
			c2.2-2.2,3.5-5.2,3.5-8.6V16.3z"/>
		<path class="st2" d="M123.5,29.1c0,3.3-1.4,6.4-3.5,8.6c-2.2,2.2-5.2,3.5-8.6,3.5H69.1H26.8c-3.3,0-6.4-1.4-8.6-3.5
			c-2.2-2.2-3.5-5.2-3.5-8.6"/>
		<path class="st3" d="M74.6,29.1v35.2c0,3-2.4,5.5-5.5,5.5l0,0c-3,0-5.5-2.4-5.5-5.5V29.1H74.6z"/>
		<rect x="57.4" y="41.2" class="st3" width="23.4" height="12.7"/>
		<line class="st4" x1="57.4" y1="29.1" x2="80.8" y2="29.1"/>
		<path class="st3" d="M111.8,86.3c0-6.7-5.4-12.1-12.1-12.1H38.5c-6.7,0-12.1,5.4-12.1,12.1v26.3c0,6.7,5.4,12.1,12.1,12.1h61.2
			c6.7,0,12.1-5.4,12.1-12.1V86.3z"/>
		<line class="st2" x1="26.4" y1="86.3" x2="111.8" y2="86.3"/>
		<line class="st2" x1="101.5" y1="86.3" x2="101.5" y2="95.9"/>
	</g>
	<g>
		<path class="st2" d="M213.5,16.3c0-7.6,6.2-13.8,13.8-13.8s13.8,6.2,13.8,13.8"/>
		<path class="st3" d="M281.7,16.3h-54.4h-54.4V113c0,3.3,1.4,6.4,3.5,8.6c2.2,2.2,5.2,3.5,8.6,3.5h42.3h42.3c3.3,0,6.4-1.4,8.6-3.5
			c2.2-2.2,3.5-5.2,3.5-8.6V16.3z"/>
		<path class="st2" d="M281.7,29.1c0,3.3-1.4,6.4-3.5,8.6c-2.2,2.2-5.2,3.5-8.6,3.5h-42.3H185c-3.3,0-6.4-1.4-8.6-3.5
			c-2.2-2.2-3.5-5.2-3.5-8.6"/>
		<path class="st3" d="M232.8,29.1v35.2c0,3-2.4,5.5-5.5,5.5l0,0c-3,0-5.5-2.4-5.5-5.5V29.1H232.8z"/>
		<rect x="215.6" y="41.2" class="st3" width="23.4" height="12.7"/>
		<line class="st4" x1="215.6" y1="29.1" x2="239" y2="29.1"/>
		<path class="st3" d="M270,86.3c0-6.7-5.4-12.1-12.1-12.1h-61.2c-6.7,0-12.1,5.4-12.1,12.1v26.3c0,6.7,5.4,12.1,12.1,12.1h61.2
			c6.7,0,12.1-5.4,12.1-12.1V86.3z"/>
		<line class="st2" x1="184.6" y1="86.3" x2="270" y2="86.3"/>
		<line class="st2" x1="259.7" y1="86.3" x2="259.7" y2="95.9"/>
	</g>
	<g>
		<path class="st2" d="M371.5,16.3c0-7.6,6.2-13.8,13.8-13.8s13.8,6.2,13.8,13.8"/>
		<path class="st3" d="M439.7,16.3h-54.4h-54.4V113c0,3.3,1.4,6.4,3.5,8.6c2.2,2.2,5.2,3.5,8.6,3.5h42.3h42.3c3.3,0,6.4-1.4,8.6-3.5
			c2.2-2.2,3.5-5.2,3.5-8.6V16.3z"/>
		<path class="st2" d="M439.7,29.1c0,3.3-1.4,6.4-3.5,8.6c-2.2,2.2-5.2,3.5-8.6,3.5h-42.3H343c-3.3,0-6.4-1.4-8.6-3.5
			c-2.2-2.2-3.5-5.2-3.5-8.6"/>
		<path class="st3" d="M390.8,29.1v35.2c0,3-2.4,5.5-5.5,5.5l0,0c-3,0-5.5-2.4-5.5-5.5V29.1H390.8z"/>
		<rect x="373.6" y="41.2" class="st3" width="23.4" height="12.7"/>
		<line class="st4" x1="373.6" y1="29.1" x2="397" y2="29.1"/>
		<path class="st3" d="M428,86.3c0-6.7-5.4-12.1-12.1-12.1h-61.2c-6.7,0-12.1,5.4-12.1,12.1v26.3c0,6.7,5.4,12.1,12.1,12.1h61.2
			c6.7,0,12.1-5.4,12.1-12.1V86.3z"/>
		<line class="st2" x1="342.6" y1="86.3" x2="428" y2="86.3"/>
		<line class="st2" x1="417.7" y1="86.3" x2="417.7" y2="95.9"/>
	</g>
</g>
</svg>
