<?xml version="1.0" encoding="utf-8"?>
<!-- Generator: Adobe Illustrator 19.2.1, SVG Export Plug-In . SVG Version: 6.00 Build 0)  -->
<svg version="1.1" id="Layer_1" xmlns="http://www.w3.org/2000/svg" xmlns:xlink="http://www.w3.org/1999/xlink" x="0px" y="0px"
	 viewBox="0 0 157.2 126.8" style="enable-background:new 0 0 157.2 126.8;" xml:space="preserve">
<style type="text/css">
	.st0{fill:#FFFFFF;stroke:#3B5666;stroke-width:5;stroke-linecap:round;stroke-miterlimit:10;}
	.st1{fill:none;stroke:#3B5666;stroke-width:5;stroke-miterlimit:10;}
	.st2{fill:#9CAAB2;stroke:#3B5666;stroke-width:5;stroke-miterlimit:10;}
	.st3{fill:none;stroke:#3B5666;stroke-width:5;stroke-linecap:round;stroke-miterlimit:10;}
</style>
<g>
	
		<rect x="17.7" y="-12.7" transform="matrix(4.492768e-11 -1 1 4.492768e-11 15.2182 141.9641)" class="st0" width="121.7" height="152.2"/>
	<g>
		<circle class="st1" cx="48.9" cy="44.6" r="8.2"/>
		<g>
			<line class="st1" x1="41" y1="25.6" x2="44.1" y2="33"/>
			<line class="st1" x1="56.8" y1="25.6" x2="53.7" y2="33"/>
			<line class="st1" x1="67.9" y1="36.7" x2="60.5" y2="39.8"/>
			<line class="st1" x1="67.9" y1="52.5" x2="60.5" y2="49.4"/>
			<line class="st1" x1="56.8" y1="63.6" x2="53.7" y2="56.2"/>
			<line class="st1" x1="41" y1="63.6" x2="44.1" y2="56.2"/>
			<line class="st1" x1="29.9" y1="52.5" x2="37.3" y2="49.4"/>
			<line class="st1" x1="29.9" y1="36.7" x2="37.3" y2="39.8"/>
		</g>
	</g>
	<polygon class="st2" points="109.9,45.6 139.9,80.2 139.9,109.4 109.9,109.3 54.7,109.3 82.3,77.4 	"/>
	<polygon class="st2" points="48.8,73 80.4,109.5 17.1,109.5 	"/>
	<line class="st3" x1="139.7" y1="17.3" x2="154.5" y2="2.5"/>
	<line class="st3" x1="17.1" y1="17.3" x2="2.5" y2="2.5"/>
	<line class="st3" x1="139.7" y1="109.5" x2="154.5" y2="124.3"/>
	<line class="st3" x1="17.1" y1="109.5" x2="2.5" y2="124.2"/>
	<rect x="17.3" y="17.3" class="st3" width="122.6" height="92.1"/>
</g>
</svg>
