<?xml version="1.0" encoding="utf-8"?>
<!-- Generator: Adobe Illustrator 19.2.1, SVG Export Plug-In . SVG Version: 6.00 Build 0)  -->
<svg version="1.1" id="Layer_1" xmlns="http://www.w3.org/2000/svg" xmlns:xlink="http://www.w3.org/1999/xlink" x="0px" y="0px"
	 viewBox="0 0 296.4 143.7" style="enable-background:new 0 0 296.4 143.7;" xml:space="preserve">
<style type="text/css">
	.st0{fill:#FFFFFF;}
	.st1{fill:none;stroke:#FFFFFF;stroke-width:2;stroke-miterlimit:10;}
	.st2{fill:#FFFFFF;stroke:#3B5666;stroke-width:5;stroke-miterlimit:10;}
	.st3{fill:none;stroke:#3B5666;stroke-width:5;stroke-miterlimit:10;}
</style>
<g>
	<g>
		<path class="st0" d="M37.2,135.5c1,0,1.6,0.1,2,0.5c0.5,0.4,0.8,1,0.8,1.7c0,0.6-0.2,1-0.5,1.4c-0.2,0.2-0.4,0.3-0.8,0.5
			c0.5,0.1,0.7,0.2,0.9,0.4c0.4,0.3,0.6,0.8,0.6,1.4c0,0.7-0.3,1.4-0.8,1.8c-0.4,0.3-0.9,0.4-1.8,0.4h-3v-8H37.2z M36.3,138.9h0.7
			c1,0,1.4-0.3,1.4-1.1c0-0.4-0.2-0.8-0.5-0.9c-0.2-0.1-0.6-0.2-1-0.2h-0.6V138.9z M36.3,142.3h0.8c0.6,0,0.8,0,1.1-0.2
			c0.3-0.2,0.4-0.5,0.4-0.9c0-0.4-0.2-0.7-0.5-0.9c-0.3-0.1-0.5-0.2-1.1-0.2h-0.7V142.3z"/>
		<path class="st0" d="M43.4,143.5h-1.6v-8h2.5c2,0,3,0.9,3,2.5c0,1.3-0.7,2.1-1.9,2.4l2.2,3.1h-2l-2.2-3.2V143.5z M44.2,139.4
			c0.9,0,1.5-0.5,1.5-1.3c0-0.8-0.5-1.2-1.3-1.2h-0.9v2.5H44.2z"/>
		<path class="st0" d="M55.8,136.7c0.7,0.8,1,1.7,1,2.9c0,2.3-1.8,4.1-4.1,4.1c-2.3,0-4.2-1.8-4.2-4.1c0-2.4,1.8-4.2,4.2-4.2
			C53.9,135.3,55,135.8,55.8,136.7z M50.2,139.5c0,1.5,1.1,2.6,2.5,2.6c1.4,0,2.5-1.1,2.5-2.6c0-1.5-1-2.7-2.4-2.7
			C51.3,136.9,50.2,138,50.2,139.5z"/>
		<path class="st0" d="M66,135.5h1.7l-2.2,8h-1.7l-1.3-5.2l-1.3,5.2h-1.7l-2.2-8h1.7l1.3,5l1.3-5h1.6l1.2,5.1L66,135.5z"/>
		<path class="st0" d="M70.1,141.2v0.1c0,0.5,0.5,0.9,1.1,0.9c0.6,0,1.1-0.4,1.1-0.9c0-0.3-0.1-0.5-0.3-0.6c-0.2-0.2-0.3-0.2-1-0.4
			c-1.8-0.6-2.4-1.3-2.4-2.5c0-1.5,1.1-2.4,2.6-2.4c1.6,0,2.6,0.9,2.7,2.4h-1.7c-0.1-0.7-0.4-1-1-1c-0.6,0-1,0.3-1,0.8
			c0,0.3,0.2,0.6,0.5,0.8c0.2,0.1,0.3,0.2,0.9,0.4c0.9,0.3,1.3,0.6,1.7,0.9c0.4,0.4,0.6,0.9,0.6,1.5c0,1.5-1.1,2.4-2.8,2.4
			c-1.7,0-2.7-1-2.7-2.5H70.1z"/>
		<path class="st0" d="M76.8,138.8h2.8v1.3h-2.8v2h2.8v1.3h-4.4v-8h4.4v1.3h-2.8V138.8z"/>
		<path class="st0" d="M83,143.5h-1.6v-8h2.5c2,0,3,0.9,3,2.5c0,1.3-0.7,2.1-1.9,2.4l2.2,3.1h-2l-2.2-3.2V143.5z M83.7,139.4
			c0.9,0,1.5-0.5,1.5-1.3c0-0.8-0.5-1.2-1.3-1.2H83v2.5H83.7z"/>
		<path class="st0" d="M90.3,143.5h-1.6v-8h1.6V143.5z"/>
		<path class="st0" d="M93.9,138.8h2.8v1.3h-2.8v3.3h-1.6v-8h4.4v1.3h-2.8V138.8z"/>
		<path class="st0" d="M101.8,143.5h-1.6V140l-2.7-4.5h2l1.5,2.8l1.5-2.8h1.9l-2.6,4.5V143.5z"/>
	</g>
	<g>
		<path class="st0" d="M209.4,135.5h1.7l-2.2,8h-1.7l-1.3-5.2l-1.3,5.2h-1.7l-2.2-8h1.7l1.3,5l1.3-5h1.6l1.2,5.1L209.4,135.5z"/>
		<path class="st0" d="M213.9,138.8h2.8v1.3h-2.8v2h2.8v1.3h-4.4v-8h4.4v1.3h-2.8V138.8z"/>
		<path class="st0" d="M220.9,135.5c1,0,1.6,0.1,2,0.5c0.5,0.4,0.8,1,0.8,1.7c0,0.6-0.2,1-0.5,1.4c-0.2,0.2-0.4,0.3-0.8,0.5
			c0.5,0.1,0.7,0.2,0.9,0.4c0.4,0.3,0.6,0.8,0.6,1.4c0,0.7-0.3,1.4-0.8,1.8c-0.4,0.3-0.9,0.4-1.8,0.4h-3v-8H220.9z M220,138.9h0.7
			c1,0,1.4-0.3,1.4-1.1c0-0.4-0.2-0.8-0.5-0.9c-0.2-0.1-0.6-0.2-1-0.2H220V138.9z M220,142.3h0.8c0.6,0,0.8,0,1.1-0.2
			c0.3-0.2,0.4-0.5,0.4-0.9c0-0.4-0.2-0.7-0.5-0.9c-0.3-0.1-0.5-0.2-1.1-0.2H220V142.3z"/>
		<path class="st0" d="M227.1,143.5h-1.6v-8h2.6c1.9,0,3,0.9,3,2.6c0,1.7-1.1,2.7-2.9,2.7h-1V143.5z M227.9,139.4
			c0.9,0,1.5-0.5,1.5-1.3c0-0.8-0.6-1.3-1.5-1.3h-0.7v2.5H227.9z"/>
		<path class="st0" d="M233.4,142.1l-0.5,1.4h-1.7l2.8-8h2.1l2.7,8h-1.8l-0.5-1.4H233.4z M235,137.5l-1.1,3.3h2.2L235,137.5z"/>
		<path class="st0" d="M246.2,142.4c-0.9,0.9-1.8,1.2-3,1.2s-2.2-0.4-2.9-1.2c-0.7-0.8-1.1-1.8-1.1-2.9c0-2.4,1.7-4.2,4-4.2
			c1.2,0,2.1,0.3,3,1.3l-1.1,1.1c-0.6-0.6-1.2-0.8-1.9-0.8c-1.4,0-2.4,1.1-2.4,2.6s1,2.7,2.5,2.7c0.7,0,1.3-0.3,1.8-0.8L246.2,142.4
			z"/>
		<path class="st0" d="M249.3,143.5h-1.6v-8h1.6v3.5l2.3-3.5h1.9l-2.6,3.8l2.6,4.1h-1.9l-2.2-3.6V143.5z"/>
	</g>
	<g>
		<path class="st1" d="M119.8,2.5h5.4c3.3,0,6.2,1.3,8.4,3.5c2.2,2.2,3.5,5.1,3.5,8.4v56.2v56.2c0,3.3-1.3,6.2-3.5,8.4
			c-2.2,2.2-5.1,3.5-8.4,3.5h-5"/>
		<path class="st1" d="M17.9,2.5h-5C9.6,2.5,6.7,3.8,4.5,6S1,11.1,1,14.4v56.2v56.2c0,3.3,1.3,6.2,3.5,8.4s5.1,3.5,8.4,3.5h5"/>
	</g>
	<g>
		<path class="st1" d="M279,2.5h4.4c3.3,0,6.2,1.3,8.4,3.5c2.2,2.2,3.5,5.1,3.5,8.4v56.2v56.2c0,3.3-1.3,6.2-3.5,8.4
			c-2.2,2.2-5.1,3.5-8.4,3.5h-5"/>
		<path class="st1" d="M176.1,2.5h-5c-3.3,0-6.2,1.3-8.4,3.5c-2.2,2.2-3.5,5.1-3.5,8.4v56.2v56.2c0,3.3,1.3,6.2,3.5,8.4
			c2.2,2.2,5.1,3.5,8.4,3.5h5"/>
	</g>
	<g>
		<path class="st2" d="M26.1,113c-3.3,0-6.4-1.4-8.6-3.5c-2.2-2.2-3.5-5.2-3.5-8.6l0-1.4V82.2c0-3.3,1.4-6.4,3.5-8.6
			c2.2-2.2,5.2-3.5,8.6-3.5"/>
		<path class="st2" d="M110.7,113.1c3.3,0,6.4-1.4,8.6-3.5c2.2-2.2,3.5-5.2,3.5-8.6l0-1.4V82.3c0-3.3-1.4-6.4-3.5-8.6
			c-2.2-2.2-5.2-3.5-8.6-3.5"/>
		<path class="st3" d="M54.6,16.3c0-7.6,6.2-13.8,13.8-13.8c7.6,0,13.8,6.2,13.8,13.8"/>
		<path class="st2" d="M110.7,15.4H68.4H26.1V113c0,3.3,1.4,6.4,3.5,8.6c2.2,2.2,5.2,3.5,8.6,3.5h30.1h30.5c3.3,0,6.1-1.2,8.3-3.4
			c2.2-2.2,3.5-5.2,3.5-8.6V15.4z"/>
		<path class="st3" d="M110.7,58c0,3.3-1.4,6.4-3.5,8.6c-2.2,2.2-5.2,3.5-8.6,3.5H68.4H38.2c-3.3,0-6.4-1.4-8.6-3.5
			c-2.2-2.2-3.5-5.2-3.5-8.6"/>
		<path class="st2" d="M55,70.3l-0.1,22c0,3-2.4,5.5-5.5,5.5l0,0c-3,0-5.5-2.4-5.5-5.5l0.1-22H55z"/>
		<rect x="37.8" y="70.1" class="st2" width="23.4" height="12.7"/>
		<path class="st2" d="M92.8,70.3l-0.1,22c0,3-2.4,5.5-5.5,5.5l0,0c-3,0-5.5-2.4-5.5-5.5l0.1-22H92.8z"/>
		<rect x="75.5" y="70.1" class="st2" width="23.4" height="12.7"/>
	</g>
	<g>
		<path class="st2" d="M184.4,113c-3.3,0-6.4-1.4-8.6-3.5c-2.2-2.2-3.5-5.2-3.5-8.6l0-1.4V82.2c0-3.3,1.4-6.4,3.5-8.6
			c2.2-2.2,5.2-3.5,8.6-3.5"/>
		<path class="st2" d="M268.9,113.1c3.3,0,6.4-1.4,8.6-3.5c2.2-2.2,3.5-5.2,3.5-8.6l0-1.4V82.3c0-3.3-1.4-6.4-3.5-8.6
			c-2.2-2.2-5.2-3.5-8.6-3.5"/>
		<path class="st3" d="M212.8,16.3c0-7.6,6.2-13.8,13.8-13.8c7.6,0,13.8,6.2,13.8,13.8"/>
		<path class="st2" d="M268.9,15.4h-42.4h-42.2V113c0,3.3,1.4,6.4,3.5,8.6c2.2,2.2,5.2,3.5,8.6,3.5h30.1h30.5c3.3,0,6.1-1.2,8.3-3.4
			c2.2-2.2,3.5-5.2,3.5-8.6V15.4z"/>
		<path class="st3" d="M268.9,58c0,3.3-1.4,6.4-3.5,8.6c-2.2,2.2-5.2,3.5-8.6,3.5h-30.3h-30.1c-3.3,0-6.4-1.4-8.6-3.5
			c-2.2-2.2-3.5-5.2-3.5-8.6"/>
		<path class="st2" d="M213.2,70.3l-0.1,22c0,3-2.4,5.5-5.5,5.5l0,0c-3,0-5.5-2.4-5.5-5.5l0.1-22H213.2z"/>
		<rect x="196" y="70.1" class="st2" width="23.4" height="12.7"/>
		<path class="st2" d="M251,70.3l-0.1,22c0,3-2.4,5.5-5.5,5.5l0,0c-3,0-5.5-2.4-5.5-5.5l0.1-22H251z"/>
		<rect x="233.7" y="70.1" class="st2" width="23.4" height="12.7"/>
	</g>
</g>
</svg>
