<?xml version="1.0" encoding="utf-8"?>
<!-- Generator: Adobe Illustrator 19.2.1, SVG Export Plug-In . SVG Version: 6.00 Build 0)  -->
<svg version="1.1" id="Layer_1" xmlns="http://www.w3.org/2000/svg" xmlns:xlink="http://www.w3.org/1999/xlink" x="0px" y="0px"
	 viewBox="0 0 126.7 157.2" style="enable-background:new 0 0 126.7 157.2;" xml:space="preserve">
<style type="text/css">
	.st0{fill:#FFFFFF;stroke:#3B5666;stroke-width:5;stroke-linecap:round;stroke-miterlimit:10;}
	.st1{fill:#9CAAB2;}
	.st2{fill:none;stroke:#3B5666;stroke-width:5;stroke-linecap:round;stroke-miterlimit:10;}
	.st3{fill:#9CAAB2;stroke:#3B5666;stroke-width:5;stroke-linecap:round;stroke-linejoin:round;stroke-miterlimit:10;}
	.st4{fill:none;stroke:#3B5666;stroke-width:5;stroke-linecap:round;stroke-linejoin:round;stroke-miterlimit:10;}
	.st5{fill:#FFFFFF;}
	.st6{fill:none;stroke:#9CAAB2;stroke-width:5;stroke-miterlimit:10;}
</style>
<g>
	<rect x="2.5" y="2.5" class="st0" width="121.7" height="152.2"/>
	<rect x="17.5" y="122" class="st1" width="92.1" height="17.8"/>
	<line class="st2" x1="18.7" y1="122" x2="107.7" y2="122"/>
	<line class="st2" x1="17.3" y1="17.3" x2="2.5" y2="2.5"/>
	<line class="st2" x1="17.3" y1="139.9" x2="2.5" y2="154.7"/>
	<line class="st2" x1="109.4" y1="17.3" x2="124.2" y2="2.5"/>
	<line class="st2" x1="109.4" y1="139.9" x2="124.2" y2="154.7"/>
	<g>
		<path class="st3" d="M74.3,72.8v30.1c0,5.7-4.6,10.3-10.3,10.3h-16c-5.7,0-10.3-4.6-10.3-10.3V72.8H74.3z"/>
		<path class="st4" d="M74.3,72.8c8.3,0,15,6.7,15,15s-6.7,15-15,15"/>
		<path class="st5" d="M72.2,75.1v22c0,4.1-3.4,7.5-7.5,7.5H53c-4.1,0-7.5-3.4-7.5-7.5v-22H72.2z"/>
		<path class="st4" d="M74.3,72.8v30.1c0,5.7-4.6,10.3-10.3,10.3h-16c-5.7,0-10.3-4.6-10.3-10.3V72.8H74.3z"/>
		<line class="st6" x1="56.2" y1="47.3" x2="56.2" y2="65.4"/>
		<line class="st6" x1="65.3" y1="56.4" x2="65.3" y2="65.4"/>
		<line class="st6" x1="46.8" y1="56.4" x2="46.8" y2="65.4"/>
	</g>
	
		<rect x="2.1" y="32.5" transform="matrix(4.495077e-11 -1 1 4.495077e-11 -15.2182 141.9641)" class="st2" width="122.6" height="92.1"/>
</g>
</svg>
