<?xml version="1.0" encoding="utf-8"?>
<!-- Generator: Adobe Illustrator 19.2.1, SVG Export Plug-In . SVG Version: 6.00 Build 0)  -->
<svg version="1.1" id="Layer_1" xmlns="http://www.w3.org/2000/svg" xmlns:xlink="http://www.w3.org/1999/xlink" x="0px" y="0px"
	 viewBox="0 0 129.1 192.8" style="enable-background:new 0 0 129.1 192.8;" xml:space="preserve">
<style type="text/css">
	.st0{fill:#9CAAB2;}
	.st1{fill:#FFFFFF;}
	.st2{fill:none;stroke:#3B5666;stroke-width:5;stroke-miterlimit:10;}
	.st3{fill:#63A97B;stroke:#3B5666;stroke-width:5;stroke-linecap:round;stroke-linejoin:round;stroke-miterlimit:10;}
</style>
<g>
	<path class="st0" d="M115.2,137c0,29.4-23.8,53.2-53.2,53.2c-29.4,0-53.2-23.8-53.2-53.2H115.2z"/>
	<path class="st1" d="M30.2,137c0,23.5,19,42.5,42.5,42.5c23.5,0,42.5-19,42.5-42.5"/>
	<path class="st2" d="M115.2,137c0,29.4-23.8,53.2-53.2,53.2c-29.4,0-53.2-23.8-53.2-53.2H115.2z"/>
	<g>
		<path class="st3" d="M108.4,24.1c0,0-25.1,68.3-45.3,112.2h9.7c9.6-15.3,20.1-30,28.8-45.8c4.4-7.9,7-16.1,9-24.9
			C113.7,51.9,115.1,36.8,108.4,24.1z"/>
		<path class="st3" d="M62,136.2c-1-9.7-1.9-19.4-2.6-29.1c-1-13.4-2.9-27.9-0.8-41.2c1.9-12,7.3-25.2,13.7-35.5
			c6.1-9.8,10-15.8,22.4-27.8c0,0-19.9,60.3-21.9,133.7L62,136.2z"/>
		<path class="st3" d="M76.5,136.2c0,0,27.5-25.1,49.9-57.5c0,0,2.4,22.4-11,37.3s-30.7,20.1-30.7,20.1H76.5z"/>
		<path class="st3" d="M53.3,136.2c0,0-4.1-33.4-14.3-54.4S2.5,56.1,2.5,56.1s23.3,26.4,40.2,80.1H53.3z"/>
	</g>
</g>
</svg>
