<?xml version="1.0" encoding="utf-8"?>
<!-- Generator: Adobe Illustrator 19.2.1, SVG Export Plug-In . SVG Version: 6.00 Build 0)  -->
<svg version="1.1" id="Layer_1" xmlns="http://www.w3.org/2000/svg" xmlns:xlink="http://www.w3.org/1999/xlink" x="0px" y="0px"
	 viewBox="0 0 96.3 119.2" style="enable-background:new 0 0 96.3 119.2;" xml:space="preserve">
<style type="text/css">
	.st0{fill:#FFFFFF;stroke:#3B5666;stroke-width:5;stroke-linecap:round;stroke-miterlimit:10;}
	.st1{fill:#3D3931;stroke:#3B5666;stroke-width:5;stroke-linecap:round;stroke-miterlimit:10;}
	.st2{fill:none;stroke:#3B5666;stroke-width:5;stroke-linecap:round;stroke-miterlimit:10;}
</style>
<g>
	<rect x="2.5" y="2.5" class="st0" width="91.3" height="114.1"/>
	<g>
		<line class="st1" x1="47.5" y1="51.6" x2="47.5" y2="101.6"/>
		<path class="st2" d="M47.5,43c0,2.3-0.5,4.5-1.3,6.5c-0.8,2-2.1,3.8-3.6,5.3c-1.5,1.5-3.3,2.7-5.3,3.6"/>
		<path class="st2" d="M47.5,43c0,2.3,0.5,4.5,1.3,6.5c0.8,2,2.1,3.8,3.6,5.3c1.5,1.5,3.3,2.7,5.3,3.6"/>
		<path class="st2" d="M47.5,52.6c0,2.6-0.5,5-1.5,7.3c-0.9,2.2-2.3,4.2-4,5.9c-1.7,1.7-3.7,3.1-5.9,4"/>
		<path class="st2" d="M47.5,52.6c0,2.6,0.5,5,1.5,7.3c0.9,2.2,2.3,4.2,4,5.9c1.7,1.7,3.7,3.1,5.9,4"/>
		<path class="st2" d="M47.5,62.9c0,2.9-0.6,5.6-1.6,8.1c-1,2.5-2.6,4.7-4.4,6.6c-1.9,1.9-4.1,3.4-6.6,4.4"/>
		<path class="st2" d="M47.5,62.9c0,2.9,0.6,5.6,1.6,8.1c1,2.5,2.6,4.7,4.4,6.6c1.9,1.9,4.1,3.4,6.6,4.4"/>
	</g>
	<rect x="17.3" y="17.3" class="st2" width="60.8" height="84.5"/>
	<line class="st2" x1="78" y1="17.3" x2="92.8" y2="2.5"/>
	<line class="st2" x1="17.1" y1="17.3" x2="2.5" y2="2.5"/>
	<line class="st2" x1="78" y1="101.9" x2="92.8" y2="116.7"/>
	<line class="st2" x1="17.1" y1="101.9" x2="2.5" y2="116.6"/>
</g>
</svg>
