<?xml version="1.0" encoding="utf-8"?>
<!-- Generator: Adobe Illustrator 19.2.1, SVG Export Plug-In . SVG Version: 6.00 Build 0)  -->
<svg version="1.1" id="Layer_1" xmlns="http://www.w3.org/2000/svg" xmlns:xlink="http://www.w3.org/1999/xlink" x="0px" y="0px"
	 viewBox="0 0 453.3 143.2" style="enable-background:new 0 0 453.3 143.2;" xml:space="preserve">
<style type="text/css">
	.st0{fill:#FFFFFF;stroke:#3B5666;stroke-width:5;stroke-miterlimit:10;}
	.st1{fill:none;stroke:#3B5666;stroke-width:5;stroke-miterlimit:10;}
	.st2{fill:none;stroke:#3B5666;stroke-width:5;stroke-linecap:round;stroke-linejoin:round;stroke-miterlimit:10;}
	.st3{fill:none;stroke:#FFFFFF;stroke-width:2;stroke-miterlimit:10;}
	.st4{fill:#FFFFFF;}
</style>
<g>
	<g>
		<path class="st0" d="M111.3,82.4c3.3,0,6.4,1.4,8.5,3.5c2.2,2.2,3.5,5.2,3.5,8.5l0,18.6l0,0l0,12.1h-12.1"/>
		<path class="st0" d="M26.7,82.4c-3.3,0-6.4,1.4-8.5,3.5c-2.2,2.2-3.5,5.2-3.5,8.5l0,18.6l0,0l0,12.1h12.1"/>
		<path class="st0" d="M111.2,125.2H68.9H26.8V42.7c0-3.3,1.4-6.4,3.5-8.5c2.2-2.2,5.2-3.5,8.5-3.5h30.1l30.2-0.1
			c3.3,0,6.4,1.4,8.5,3.5c2.2,2.2,3.5,5.2,3.5,8.5V125.2z"/>
		<path class="st0" d="M111.3,18.4c0,3.3-1.4,6.4-3.5,8.5c-2.2,2.2-5.2,3.5-8.5,3.5H69.1l-30.2,0.1c-3.3,0-6.4-1.4-8.5-3.5
			c-2.2-2.2-3.5-5.2-3.5-8.5v-3.8v-0.1c0-3.3,1.4-6.4,3.5-8.5c2.2-2.2,5.2-3.5,8.5-3.5H69l30.2-0.1c3.3,0,6.4,1.4,8.5,3.5
			c2.2,2.2,3.5,5.2,3.5,8.5V18.4z"/>
		<line class="st1" x1="50.2" y1="2.5" x2="50.2" y2="30.5"/>
		<line class="st1" x1="87.9" y1="2.5" x2="87.9" y2="30.5"/>
		<polyline class="st2" points="27,69 48,75.7 69,82.4 90.1,75.7 111.1,69 		"/>
		<path class="st0" d="M74.5,82.4l0,33.1c0,3-2.4,5.5-5.5,5.5l0,0c-3,0-5.5-2.4-5.5-5.5l0-33.1H74.5z"/>
		<rect x="57.4" y="82.4" class="st0" width="23.4" height="12.7"/>
	</g>
	<g>
		<path class="st3" d="M119.8,2.8h5.4c3.3,0,6.2,1.3,8.4,3.5c2.2,2.2,3.5,5.1,3.5,8.4v56.2V127c0,3.3-1.3,6.2-3.5,8.4
			c-2.2,2.2-5.1,3.5-8.4,3.5h-5"/>
		<path class="st3" d="M17.9,2.8h-5c-3.3,0-6.2,1.3-8.4,3.5S1,11.4,1,14.7v56.2V127c0,3.3,1.3,6.2,3.5,8.4c2.2,2.2,5.1,3.5,8.4,3.5
			h5"/>
	</g>
	<g>
		<path class="st4" d="M57.8,138.1H61v-3h1.8v8H61v-3.4h-3.2v3.4h-1.8v-8h1.8V138.1z"/>
		<path class="st4" d="M69.6,141.5h-3l-0.6,1.5H64l3.2-8h1.7l3.2,8h-1.9L69.6,141.5z M69.1,140.1l-1-2.7l-1,2.7H69.1z"/>
		<path class="st4" d="M76.1,135c0.7,0,1.5,0.1,2.1,0.7c0.7,0.6,0.8,1.4,0.8,1.9c0,1-0.4,1.6-0.7,1.9c-0.6,0.6-1.5,0.7-2,0.7h-1.1
			v2.8h-1.8v-8H76.1z M75.1,138.7h0.7c0.3,0,0.7,0,1-0.3c0.2-0.2,0.3-0.4,0.3-0.8c0-0.3-0.1-0.6-0.3-0.8c-0.3-0.3-0.7-0.3-1-0.3
			h-0.6V138.7z"/>
		<path class="st4" d="M82.3,135v8h-1.8v-8H82.3z"/>
	</g>
	<g>
		<path class="st0" d="M269.5,82.4c3.3,0,6.4,1.4,8.5,3.5c2.2,2.2,3.5,5.2,3.5,8.5l0,18.6l0,0l0,12.1h-12.1"/>
		<path class="st0" d="M185,82.4c-3.3,0-6.4,1.4-8.5,3.5c-2.2,2.2-3.5,5.2-3.5,8.5l0,18.6l0,0l0,12.1H185"/>
		<path class="st0" d="M269.4,125.2h-42.3H185V42.7c0-3.3,1.4-6.4,3.5-8.5c2.2-2.2,5.2-3.5,8.5-3.5h30.1l30.2-0.1
			c3.3,0,6.4,1.4,8.5,3.5c2.2,2.2,3.5,5.2,3.5,8.5V125.2z"/>
		<path class="st0" d="M269.5,18.4c0,3.3-1.4,6.4-3.5,8.5c-2.2,2.2-5.2,3.5-8.5,3.5h-30.1l-30.2,0.1c-3.3,0-6.4-1.4-8.5-3.5
			c-2.2-2.2-3.5-5.2-3.5-8.5v-3.8v-0.1c0-3.3,1.4-6.4,3.5-8.5c2.2-2.2,5.2-3.5,8.5-3.5h30.1l30.2-0.1c3.3,0,6.4,1.4,8.5,3.5
			c2.2,2.2,3.5,5.2,3.5,8.5V18.4z"/>
		<line class="st1" x1="208.4" y1="2.5" x2="208.4" y2="30.5"/>
		<line class="st1" x1="246.1" y1="2.5" x2="246.1" y2="30.5"/>
		<polyline class="st2" points="185.2,69 206.2,75.7 227.3,82.4 248.3,75.7 269.3,69 		"/>
		<path class="st0" d="M232.7,82.4l0,33.1c0,3-2.4,5.5-5.5,5.5l0,0c-3,0-5.5-2.4-5.5-5.5l0-33.1H232.7z"/>
		<rect x="215.6" y="82.4" class="st0" width="23.4" height="12.7"/>
	</g>
	<g>
		<path class="st3" d="M278,2.8h5.4c3.3,0,6.2,1.3,8.4,3.5c2.2,2.2,3.5,5.1,3.5,8.4v56.2V127c0,3.3-1.3,6.2-3.5,8.4
			c-2.2,2.2-5.1,3.5-8.4,3.5h-5"/>
		<path class="st3" d="M176.1,2.8h-5c-3.3,0-6.2,1.3-8.4,3.5c-2.2,2.2-3.5,5.1-3.5,8.4v56.2V127c0,3.3,1.3,6.2,3.5,8.4
			c2.2,2.2,5.1,3.5,8.4,3.5h5"/>
	</g>
	<g>
		<path class="st4" d="M208,136.6h-2.7v1.5h2.5v1.6h-2.5v1.8h2.7v1.6h-4.5v-8h4.5V136.6z"/>
		<path class="st4" d="M212,138.8l-2.5-3.8h2.2l1.3,2.3l1.3-2.3h2.2l-2.5,3.8l2.9,4.2h-2.2l-1.8-2.8l-1.8,2.8h-2.2L212,138.8z"/>
		<path class="st4" d="M221.2,135c0.7,0,1.5,0.1,2.1,0.7c0.7,0.6,0.8,1.4,0.8,1.9c0,1-0.4,1.6-0.7,1.9c-0.6,0.6-1.5,0.7-2,0.7h-1.1
			v2.8h-1.8v-8H221.2z M220.2,138.7h0.7c0.3,0,0.7,0,1-0.3c0.2-0.2,0.3-0.4,0.3-0.8c0-0.3-0.1-0.6-0.3-0.8c-0.3-0.3-0.7-0.3-1-0.3
			h-0.6V138.7z"/>
		<path class="st4" d="M228.3,135c1,0,1.7,0.3,2,0.7c0.3,0.3,0.7,0.9,0.7,1.8c0,0.5-0.1,1.1-0.6,1.6c-0.3,0.3-0.7,0.5-1.1,0.6
			l2.5,3.3h-2.3l-2.2-3.2v3.2h-1.8v-8H228.3z M227.4,138.6h0.4c0.3,0,0.8,0,1.1-0.3c0.1-0.1,0.3-0.4,0.3-0.8c0-0.5-0.2-0.7-0.4-0.8
			c-0.3-0.2-0.8-0.3-1-0.3h-0.4V138.6z"/>
		<path class="st4" d="M237.6,136.6H235v1.5h2.5v1.6H235v1.8h2.7v1.6h-4.5v-8h4.5V136.6z"/>
		<path class="st4" d="M243.6,137c-0.6-0.5-1.1-0.6-1.3-0.6c-0.3,0-0.6,0-0.8,0.3c-0.1,0.1-0.2,0.3-0.2,0.5c0,0.2,0.1,0.3,0.2,0.4
			c0.2,0.2,0.5,0.3,1,0.5l0.6,0.2c0.3,0.1,0.8,0.3,1.1,0.6c0.5,0.4,0.6,1,0.6,1.5c0,0.8-0.3,1.5-0.7,2c-0.7,0.7-1.7,0.8-2.3,0.8
			c-0.6,0-1.1-0.1-1.6-0.3c-0.4-0.2-0.9-0.6-1.2-0.9l1-1.3c0.2,0.2,0.5,0.5,0.7,0.6c0.3,0.2,0.6,0.3,1,0.3c0.2,0,0.6,0,0.8-0.3
			c0.2-0.1,0.3-0.3,0.3-0.6c0-0.3-0.1-0.4-0.3-0.6c-0.2-0.2-0.7-0.4-0.9-0.4l-0.7-0.2c-0.4-0.1-0.8-0.3-1.1-0.6
			c-0.4-0.4-0.5-1-0.5-1.4c0-0.7,0.2-1.3,0.7-1.8c0.6-0.6,1.2-0.7,2-0.7c0.6,0,1.4,0.1,2.4,0.8L243.6,137z"/>
		<path class="st4" d="M250.5,137c-0.6-0.5-1.1-0.6-1.3-0.6c-0.3,0-0.6,0-0.8,0.3c-0.1,0.1-0.2,0.3-0.2,0.5c0,0.2,0.1,0.3,0.2,0.4
			c0.2,0.2,0.5,0.3,1,0.5l0.6,0.2c0.3,0.1,0.8,0.3,1.1,0.6c0.5,0.4,0.6,1,0.6,1.5c0,0.8-0.3,1.5-0.7,2c-0.7,0.7-1.7,0.8-2.3,0.8
			c-0.6,0-1.1-0.1-1.6-0.3c-0.4-0.2-0.9-0.6-1.2-0.9l1-1.3c0.2,0.2,0.5,0.5,0.7,0.6c0.3,0.2,0.6,0.3,1,0.3c0.2,0,0.6,0,0.8-0.3
			c0.2-0.1,0.3-0.3,0.3-0.6c0-0.3-0.1-0.4-0.3-0.6c-0.2-0.2-0.7-0.4-0.9-0.4l-0.7-0.2c-0.4-0.1-0.8-0.3-1.1-0.6
			c-0.4-0.4-0.5-1-0.5-1.4c0-0.7,0.2-1.3,0.7-1.8c0.6-0.6,1.2-0.7,2-0.7c0.6,0,1.4,0.1,2.4,0.8L250.5,137z"/>
	</g>
	<g>
		<path class="st0" d="M426.4,82.4c3.3,0,6.4,1.4,8.5,3.5c2.2,2.2,3.5,5.2,3.5,8.5l0,18.6l0,0l0,12.1h-12.1"/>
		<path class="st0" d="M341.9,82.4c-3.3,0-6.4,1.4-8.5,3.5c-2.2,2.2-3.5,5.2-3.5,8.5l0,18.6l0,0l0,12.1h12.1"/>
		<path class="st0" d="M426.4,125.2h-42.3h-42.1V42.7c0-3.3,1.4-6.4,3.5-8.5c2.2-2.2,5.2-3.5,8.5-3.5h30.1l30.2-0.1
			c3.3,0,6.4,1.4,8.5,3.5c2.2,2.2,3.5,5.2,3.5,8.5V125.2z"/>
		<path class="st0" d="M426.4,18.4c0,3.3-1.4,6.4-3.5,8.5c-2.2,2.2-5.2,3.5-8.5,3.5h-30.1l-30.2,0.1c-3.3,0-6.4-1.4-8.5-3.5
			c-2.2-2.2-3.5-5.2-3.5-8.5v-3.8v-0.1c0-3.3,1.4-6.4,3.5-8.5c2.2-2.2,5.2-3.5,8.5-3.5h30.1l30.2-0.1c3.3,0,6.4,1.4,8.5,3.5
			c2.2,2.2,3.5,5.2,3.5,8.5V18.4z"/>
		<line class="st1" x1="365.4" y1="2.5" x2="365.4" y2="30.5"/>
		<line class="st1" x1="403" y1="2.5" x2="403" y2="30.5"/>
		<polyline class="st2" points="342.1,69 363.1,75.7 384.2,82.4 405.2,75.7 426.3,69 		"/>
		<path class="st0" d="M389.6,82.4l0,33.1c0,3-2.4,5.5-5.5,5.5l0,0c-3,0-5.5-2.4-5.5-5.5l0-33.1H389.6z"/>
		<rect x="372.5" y="82.4" class="st0" width="23.4" height="12.7"/>
	</g>
	<g>
		<path class="st3" d="M434.9,2.8h5.4c3.3,0,6.2,1.3,8.4,3.5c2.2,2.2,3.5,5.1,3.5,8.4v56.2V127c0,3.3-1.3,6.2-3.5,8.4
			c-2.2,2.2-5.1,3.5-8.4,3.5h-5"/>
		<path class="st3" d="M333,2.8h-5c-3.3,0-6.2,1.3-8.4,3.5s-3.5,5.1-3.5,8.4v56.2V127c0,3.3,1.3,6.2,3.5,8.4s5.1,3.5,8.4,3.5h5"/>
	</g>
	<g>
		<path class="st4" d="M374.1,138.3l2.7-3.3h2.3l-3.2,3.8l3.5,4.2H377l-2.9-3.5v3.5h-1.8v-8h1.8V138.3z"/>
		<path class="st4" d="M387.2,136c0.8,0.7,1.2,1.8,1.2,3c0,1.1-0.4,2.2-1.2,3c-0.7,0.7-1.8,1.2-3.1,1.2c-1.5,0-2.5-0.6-3.1-1.2
			c-0.8-0.7-1.2-1.8-1.2-3c0-1.2,0.5-2.3,1.2-3c0.5-0.5,1.5-1.2,3.1-1.2C385.4,134.8,386.4,135.2,387.2,136z M382.4,137.2
			c-0.3,0.3-0.7,0.9-0.7,1.8c0,0.7,0.2,1.3,0.7,1.8c0.5,0.5,1.1,0.7,1.7,0.7c0.8,0,1.4-0.3,1.8-0.7c0.3-0.3,0.7-0.9,0.7-1.8
			c0-0.8-0.3-1.4-0.7-1.8c-0.4-0.4-1-0.7-1.8-0.7C383.4,136.5,382.8,136.8,382.4,137.2z"/>
		<path class="st4" d="M394.6,141.5h-3L391,143h-1.9l3.2-8h1.7l3.2,8h-1.9L394.6,141.5z M394.1,140.1l-1-2.7l-1,2.7H394.1z"/>
	</g>
</g>
</svg>
