<?xml version="1.0" encoding="utf-8"?>
<!-- Generator: Adobe Illustrator 19.2.1, SVG Export Plug-In . SVG Version: 6.00 Build 0)  -->
<svg version="1.1" id="Layer_1" xmlns="http://www.w3.org/2000/svg" xmlns:xlink="http://www.w3.org/1999/xlink" x="0px" y="0px"
	 viewBox="0 0 453.3 142.8" style="enable-background:new 0 0 453.3 142.8;" xml:space="preserve">
<style type="text/css">
	.st0{fill:#FFFFFF;}
	.st1{fill:none;stroke:#FFFFFF;stroke-width:2;stroke-miterlimit:10;}
	.st2{fill:#FFFFFF;stroke:#3B5666;stroke-width:5;stroke-miterlimit:10;}
	.st3{fill:none;stroke:#3B5666;stroke-width:5;stroke-miterlimit:10;}
</style>
<g>
	<g>
		<path class="st0" d="M52,138.2h4v0.1c0,1-0.3,2.4-1.2,3.4c-0.9,0.9-1.9,1.1-2.9,1.1c-1,0-2-0.2-2.9-1.1c-0.5-0.5-1.2-1.5-1.2-3
			c0-1.3,0.5-2.4,1.2-3c1-1,2.2-1.2,3.1-1.2c0.7,0,1.5,0.1,2.2,0.6c0.5,0.4,1,0.9,1.3,1.4l-1.7,0.9c-0.2-0.3-0.4-0.6-0.7-0.9
			c-0.4-0.3-0.8-0.4-1.2-0.4c-0.7,0-1.3,0.2-1.7,0.6c-0.4,0.5-0.7,1.2-0.7,1.9c0,0.9,0.3,1.5,0.7,1.8c0.5,0.5,1,0.6,1.6,0.6
			c0.8,0,1.2-0.3,1.4-0.4c0.1,0,0.4-0.4,0.6-0.9H52V138.2z"/>
		<path class="st0" d="M60.4,134.6c1,0,1.7,0.3,2,0.7c0.3,0.3,0.7,0.9,0.7,1.8c0,0.5-0.1,1.1-0.6,1.6c-0.3,0.3-0.7,0.5-1.1,0.6
			l2.5,3.3h-2.3l-2.2-3.2v3.2h-1.8v-8H60.4z M59.5,138.2h0.4c0.3,0,0.8,0,1.1-0.3c0.1-0.1,0.3-0.4,0.3-0.8c0-0.5-0.2-0.7-0.4-0.8
			c-0.3-0.2-0.8-0.3-1-0.3h-0.4V138.2z"/>
		<path class="st0" d="M72,139.3c0,0.8-0.1,1.7-0.9,2.5c-0.8,0.8-1.7,0.9-2.5,0.9s-1.7-0.1-2.5-0.9c-0.8-0.8-0.9-1.8-0.9-2.5v-4.7
			H67v4.7c0,0.3,0,0.9,0.4,1.3c0.3,0.3,0.8,0.4,1.1,0.4s0.8-0.1,1.1-0.4c0.4-0.4,0.4-1,0.4-1.3v-4.7H72V139.3z"/>
		<path class="st0" d="M74,142.6v-8h1.6l4.3,5.2v-5.2h1.8v8h-1.6l-4.3-5.2v5.2H74z"/>
		<path class="st0" d="M86.7,136.1v6.4h-1.8v-6.4h-1.7v-1.6h5.3v1.6H86.7z"/>
	</g>
	<g>
		<path class="st0" d="M208.4,134.6c0.4,0,1.4,0,2,0.6c0.5,0.5,0.6,1.2,0.6,1.5c0,0.3,0,0.7-0.3,1c-0.2,0.3-0.5,0.5-0.7,0.6
			c0.4,0.1,0.8,0.3,1.1,0.5c0.3,0.3,0.5,0.7,0.5,1.4c0,0.8-0.3,1.3-0.6,1.6c-0.7,0.6-1.6,0.7-2.1,0.7h-3v-8H208.4z M207.8,137.8h0.3
			c0.3,0,0.7,0,0.9-0.2c0.2-0.1,0.3-0.4,0.3-0.7c0-0.3-0.2-0.6-0.3-0.7c-0.3-0.2-0.6-0.2-1-0.2h-0.3V137.8z M207.8,141.1h0.4
			c0.5,0,1,0,1.4-0.3c0.2-0.2,0.3-0.4,0.3-0.7c0-0.3-0.1-0.5-0.3-0.6c-0.3-0.3-0.9-0.3-1.3-0.3h-0.5V141.1z"/>
		<path class="st0" d="M220.5,135.6c0.8,0.7,1.2,1.8,1.2,3c0,1.1-0.4,2.2-1.2,3c-0.7,0.7-1.8,1.2-3.1,1.2c-1.5,0-2.5-0.6-3.1-1.2
			c-0.8-0.7-1.2-1.8-1.2-3c0-1.2,0.5-2.3,1.2-3c0.5-0.5,1.5-1.2,3.1-1.2C218.7,134.4,219.7,134.8,220.5,135.6z M215.7,136.8
			c-0.3,0.3-0.7,0.9-0.7,1.8c0,0.7,0.2,1.3,0.7,1.8c0.5,0.5,1.1,0.7,1.7,0.7c0.8,0,1.4-0.3,1.8-0.7c0.3-0.3,0.7-0.9,0.7-1.8
			c0-0.8-0.3-1.4-0.7-1.8c-0.4-0.4-1-0.7-1.8-0.7C216.7,136.1,216.1,136.4,215.7,136.8z"/>
		<path class="st0" d="M224.2,134.6l1.7,5.3l1.7-5.3h1.3l1.7,5.3l1.7-5.3h1.9l-2.7,8h-1.6l-1.7-4.9l-1.7,4.9H225l-2.7-8H224.2z"/>
		<path class="st0" d="M239.9,136.1h-2.7v1.5h2.5v1.6h-2.5v1.8h2.7v1.6h-4.5v-8h4.5V136.1z"/>
		<path class="st0" d="M244.6,134.6c1,0,1.7,0.3,2,0.7c0.3,0.3,0.7,0.9,0.7,1.8c0,0.5-0.1,1.1-0.6,1.6c-0.3,0.3-0.7,0.5-1.1,0.6
			l2.5,3.3h-2.3l-2.2-3.2v3.2h-1.8v-8H244.6z M243.6,138.2h0.4c0.3,0,0.8,0,1.1-0.3c0.1-0.1,0.3-0.4,0.3-0.8c0-0.5-0.2-0.7-0.4-0.8
			c-0.3-0.2-0.8-0.3-1-0.3h-0.4V138.2z"/>
	</g>
	<g>
		<path class="st0" d="M373.4,138.2h4v0.1c0,1-0.3,2.4-1.2,3.4s-1.9,1.1-2.9,1.1c-1,0-2-0.2-2.9-1.1c-0.5-0.5-1.2-1.5-1.2-3
			c0-1.3,0.5-2.4,1.2-3c1-1,2.2-1.2,3.1-1.2c0.7,0,1.5,0.1,2.2,0.6c0.5,0.4,1,0.9,1.3,1.4l-1.7,0.9c-0.2-0.3-0.4-0.6-0.7-0.9
			c-0.4-0.3-0.8-0.4-1.2-0.4c-0.7,0-1.3,0.2-1.7,0.6c-0.4,0.5-0.7,1.2-0.7,1.9c0,0.9,0.3,1.5,0.7,1.8c0.5,0.5,1,0.6,1.6,0.6
			c0.8,0,1.2-0.3,1.4-0.4c0.1,0,0.4-0.4,0.6-0.9h-1.9V138.2z"/>
		<path class="st0" d="M385.8,139.3c0,0.8-0.1,1.7-0.9,2.5c-0.8,0.8-1.7,0.9-2.5,0.9s-1.7-0.1-2.5-0.9c-0.8-0.8-0.9-1.8-0.9-2.5
			v-4.7h1.8v4.7c0,0.3,0,0.9,0.4,1.3c0.3,0.3,0.8,0.4,1.1,0.4s0.8-0.1,1.1-0.4c0.4-0.4,0.4-1,0.4-1.3v-4.7h1.8V139.3z"/>
		<path class="st0" d="M389.7,134.6v6.4h2.5v1.6h-4.3v-8H389.7z"/>
		<path class="st0" d="M396.3,134.6c0.7,0,1.5,0.1,2.1,0.7c0.7,0.6,0.8,1.4,0.8,1.9c0,1-0.4,1.6-0.7,1.9c-0.6,0.6-1.5,0.7-2,0.7
			h-1.1v2.8h-1.8v-8H396.3z M395.4,138.3h0.7c0.3,0,0.7,0,1-0.3c0.2-0.2,0.3-0.4,0.3-0.8c0-0.3-0.1-0.6-0.3-0.8
			c-0.3-0.3-0.7-0.3-1-0.3h-0.6V138.3z"/>
	</g>
	<g>
		<path class="st1" d="M120.2,2.4h5c3.3,0,6.2,1.3,8.4,3.5c2.2,2.2,3.5,5.1,3.5,8.4v56.2v56.2c0,3.3-1.3,6.2-3.5,8.4
			c-2.2,2.2-5.1,3.5-8.4,3.5h-5"/>
		<path class="st1" d="M17.9,2.4h-5c-3.3,0-6.2,1.3-8.4,3.5S1,11,1,14.3v56.2v56.2c0,3.3,1.3,6.2,3.5,8.4s5.1,3.5,8.4,3.5h5"/>
	</g>
	<g>
		<path class="st1" d="M278,2.4h5.4c3.3,0,6.2,1.3,8.4,3.5c2.2,2.2,3.5,5.1,3.5,8.4v56.2v56.2c0,3.3-1.3,6.2-3.5,8.4
			c-2.2,2.2-5.1,3.5-8.4,3.5h-5"/>
		<path class="st1" d="M176.1,2.4h-5c-3.3,0-6.2,1.3-8.4,3.5c-2.2,2.2-3.5,5.1-3.5,8.4v56.2v56.2c0,3.3,1.3,6.2,3.5,8.4
			c2.2,2.2,5.1,3.5,8.4,3.5h5"/>
	</g>
	<g>
		<path class="st1" d="M434.9,2.4h5.4c3.3,0,6.2,1.3,8.4,3.5c2.2,2.2,3.5,5.1,3.5,8.4v56.2v56.2c0,3.3-1.3,6.2-3.5,8.4
			c-2.2,2.2-5.1,3.5-8.4,3.5h-5"/>
		<path class="st1" d="M333,2.4h-5c-3.3,0-6.2,1.3-8.4,3.5s-3.5,5.1-3.5,8.4v56.2v56.2c0,3.3,1.3,6.2,3.5,8.4
			c2.2,2.2,5.1,3.5,8.4,3.5h5"/>
	</g>
	<g>
		<path class="st2" d="M123.3,57c0-22.5-18.2-40.7-40.7-40.7H55.1c-22.5,0-40.7,18.2-40.7,40.7v56.1c0,3.3,1.4,6.4,3.5,8.6
			c2.2,2.2,5.2,3.5,8.6,3.5h42.4h42.4c3.3,0,6.4-1.4,8.6-3.5c2.2-2.2,3.5-5.2,3.5-8.6V57z"/>
		<path class="st3" d="M55,16.3c0-7.6,6.2-13.8,13.8-13.8s13.8,6.2,13.8,13.8"/>
		<path class="st2" d="M111.6,103.2c0-6.7-5.4-12.1-12.1-12.1H38.2c-6.7,0-12.1,5.4-12.1,12.1v9.9c0,6.7,5.4,12.1,12.1,12.1h61.3
			c6.7,0,12.1-5.4,12.1-12.1V103.2z"/>
		<line class="st3" x1="26.1" y1="103.2" x2="111.6" y2="103.2"/>
		<line class="st3" x1="101.3" y1="103.4" x2="101.3" y2="113"/>
	</g>
	<g>
		<path class="st2" d="M280.9,57c0-22.5-18.2-40.7-40.7-40.7h-27.5C190.2,16.3,172,34.5,172,57v56.1c0,3.3,1.4,6.4,3.5,8.6
			c2.2,2.2,5.2,3.5,8.6,3.5h42.4h42.4c3.3,0,6.4-1.4,8.6-3.5c2.2-2.2,3.5-5.2,3.5-8.6V57z"/>
		<path class="st3" d="M212.6,16.3c0-7.6,6.2-13.8,13.8-13.8s13.8,6.2,13.8,13.8"/>
		<path class="st2" d="M269.2,103.2c0-6.7-5.4-12.1-12.1-12.1h-61.3c-6.7,0-12.1,5.4-12.1,12.1v9.9c0,6.7,5.4,12.1,12.1,12.1h61.3
			c6.7,0,12.1-5.4,12.1-12.1V103.2z"/>
		<line class="st3" x1="183.6" y1="103.2" x2="269.2" y2="103.2"/>
		<line class="st3" x1="258.8" y1="103.4" x2="258.8" y2="113"/>
	</g>
	<g>
		<path class="st2" d="M438.5,57c0-22.5-18.2-40.7-40.7-40.7h-27.5c-22.5,0-40.7,18.2-40.7,40.7v56.1c0,3.3,1.4,6.4,3.5,8.6
			c2.2,2.2,5.2,3.5,8.6,3.5H384h42.4c3.3,0,6.4-1.4,8.6-3.5c2.2-2.2,3.5-5.2,3.5-8.6V57z"/>
		<path class="st3" d="M370.2,16.3c0-7.6,6.2-13.8,13.8-13.8c7.6,0,13.8,6.2,13.8,13.8"/>
		<path class="st2" d="M426.8,103.2c0-6.7-5.4-12.1-12.1-12.1h-61.3c-6.7,0-12.1,5.4-12.1,12.1v9.9c0,6.7,5.4,12.1,12.1,12.1h61.3
			c6.7,0,12.1-5.4,12.1-12.1V103.2z"/>
		<line class="st3" x1="341.2" y1="103.2" x2="426.8" y2="103.2"/>
		<line class="st3" x1="416.4" y1="103.4" x2="416.4" y2="113"/>
	</g>
</g>
</svg>
