<?xml version="1.0" encoding="utf-8"?>
<!-- Generator: Adobe Illustrator 19.2.1, SVG Export Plug-In . SVG Version: 6.00 Build 0)  -->
<svg version="1.1" id="Layer_1" xmlns="http://www.w3.org/2000/svg" xmlns:xlink="http://www.w3.org/1999/xlink" x="0px" y="0px"
	 viewBox="0 0 343.7 97" style="enable-background:new 0 0 343.7 97;" xml:space="preserve">
<style type="text/css">
	.st0{fill:#63A97B;}
	.st1{fill:#3B5565;}
</style>
<g>
	<path class="st0" d="M268.4,13.8c-5.3,0-9.5,4.3-9.5,9.5c0,5.3,4.3,9.5,9.5,9.5c5.3,0,9.5-4.3,9.5-9.5
		C277.9,18.1,273.7,13.8,268.4,13.8z M268.4,27.5c-2.3,0-4.2-1.9-4.2-4.2c0-2.3,1.9-4.2,4.2-4.2c2.3,0,4.2,1.9,4.2,4.2
		C272.6,25.7,270.7,27.5,268.4,27.5z"/>
	<path class="st1" d="M247.9,97c-1.6,0-2.9-1.3-2.9-2.9v-8.4c-0.8,1-1.6,2-2.5,2.9c-5.4,5.4-12.5,8.3-20.2,8.3
		c-7.6,0-14.8-3-20.2-8.3c-5.4-5.4-8.3-12.5-8.3-20.2c0-7.6,3-14.8,8.3-20.2c5.4-5.4,12.5-8.3,20.2-8.3c1.6,0,2.9,1.3,2.9,2.9
		s-1.3,2.9-2.9,2.9c-6.1,0-11.8,2.4-16.1,6.7c-4.3,4.3-6.6,10-6.6,16.1c0,6.1,2.4,11.8,6.6,16.1c4.3,4.3,10,6.6,16.1,6.6
		c6.1,0,11.8-2.4,16.1-6.6c4.3-4.3,6.6-10,6.6-16.1c0-1.6,1.3-2.9,2.9-2.9c1.6,0,2.9,1.3,2.9,2.9v25.6C250.8,95.7,249.5,97,247.9,97
		z"/>
	<path class="st1" d="M156.6,97c-1.6,0-2.9-1.3-2.9-2.9V68.5c0-7.6,3-14.8,8.3-20.1c5.4-5.4,12.5-8.3,20.1-8.3
		c1.6,0,2.9,1.3,2.9,2.9c0,1.6-1.3,2.9-2.9,2.9c-6.1,0-11.7,2.4-16,6.6c-4.3,4.3-6.6,10-6.6,16v25.6C159.5,95.7,158.2,97,156.6,97z"
		/>
	<path class="st1" d="M130.5,97c-1.5,0-2.7-1.2-2.7-2.7V2.7c0-1.5,1.2-2.7,2.7-2.7c1.5,0,2.7,1.2,2.7,2.7v91.6
		C133.1,95.8,131.9,97,130.5,97z"/>
	<path class="st1" d="M288.3,97c-1.5,0-2.7-1.2-2.7-2.7V2.7c0-1.5,1.2-2.7,2.7-2.7c1.5,0,2.7,1.2,2.7,2.7v91.6
		C291,95.8,289.8,97,288.3,97z"/>
	<path class="st1" d="M328,97L307.4,97c-1.6,0-2.9-1.3-2.9-2.9c0-1.6,1.3-2.9,2.9-2.9c0,0,0,0,0,0l20.5,0.1c2.6,0,5.1-1,7-2.9
		c1.9-1.9,2.9-4.4,2.9-7c0-2.6-1-5.1-2.9-7c-1.9-1.9-4.4-2.9-7-2.9l-7.7,0c-4.2,0-8.1-1.6-11.1-4.6c-3-3-4.6-6.9-4.6-11.1
		c0-4.2,1.6-8.1,4.6-11.1c3-3,6.9-4.6,11.1-4.6l20.5-0.1c0,0,0,0,0,0c1.6,0,2.9,1.3,2.9,2.9c0,1.6-1.3,2.9-2.9,2.9l-20.5,0.1
		c-2.7,0-5.1,1-7,2.9c-1.9,1.9-2.9,4.4-2.9,7c0,2.6,1,5.1,2.9,7c1.9,1.9,4.4,2.9,7,2.9l7.7,0c4.2,0,8.1,1.6,11.1,4.6
		c3,3,4.6,6.9,4.6,11.1c0,4.2-1.6,8.1-4.6,11.1C336.1,95.4,332.2,97,328,97z"/>
	<path class="st1" d="M149.5,26h-19.1c-1.5,0-2.7-1.2-2.7-2.7c0-1.5,1.2-2.7,2.7-2.7h19.1c1.5,0,2.7,1.2,2.7,2.7
		C152.2,24.8,151,26,149.5,26z"/>
	<path class="st1" d="M156.6,71.4c-1.6,0-2.9-1.3-2.9-2.9V43c0-1.6,1.3-2.9,2.9-2.9c1.6,0,2.9,1.3,2.9,2.9v25.5
		C159.5,70.1,158.2,71.4,156.6,71.4z"/>
	<path class="st0" d="M182.4,26h-19.1c-1.5,0-2.7-1.2-2.7-2.7c0-1.5,1.2-2.7,2.7-2.7h19.1c1.5,0,2.7,1.2,2.7,2.7
		C185.1,24.8,183.9,26,182.4,26z"/>
	<path class="st0" d="M215.5,26h-19.1c-1.5,0-2.7-1.2-2.7-2.7c0-1.5,1.2-2.7,2.7-2.7h19.1c1.5,0,2.7,1.2,2.7,2.7
		C218.2,24.8,217,26,215.5,26z"/>
	<path class="st0" d="M248.8,26h-19.1c-1.5,0-2.7-1.2-2.7-2.7c0-1.5,1.2-2.7,2.7-2.7h19.1c1.5,0,2.7,1.2,2.7,2.7
		C251.5,24.8,250.3,26,248.8,26z"/>
	<path class="st0" d="M268.4,64.4c-1.5,0-2.7-1.2-2.7-2.7V42.7c0-1.5,1.2-2.7,2.7-2.7c1.5,0,2.7,1.2,2.7,2.7v19.1
		C271.1,63.2,269.9,64.4,268.4,64.4z"/>
	<path class="st0" d="M268.4,97c-1.5,0-2.7-1.2-2.7-2.7V75.2c0-1.5,1.2-2.7,2.7-2.7c1.5,0,2.7,1.2,2.7,2.7v19.1
		C271.1,95.8,269.9,97,268.4,97z"/>
	<path class="st0" d="M96.7,46c0-0.8-0.1-1.6-0.2-2.5c-0.1-0.8-0.2-1.6-0.3-2.4c-0.1-0.8-0.3-1.6-0.4-2.4c-0.2-0.8-0.3-1.6-0.5-2.3
		c-0.2-0.8-0.4-1.5-0.7-2.3c-0.2-0.8-0.5-1.5-0.8-2.2c-0.3-0.7-0.6-1.5-0.9-2.2c-0.3-0.7-0.6-1.4-1-2.1c-0.3-0.7-0.7-1.4-1.1-2.1
		c-0.4-0.7-0.8-1.4-1.2-2c-0.4-0.7-0.8-1.3-1.3-2c-0.4-0.6-0.9-1.3-1.4-1.9c-0.5-0.6-0.9-1.2-1.4-1.8c-0.5-0.6-1-1.2-1.5-1.8
		c-0.5-0.6-1.1-1.1-1.6-1.7c-0.5-0.5-1.1-1.1-1.7-1.6c-0.6-0.5-1.2-1-1.8-1.5c-0.6-0.5-1.2-1-1.8-1.4c-0.6-0.5-1.3-0.9-1.9-1.3
		c-0.6-0.4-1.3-0.9-2-1.3c-0.7-0.4-1.3-0.8-2-1.2c-0.7-0.4-1.4-0.7-2.1-1.1c-0.7-0.3-1.4-0.7-2.1-1C66.5,3.6,65.8,3.3,65,3
		c-0.7-0.3-1.5-0.5-2.2-0.8C62,2,61.3,1.8,60.5,1.6c-0.8-0.2-1.6-0.4-2.3-0.5c-0.8-0.2-1.6-0.3-2.4-0.4c-0.8-0.1-1.6-0.2-2.4-0.3
		c-0.8-0.1-1.6-0.1-2.4-0.2c-1.6-0.1-3.3-0.1-5,0c-0.8,0-1.6,0.1-2.5,0.2c-0.8,0.1-1.6,0.2-2.4,0.3c-0.8,0.1-1.6,0.3-2.4,0.4
		c-0.8,0.2-1.6,0.3-2.3,0.5C35.5,1.8,34.8,2,34,2.3c-0.8,0.2-1.5,0.5-2.3,0.8c-0.7,0.3-1.5,0.6-2.2,0.9c-0.7,0.3-1.4,0.6-2.1,1
		c-0.7,0.3-1.4,0.7-2.1,1.1c-0.7,0.4-1.4,0.8-2,1.2c-0.7,0.4-1.3,0.8-2,1.3c-0.6,0.4-1.3,0.9-1.9,1.3c-0.6,0.5-1.2,0.9-1.8,1.4
		c-0.6,0.5-1.2,1-1.8,1.5c-0.6,0.5-1.1,1.1-1.7,1.6c-0.5,0.5-1.1,1.1-1.6,1.7c-0.5,0.6-1,1.2-1.5,1.8c-0.5,0.6-1,1.2-1.4,1.8
		c-0.5,0.6-0.9,1.3-1.3,1.9c-0.4,0.6-0.9,1.3-1.3,2c-0.4,0.7-0.8,1.3-1.2,2c-0.4,0.7-0.7,1.4-1.1,2.1c-0.3,0.7-0.7,1.4-1,2.1
		c-0.3,0.7-0.6,1.5-0.9,2.2c-0.3,0.7-0.5,1.5-0.8,2.2c-0.2,0.8-0.5,1.5-0.7,2.3C1.3,37.2,1.1,38,1,38.7c-0.2,0.8-0.3,1.6-0.4,2.4
		c-0.1,0.8-0.2,1.6-0.3,2.4c-0.1,0.8-0.1,1.6-0.2,2.5S0,47.7,0,48.5s0,1.7,0.1,2.5c0,0.8,0.1,1.6,0.2,2.5c0.1,0.8,0.2,1.6,0.3,2.4
		c0.1,0.8,0.3,1.6,0.4,2.4c0.2,0.8,0.3,1.6,0.5,2.3c0.2,0.8,0.4,1.5,0.7,2.3c0.2,0.8,0.5,1.5,0.8,2.3c0.3,0.7,0.6,1.5,0.9,2.2
		c0.3,0.7,0.6,1.4,1,2.1c0.3,0.7,0.7,1.4,1.1,2.1c0.4,0.7,0.8,1.4,1.2,2c0.4,0.7,0.8,1.3,1.3,2c0.4,0.6,0.9,1.3,1.4,1.9
		c0.5,0.6,0.9,1.2,1.4,1.8c0.5,0.6,1,1.2,1.5,1.8c0.5,0.6,1.1,1.1,1.6,1.7c0.5,0.5,1.1,1.1,1.7,1.6c0.6,0.5,1.2,1,1.8,1.5
		c0.6,0.5,1.2,1,1.8,1.4c0.6,0.5,1.3,0.9,1.9,1.3c0.6,0.4,1.3,0.9,2,1.3c0.7,0.4,1.3,0.8,2,1.2c0.7,0.4,1.4,0.7,2.1,1.1
		c0.7,0.3,1.4,0.7,2.1,1c0.7,0.3,1.4,0.6,2.2,0.9c0.7,0.3,1.5,0.5,2.3,0.8c0.8,0.2,1.5,0.5,2.3,0.6c0.8,0.2,1.6,0.4,2.3,0.5
		c0.8,0.2,1.6,0.3,2.4,0.4c0.8,0.1,1.6,0.2,2.4,0.3c0.8,0.1,1.6,0.1,2.4,0.2c0.8,0,1.7,0.1,2.5,0.1c0.8,0,1.7,0,2.5-0.1
		c0.8,0,1.6-0.1,2.5-0.2c0.8-0.1,1.6-0.2,2.4-0.3c1.4-0.2,2.4-1.6,2.2-3c-0.2-1.4-1.5-2.4-3-2.2c-0.7,0.1-1.4,0.2-2.2,0.3
		c-0.7,0.1-1.5,0.1-2.2,0.2c-1.5,0.1-3,0.1-4.4,0c-0.7,0-1.5-0.1-2.2-0.2c-0.7-0.1-1.5-0.2-2.2-0.3c-0.7-0.1-1.4-0.2-2.1-0.4
		c-0.7-0.1-1.4-0.3-2.1-0.5c-0.7-0.2-1.4-0.4-2-0.6c-0.7-0.2-1.3-0.4-2-0.7c-0.7-0.2-1.3-0.5-2-0.8c-0.6-0.3-1.3-0.6-1.9-0.9
		c-0.6-0.3-1.3-0.6-1.9-1c-0.6-0.3-1.2-0.7-1.8-1c-0.6-0.4-1.2-0.7-1.8-1.1c-0.6-0.4-1.1-0.8-1.7-1.2c-0.6-0.4-1.1-0.8-1.6-1.3
		c-0.5-0.4-1.1-0.9-1.6-1.4c-0.5-0.5-1-0.9-1.5-1.4c-0.5-0.5-1-1-1.4-1.5c-0.5-0.5-0.9-1-1.4-1.6c-0.4-0.5-0.9-1.1-1.3-1.6
		c-0.4-0.6-0.8-1.1-1.2-1.7c-0.4-0.6-0.8-1.2-1.1-1.7c-0.4-0.6-0.7-1.2-1-1.8c-0.3-0.6-0.6-1.2-1-1.9c-0.3-0.6-0.6-1.3-0.9-1.9
		c-0.3-0.6-0.5-1.3-0.8-2c-0.2-0.7-0.5-1.3-0.7-2c-0.2-0.7-0.4-1.4-0.6-2c-0.2-0.7-0.3-1.4-0.5-2.1c-0.1-0.7-0.3-1.4-0.4-2.1
		c-0.1-0.7-0.2-1.4-0.3-2.2c-0.1-0.7-0.1-1.5-0.2-2.2c0-0.7-0.1-1.5-0.1-2.2s0-1.5,0.1-2.2c0-0.7,0.1-1.5,0.2-2.2
		c0.1-0.7,0.2-1.4,0.3-2.2c0.1-0.7,0.2-1.4,0.4-2.1c0.1-0.7,0.3-1.4,0.5-2.1c0.2-0.7,0.4-1.4,0.6-2c0.2-0.7,0.4-1.3,0.7-2
		c0.2-0.7,0.5-1.3,0.8-2c0.3-0.6,0.6-1.3,0.9-1.9c0.3-0.6,0.6-1.2,1-1.9c0.3-0.6,0.7-1.2,1-1.8c0.4-0.6,0.7-1.2,1.1-1.8
		c0.4-0.6,0.8-1.1,1.2-1.7c0.4-0.6,0.8-1.1,1.3-1.6c0.4-0.5,0.9-1.1,1.4-1.6c0.5-0.5,0.9-1,1.4-1.5c0.5-0.5,1-1,1.5-1.4
		c0.5-0.5,1-0.9,1.6-1.4c0.5-0.4,1.1-0.9,1.6-1.3c0.6-0.4,1.1-0.8,1.7-1.2c0.6-0.4,1.2-0.8,1.8-1.1c0.6-0.4,1.2-0.7,1.8-1
		c0.6-0.3,1.2-0.7,1.9-1C30.3,9.3,31,9,31.6,8.7c0.6-0.3,1.3-0.5,2-0.8c0.7-0.2,1.3-0.5,2-0.7c0.7-0.2,1.4-0.4,2-0.6
		c0.7-0.2,1.4-0.3,2.1-0.5c0.7-0.1,1.4-0.3,2.1-0.4c0.7-0.1,1.4-0.2,2.2-0.3c0.7-0.1,1.5-0.1,2.2-0.2c1.5-0.1,3-0.1,4.4,0
		c0.7,0,1.5,0.1,2.2,0.2c0.7,0.1,1.4,0.2,2.2,0.3c0.7,0.1,1.4,0.2,2.1,0.4c0.7,0.1,1.4,0.3,2.1,0.5c0.7,0.2,1.4,0.4,2,0.6
		c0.7,0.2,1.3,0.4,2,0.7c0.7,0.2,1.3,0.5,2,0.8c0.6,0.3,1.3,0.6,1.9,0.9c0.6,0.3,1.2,0.6,1.9,1c0.6,0.3,1.2,0.7,1.8,1
		c0.6,0.4,1.2,0.7,1.8,1.1c0.6,0.4,1.1,0.8,1.7,1.2c0.6,0.4,1.1,0.8,1.6,1.3c0.5,0.4,1.1,0.9,1.6,1.4c0.5,0.5,1,0.9,1.5,1.4
		c0.5,0.5,1,1,1.4,1.5c0.5,0.5,0.9,1,1.4,1.6c0.4,0.5,0.9,1.1,1.3,1.6c0.4,0.6,0.8,1.1,1.2,1.7c0.4,0.6,0.8,1.2,1.1,1.7
		c0.4,0.6,0.7,1.2,1,1.8c0.3,0.6,0.7,1.2,1,1.9c0.3,0.6,0.6,1.3,0.9,1.9c0.3,0.6,0.5,1.3,0.8,2c0.2,0.7,0.5,1.3,0.7,2
		c0.2,0.7,0.4,1.4,0.6,2c0.2,0.7,0.3,1.4,0.5,2.1c0.1,0.7,0.3,1.4,0.4,2.1c0.1,0.7,0.2,1.4,0.3,2.2c0.1,0.7,0.1,1.5,0.2,2.2
		c0,0.7,0.1,1.5,0.1,2.2s0,1.5-0.1,2.2c0,0.7-0.1,1.5-0.2,2.2c-0.1,0.7-0.2,1.4-0.3,2.2c-0.1,0.7-0.2,1.4-0.4,2.1
		c-0.1,0.7-0.3,1.4-0.5,2.1c-0.2,0.7-0.4,1.4-0.6,2c-0.2,0.7-0.4,1.3-0.7,2c-0.2,0.7-0.5,1.3-0.8,2c-0.3,0.6-0.6,1.3-0.9,1.9
		c-0.3,0.6-0.6,1.2-1,1.9c-0.3,0.6-0.7,1.2-1,1.8c-0.4,0.6-0.7,1.2-1.1,1.8c-0.4,0.6-0.8,1.1-1.2,1.7c-0.4,0.6-0.8,1.1-1.3,1.6
		c-0.4,0.5-0.9,1.1-1.4,1.6c-0.5,0.5-0.9,1-1.4,1.5c-0.5,0.5-1,1-1.5,1.4c-0.5,0.5-1,0.9-1.6,1.4c-0.5,0.4-1.1,0.9-1.6,1.3
		c-0.6,0.4-1.1,0.8-1.7,1.2c-0.6,0.4-1.2,0.8-1.7,1.1c-0.6,0.4-1.2,0.7-1.8,1c-0.1,0.1-0.2,0.1-0.3,0.2l0-30.7
		c6.7-1.2,11.8-7.1,11.8-14.2c0-0.9,0-1.7-0.1-2.5c-0.1-0.8-0.2-1.7-0.4-2.5c-0.2-0.8-0.4-1.6-0.6-2.4c-0.2-0.8-0.5-1.6-0.8-2.3
		c-0.3-0.7-0.7-1.5-1-2.2c-0.4-0.7-0.8-1.4-1.2-2.1c-0.4-0.7-0.9-1.3-1.4-1.9c-0.5-0.6-1.1-1.2-1.6-1.8c-0.6-0.6-1.2-1.1-1.8-1.6
		c-0.6-0.5-1.3-1-1.9-1.4c-0.7-0.5-1.4-0.9-2.1-1.2c-0.8-0.5-1.9-0.5-2.7,0c-0.7,0.4-1.4,0.8-2.1,1.3c-0.6,0.4-1.3,0.9-1.9,1.4
		c-0.6,0.5-1.2,1-1.8,1.6c-0.5,0.5-1.1,1.1-1.6,1.8c-0.5,0.6-1,1.3-1.4,1.9c-0.5,0.7-0.9,1.4-1.3,2.1c-0.4,0.7-0.7,1.4-1.1,2.2
		c-0.3,0.8-0.6,1.5-0.8,2.3c-0.3,0.8-0.5,1.6-0.6,2.4c-0.2,0.8-0.3,1.6-0.4,2.5c-0.1,0.8-0.1,1.7-0.1,2.5c0,5.7,3.4,10.7,8.2,13
		l3.6-16.9v18.1c0,0,0,0,0,0l0,14.2c-2.6-2.2-5.9-3.5-9.5-3.5H41.6c-5.2,0-9.5-4.3-9.5-9.5v-1.2c6.7-1.2,11.8-7.1,11.8-14.2
		c0-0.8,0-1.7-0.1-2.6c-0.1-0.8-0.2-1.7-0.4-2.5c-0.2-0.8-0.4-1.6-0.6-2.4c-0.2-0.8-0.5-1.5-0.8-2.3c-0.3-0.7-0.6-1.4-1.1-2.2
		c-0.4-0.7-0.8-1.4-1.2-2.1c-0.4-0.7-0.9-1.3-1.4-1.9c-0.5-0.6-1-1.2-1.6-1.8c-0.6-0.6-1.2-1.1-1.8-1.6c-0.6-0.5-1.3-1-1.9-1.4
		c-0.7-0.5-1.4-0.9-2.1-1.2c-0.9-0.5-1.9-0.5-2.7,0c-0.7,0.4-1.4,0.8-2.1,1.3c-0.7,0.4-1.3,0.9-1.9,1.4c-0.6,0.5-1.2,1-1.8,1.6
		c-0.6,0.6-1.1,1.2-1.6,1.8c-0.5,0.6-1,1.3-1.4,1.9c-0.5,0.7-0.9,1.4-1.2,2.1c-0.4,0.7-0.7,1.4-1.1,2.2c-0.3,0.8-0.6,1.5-0.8,2.3
		c-0.2,0.8-0.4,1.6-0.6,2.4c-0.2,0.8-0.3,1.7-0.4,2.5c-0.1,0.8-0.1,1.7-0.1,2.6c0,5.7,3.4,10.7,8.2,13l3.6-17v18.1v1.4
		c0,0.1,0,0.2,0,0.3c0.3,7.9,6.8,14.2,14.7,14.2h12.3c5.2,0,9.5,4.3,9.5,9.5c0,0,0,0.1,0,0.1l0,9.1c0,0.6,0.2,1.2,0.6,1.6
		c0.7,1,2,1.5,3.2,1c0.7-0.3,1.4-0.6,2.1-1c0.7-0.3,1.4-0.7,2.1-1.1c0.7-0.4,1.4-0.8,2-1.2c0.7-0.4,1.3-0.8,2-1.3
		c0.6-0.4,1.3-0.9,1.9-1.4c0.6-0.5,1.2-0.9,1.8-1.4c0.6-0.5,1.2-1,1.8-1.5c0.6-0.5,1.1-1.1,1.7-1.6c0.5-0.5,1.1-1.1,1.6-1.7
		c0.5-0.6,1-1.2,1.5-1.8c0.5-0.6,1-1.2,1.4-1.8c0.5-0.6,0.9-1.3,1.3-1.9c0.4-0.6,0.9-1.3,1.3-2c0.4-0.7,0.8-1.3,1.2-2
		c0.4-0.7,0.7-1.4,1.1-2.1c0.3-0.7,0.7-1.4,1-2.1c0.3-0.7,0.6-1.5,0.9-2.2c0.3-0.7,0.5-1.5,0.8-2.2c0.2-0.8,0.5-1.5,0.7-2.3
		c0.2-0.8,0.4-1.6,0.5-2.3c0.2-0.8,0.3-1.6,0.4-2.4c0.1-0.8,0.2-1.6,0.3-2.4c0.1-0.8,0.1-1.6,0.2-2.5c0-0.8,0.1-1.7,0.1-2.5
		S96.7,46.8,96.7,46z"/>
</g>
</svg>
