<?xml version="1.0" encoding="utf-8"?>
<!-- Generator: Adobe Illustrator 19.2.1, SVG Export Plug-In . SVG Version: 6.00 Build 0)  -->
<svg version="1.1" id="Layer_1" xmlns="http://www.w3.org/2000/svg" xmlns:xlink="http://www.w3.org/1999/xlink" x="0px" y="0px"
	 viewBox="0 0 679.4 72.2" style="enable-background:new 0 0 679.4 72.2;" xml:space="preserve">
<style type="text/css">
	.st0{fill:#9CAAB2;stroke:#9CAAB2;stroke-width:5;stroke-miterlimit:10;}
	.st1{fill:#FFFFFF;stroke:#3B5666;stroke-width:5;stroke-miterlimit:10;}
	.st2{fill:#3B5666;}
</style>
<g>
	<rect x="2.5" y="7.5" class="st0" width="669.4" height="62.2"/>
	<rect x="8.5" y="2.5" class="st1" width="668.5" height="62.2"/>
	<g>
		<path class="st2" d="M36.7,32.4c2.2,0.8,2.8,1.1,3.7,1.7c1.7,1,2.8,3,2.8,5.1c0,2.1-1.1,4.1-2.9,5.2c-1.1,0.7-1.9,0.9-3.6,1.2V49
			h-1.5v-3.3c-1.5-0.1-2.4-0.4-3.5-1.2c-1.8-1.2-2.7-2.7-2.7-4.7c0-0.1,0-0.3,0-0.5h2.5c0,0.1,0,0.1,0,0.2c-0.1,1.8,1.4,3.5,3.7,3.7
			v-8.5c-1.8-0.7-2.6-1-3.5-1.6c-1.6-1-2.6-2.8-2.6-4.8c0-2.1,1-4,2.7-5.1c0.9-0.6,1.8-0.9,3.3-1v-2.6h1.5v2.6c3.7,0.4,6,2.7,6,6
			h-2.6c-0.2-1.9-1.4-3.1-3.5-3.5V32.4z M35.2,24.6c-2.3,0.3-3.5,1.5-3.5,3.5c0,1.8,1,2.9,3.5,3.7V24.6z M36.7,43.2
			c2.3-0.2,3.8-1.7,3.8-3.8c0-1.9-1.2-3.2-3.8-4.1V43.2z"/>
	</g>
	<path class="st2" d="M646.7,15.2c-10.2,0-18.5,8.3-18.5,18.5s8.3,18.5,18.5,18.5s18.5-8.3,18.5-18.5S656.9,15.2,646.7,15.2z
		 M646.5,44c-1.3,0-2.2-0.9-2.2-2.2c0-1.3,0.9-2.2,2.2-2.2c1.3,0,2.2,0.9,2.2,2.2C648.7,43.1,647.7,44,646.5,44z M650.1,33.4
		c-1.5,1.1-1.7,1.4-1.7,2.7v0.4c0,0.1,0,0.4,0,0.7h-3.8c0-0.5,0-0.9,0-1.1c0-2.4,0.4-3,2.7-4.9c1.2-0.9,1.6-1.5,1.6-2.4
		c0-1.1-0.8-2-2-2c-1.3,0-2,0.8-2,2.3h-3.6c0.1-3.6,2.2-5.7,5.7-5.7c3.4,0,5.8,2.2,5.8,5.4C652.7,30.6,651.9,32,650.1,33.4z"/>
</g>
</svg>
