<?xml version="1.0" encoding="utf-8"?>
<!-- Generator: Adobe Illustrator 21.0.0, SVG Export Plug-In . SVG Version: 6.00 Build 0)  -->
<svg version="1.1" id="Layer_1" xmlns="http://www.w3.org/2000/svg" xmlns:xlink="http://www.w3.org/1999/xlink" x="0px" y="0px"
	 viewBox="0 0 2606.7 768" style="enable-background:new 0 0 2606.7 768;" xml:space="preserve">
<style type="text/css">
	.st0{opacity:0.2;}
	.st1{fill:#63A87B;}
</style>
<g class="st0">
	<path class="st1" d="M2243.2,289c2.1-0.9,4.4-1.6,6.6-2.1c4.6-1,9.6-1,14.2,0c2.3,0.5,4.5,1.2,6.6,2.1c2.1,0.9,4.1,2,6,3.3
		c2.4,1.6,5,3,7.7,4.2c2.7,1.2,5.6,2,8.5,2.6c3,0.6,6,0.9,9.1,0.9V290c-2.4,0-4.8-0.2-7.1-0.7c-2.3-0.5-4.5-1.2-6.6-2.1
		c-2.1-0.9-4.1-2-6-3.3c-2.4-1.6-5-3-7.7-4.2c-2.7-1.2-5.6-2-8.5-2.6c-6-1.2-12.3-1.2-18.2,0c-2.9,0.6-5.8,1.5-8.5,2.6
		c-2.7,1.1-5.3,2.5-7.7,4.2l5.5,8.2C2239.1,291,2241.1,289.9,2243.2,289z"/>
	<path class="st1" d="M1973.2,289c2.1-0.9,4.4-1.6,6.6-2.1c4.7-1,9.6-1,14.2,0c2.3,0.5,4.5,1.2,6.6,2.1c2.1,0.9,4.1,2,6,3.3
		c2.4,1.6,5,3,7.7,4.2c2.7,1.2,5.6,2,8.5,2.6c3,0.6,6,0.9,9.1,0.9c3.1,0,6.1-0.3,9.1-0.9c2.9-0.6,5.8-1.5,8.5-2.6
		c2.7-1.1,5.3-2.5,7.7-4.2c1.9-1.3,3.9-2.4,6-3.3c2.1-0.9,4.4-1.6,6.6-2.1c4.6-1,9.6-1,14.2,0c2.3,0.5,4.5,1.2,6.6,2.1
		c2.1,0.9,4.1,2,6,3.3l5.5-8.2c-2.4-1.6-5-3-7.7-4.2c-2.7-1.2-5.6-2-8.5-2.6c-6-1.2-12.3-1.2-18.2,0c-2.9,0.6-5.8,1.5-8.5,2.6
		c-2.7,1.1-5.3,2.5-7.7,4.2c-1.9,1.3-3.9,2.4-6,3.3c-2.1,0.9-4.4,1.6-6.6,2.1c-4.6,1-9.6,1-14.2,0c-2.3-0.5-4.5-1.2-6.6-2.1
		c-2.1-0.9-4.1-2-6-3.3c-2.4-1.6-5-3-7.7-4.2c-2.7-1.2-5.6-2-8.5-2.6c-6-1.2-12.2-1.2-18.2,0c-2.9,0.6-5.8,1.5-8.5,2.6
		c-2.7,1.1-5.3,2.5-7.7,4.2l5.5,8.2C1969.1,291,1971.2,289.9,1973.2,289z"/>
	<path class="st1" d="M1781.7,284c-1.9,1.3-3.9,2.4-6,3.3c-2.1,0.9-4.4,1.6-6.6,2.1c-2.3,0.5-4.7,0.7-7.1,0.7v9.9
		c3.1,0,6.1-0.3,9.1-0.9c2.9-0.6,5.8-1.5,8.5-2.6c2.7-1.1,5.3-2.5,7.7-4.2c1.9-1.3,3.9-2.4,6-3.3c2.1-0.9,4.4-1.6,6.6-2.1
		c4.6-1,9.6-1,14.2,0c2.3,0.5,4.5,1.2,6.6,2.1c2.1,0.9,4.1,2,6,3.3l5.5-8.2c-2.4-1.6-5-3-7.7-4.2c-2.7-1.2-5.6-2-8.5-2.6
		c-6-1.2-12.3-1.2-18.2,0c-2.9,0.6-5.8,1.5-8.5,2.6C1786.7,281,1784.2,282.4,1781.7,284z"/>
	<path class="st1" d="M2244.1,364.9c2.1-0.9,4.4-1.6,6.6-2.1c4.6-1,9.6-1,14.2,0c2.3,0.5,4.5,1.2,6.6,2.1c2.1,0.9,4.1,2,6,3.3
		c2.4,1.6,5,3,7.7,4.2c2.7,1.2,5.6,2,8.5,2.6c3,0.6,6,0.9,9.1,0.9V366c-2.4,0-4.8-0.2-7.1-0.7c-2.3-0.5-4.5-1.2-6.6-2.1
		c-2.1-0.9-4.1-2-6-3.3c-2.4-1.6-5-3-7.7-4.2c-2.7-1.2-5.6-2-8.5-2.6c-5.9-1.2-12.3-1.2-18.2,0c-2.9,0.6-5.8,1.5-8.5,2.6
		c-2.7,1.1-5.3,2.5-7.7,4.2l5.5,8.2C2240,366.9,2242,365.8,2244.1,364.9z"/>
	<path class="st1" d="M2087,353.2c-6-1.2-12.3-1.2-18.2,0c-2.9,0.6-5.8,1.5-8.5,2.6c-2.7,1.1-5.3,2.5-7.7,4.2
		c-1.9,1.3-3.9,2.4-6,3.3c-2.1,0.9-4.4,1.6-6.6,2.1c-4.7,1-9.6,1-14.2,0c-2.3-0.5-4.5-1.2-6.6-2.1c-2.1-0.9-4.1-2-6-3.3
		c-2.4-1.6-5-3-7.7-4.2c-2.7-1.2-5.6-2-8.5-2.6c-5.9-1.2-12.3-1.2-18.2,0c-2.9,0.6-5.8,1.5-8.5,2.6c-2.7,1.1-5.3,2.5-7.7,4.2
		l5.5,8.2c1.9-1.3,3.9-2.4,6-3.3c2.1-0.9,4.4-1.6,6.6-2.1c4.6-1,9.6-1,14.2,0c2.3,0.5,4.5,1.2,6.6,2.1c2.1,0.9,4.1,2,6,3.3
		c2.4,1.6,5,3,7.7,4.2c2.7,1.2,5.6,2,8.5,2.6c3,0.6,6,0.9,9.1,0.9c3.1,0,6.1-0.3,9.1-0.9c2.9-0.6,5.8-1.5,8.5-2.6
		c2.7-1.1,5.3-2.5,7.7-4.2c1.9-1.3,3.9-2.4,6-3.3c2.1-0.9,4.4-1.6,6.6-2.1c4.6-1,9.6-1,14.2,0c2.3,0.5,4.5,1.2,6.6,2.1
		c2.1,0.9,4.1,2,6,3.3l5.5-8.2c-2.4-1.6-5-3-7.7-4.2C2092.8,354.6,2089.9,353.7,2087,353.2z"/>
	<path class="st1" d="M1817,353.2c-6-1.2-12.3-1.2-18.2,0c-2.9,0.6-5.8,1.5-8.5,2.6c-2.7,1.1-5.3,2.5-7.7,4.2
		c-1.9,1.3-3.9,2.4-6,3.3c-2.1,0.9-4.4,1.6-6.6,2.1c-2.3,0.5-4.7,0.7-7.1,0.7v9.9c3.1,0,6.1-0.3,9.1-0.9c2.9-0.6,5.8-1.5,8.5-2.6
		c2.7-1.1,5.3-2.5,7.7-4.2c1.9-1.3,3.9-2.4,6-3.3c2.1-0.9,4.4-1.6,6.6-2.1c4.6-1,9.6-1,14.2,0c2.3,0.5,4.5,1.2,6.6,2.1
		c2.1,0.9,4.1,2,6,3.3l5.5-8.2c-2.4-1.6-5-3-7.7-4.2C1822.8,354.6,1819.9,353.7,1817,353.2z"/>
	<path class="st1" d="M2289.1,325.7c-2.1-0.9-4.1-2-6-3.3c-2.4-1.6-5-3-7.7-4.2c-2.7-1.2-5.6-2-8.5-2.6c-6-1.2-12.2-1.2-18.2,0
		c-2.9,0.6-5.8,1.5-8.5,2.6c-2.7,1.1-5.3,2.5-7.7,4.2l5.5,8.2c1.9-1.3,3.9-2.4,6-3.3c2.1-0.9,4.4-1.6,6.6-2.1c4.7-1,9.6-1,14.2,0
		c2.3,0.5,4.5,1.2,6.6,2.1c2.1,0.9,4.1,2,6,3.3c2.4,1.6,5,3,7.7,4.2c2.7,1.2,5.6,2,8.5,2.6c3,0.6,6,0.9,9.1,0.9v-9.9
		c-2.4,0-4.8-0.2-7.1-0.7C2293.5,327.3,2291.2,326.6,2289.1,325.7z"/>
	<path class="st1" d="M2087,315.6c-6-1.2-12.2-1.2-18.2,0c-2.9,0.6-5.8,1.5-8.5,2.6c-2.7,1.1-5.3,2.5-7.7,4.2
		c-1.9,1.3-3.9,2.4-6,3.3c-2.1,0.9-4.4,1.6-6.6,2.1c-4.6,1-9.6,1-14.2,0c-2.3-0.5-4.5-1.2-6.6-2.1c-2.1-0.9-4.1-2-6-3.3
		c-2.4-1.6-5-3-7.7-4.2c-2.7-1.2-5.6-2-8.5-2.6c-6-1.2-12.2-1.2-18.2,0c-2.9,0.6-5.8,1.5-8.5,2.6c-2.7,1.1-5.3,2.5-7.7,4.2l5.5,8.2
		c1.9-1.3,3.9-2.4,6-3.3c2.1-0.9,4.4-1.6,6.6-2.1c4.7-1,9.6-1,14.2,0c2.3,0.5,4.5,1.2,6.6,2.1c2.1,0.9,4.1,2,6,3.3
		c2.4,1.6,5,3,7.7,4.2c2.7,1.2,5.6,2,8.5,2.6c3,0.6,6,0.9,9.1,0.9c3.1,0,6.1-0.3,9.1-0.9c2.9-0.6,5.8-1.5,8.5-2.6
		c2.7-1.1,5.3-2.5,7.7-4.2c1.9-1.3,3.9-2.4,6-3.3c2.1-0.9,4.4-1.6,6.6-2.1c4.7-1,9.6-1,14.2,0c2.3,0.5,4.5,1.2,6.6,2.1
		c2.1,0.9,4.1,2,6,3.3l5.5-8.2c-2.4-1.6-5-3-7.7-4.2C2092.8,317.1,2089.9,316.2,2087,315.6z"/>
	<path class="st1" d="M1817,315.6c-6-1.2-12.2-1.2-18.2,0c-2.9,0.6-5.8,1.5-8.5,2.6c-2.7,1.1-5.3,2.5-7.7,4.2
		c-1.9,1.3-3.9,2.4-6,3.3c-2.1,0.9-4.4,1.6-6.6,2.1c-2.3,0.5-4.7,0.7-7.1,0.7v9.9c3.1,0,6.1-0.3,9.1-0.9c2.9-0.6,5.8-1.5,8.5-2.6
		c2.7-1.1,5.3-2.5,7.7-4.2c1.9-1.3,3.9-2.4,6-3.3c2.1-0.9,4.4-1.6,6.6-2.1c4.7-1,9.6-1,14.2,0c2.3,0.5,4.5,1.2,6.6,2.1
		c2.1,0.9,4.1,2,6,3.3l5.5-8.2c-2.4-1.6-5-3-7.7-4.2C1822.8,317.1,1819.9,316.2,1817,315.6z"/>
	<rect x="342.9" y="288.1" class="st1" width="67.6" height="9.9"/>
	<path class="st1" d="M428,714.4c2.7-1.1,5.3-2.5,7.7-4.2c1.9-1.3,3.9-2.4,6-3.3c2.1-0.9,4.4-1.6,6.6-2.1c4.7-1,9.6-1,14.2,0
		c2.3,0.5,4.5,1.2,6.6,2.1c2.1,0.9,4.1,2,6,3.3c2.4,1.6,5,3,7.7,4.2c2.7,1.2,5.6,2,8.5,2.6c6,1.2,12.3,1.2,18.2,0
		c2.9-0.6,5.8-1.5,8.5-2.6c2.7-1.1,5.3-2.5,7.7-4.2c1.9-1.3,3.9-2.4,6-3.3c2.1-0.9,4.4-1.6,6.6-2.1c4.7-1,9.6-1,14.2,0
		c2.3,0.5,4.5,1.2,6.6,2.1c2.1,0.9,4.1,2,6,3.3c2.4,1.6,5,3,7.7,4.2c2.7,1.2,5.6,2,8.5,2.6c5.9,1.2,12.3,1.2,18.2,0
		c2.9-0.6,5.8-1.5,8.5-2.6c2.7-1.1,5.3-2.5,7.7-4.2c1.9-1.3,3.9-2.4,6-3.3c2.1-0.9,4.4-1.6,6.6-2.1c4.7-1,9.6-1,14.2,0
		c2.3,0.5,4.5,1.2,6.6,2.1c2.1,0.9,4.1,2,6,3.3c2.4,1.6,5,3,7.7,4.2c2.7,1.2,5.6,2,8.5,2.6c6,1.2,12.3,1.2,18.2,0
		c2.9-0.6,5.8-1.5,8.5-2.6c2.7-1.1,5.3-2.5,7.7-4.2c1.9-1.3,3.9-2.4,6-3.3c2.1-0.9,4.4-1.6,6.6-2.1c4.7-1,9.6-1,14.2,0
		c2.3,0.5,4.5,1.2,6.6,2.1c2.1,0.9,4.1,2,6,3.3c2.4,1.6,5,3,7.7,4.2c2.7,1.2,5.6,2,8.5,2.6c6,1.2,12.3,1.2,18.2,0
		c2.9-0.6,5.8-1.5,8.5-2.6c2.7-1.1,5.3-2.5,7.7-4.2c1.9-1.3,3.9-2.4,6-3.3c2.1-0.9,4.4-1.6,6.6-2.1c4.7-1,9.6-1,14.2,0
		c2.3,0.5,4.5,1.2,6.6,2.1c2.1,0.9,4.1,2,6,3.3c2.4,1.6,5,3,7.7,4.2c2.7,1.2,5.6,2,8.5,2.6c5.9,1.2,12.3,1.2,18.2,0
		c2.9-0.6,5.8-1.5,8.5-2.6c2.7-1.1,5.3-2.5,7.7-4.2c1.9-1.3,3.9-2.4,6-3.3c2.1-0.9,4.4-1.6,6.6-2.1c4.7-1,9.6-1,14.2,0
		c2.3,0.5,4.5,1.2,6.6,2.1c2.1,0.9,4.1,2,6,3.3c2.4,1.6,5,3,7.7,4.2c2.7,1.2,5.6,2,8.5,2.6c3,0.6,6,0.9,9.1,0.9v-9.9
		c-2.4,0-4.8-0.2-7.1-0.7c-2.3-0.5-4.5-1.2-6.6-2.1c-2.1-0.9-4.1-2-6-3.3c-2.4-1.6-5-3-7.7-4.2c-2.7-1.2-5.6-2-8.5-2.6
		c-6-1.2-12.2-1.2-18.2,0c-2.9,0.6-5.8,1.5-8.5,2.6c-2.7,1.1-5.3,2.5-7.7,4.2c-1.9,1.3-3.9,2.4-6,3.3c-2.1,0.9-4.4,1.6-6.6,2.1
		c-4.6,1-9.6,1-14.2,0c-2.3-0.5-4.5-1.2-6.6-2.1c-2.1-0.9-4.1-2-6-3.3c-2.4-1.6-5-3-7.7-4.2c-2.7-1.2-5.6-2-8.5-2.6
		c-6-1.2-12.2-1.2-18.2,0c-2.9,0.6-5.8,1.5-8.5,2.6c-2.7,1.1-5.3,2.5-7.7,4.2c-1.9,1.3-3.9,2.4-6,3.3c-2.1,0.9-4.4,1.6-6.6,2.1
		c-4.6,1-9.6,1-14.2,0c-2.3-0.5-4.5-1.2-6.6-2.1c-2.1-0.9-4.1-2-6-3.3c-2.4-1.6-5-3-7.7-4.2c-2.7-1.2-5.6-2-8.5-2.6
		c-6-1.2-12.2-1.2-18.2,0c-2.9,0.6-5.8,1.5-8.5,2.6c-2.7,1.1-5.3,2.5-7.7,4.2c-1.9,1.3-3.9,2.4-6,3.3c-2.1,0.9-4.4,1.6-6.6,2.1
		c-4.6,1-9.6,1-14.2,0c-2.3-0.5-4.5-1.2-6.6-2.1c-2.1-0.9-4.1-2-6-3.3c-2.4-1.6-5-3-7.7-4.2c-2.7-1.2-5.6-2-8.5-2.6
		c-6-1.2-12.2-1.2-18.2,0c-2.9,0.6-5.8,1.5-8.5,2.6c-2.7,1.1-5.3,2.5-7.7,4.2c-1.9,1.3-3.9,2.4-6,3.3c-2.1,0.9-4.4,1.6-6.6,2.1
		c-4.6,1-9.6,1-14.2,0c-2.3-0.5-4.5-1.2-6.6-2.1c-2.1-0.9-4.1-2-6-3.3c-2.4-1.6-5-3-7.7-4.2c-2.7-1.2-5.6-2-8.5-2.6
		c-6-1.2-12.2-1.2-18.2,0c-2.9,0.6-5.8,1.5-8.5,2.6c-2.7,1.1-5.3,2.5-7.7,4.2c-1.9,1.3-3.9,2.4-6,3.3c-2.1,0.9-4.4,1.6-6.6,2.1
		c-4.6,1-9.6,1-14.2,0c-2.3-0.5-4.5-1.2-6.6-2.1c-2.1-0.9-4.1-2-6-3.3c-2.4-1.6-5-3-7.7-4.2c-2.7-1.2-5.6-2-8.5-2.6
		c-6-1.2-12.2-1.2-18.2,0c-2.9,0.6-5.8,1.5-8.5,2.6c-2.7,1.1-5.3,2.5-7.7,4.2c-1.9,1.3-3.9,2.4-6,3.3c-2.1,0.9-4.4,1.6-6.6,2.1
		c-2.3,0.5-4.7,0.7-7.1,0.7v9.9c3.1,0,6.1-0.3,9.1-0.9C422.4,716.5,425.3,715.6,428,714.4z"/>
	<path class="st1" d="M464.5,657.7c-6-1.2-12.2-1.2-18.2,0c-2.9,0.6-5.8,1.5-8.5,2.6c-2.7,1.1-5.3,2.5-7.7,4.2
		c-1.9,1.3-3.9,2.4-6,3.3c-2.1,0.9-4.4,1.6-6.6,2.1c-2.3,0.5-4.7,0.7-7.1,0.7v9.9c3.1,0,6.1-0.3,9.1-0.9c2.9-0.6,5.8-1.5,8.5-2.6
		c2.7-1.1,5.3-2.5,7.7-4.2c1.9-1.3,3.9-2.4,6-3.3c2.1-0.9,4.4-1.6,6.6-2.1c4.7-1,9.6-1,14.2,0c2.3,0.5,4.5,1.2,6.6,2.1
		c2.1,0.9,4.1,2,6,3.3c2.4,1.6,5,3,7.7,4.2c2.7,1.2,5.6,2,8.5,2.6c6,1.2,12.3,1.2,18.2,0c2.9-0.6,5.8-1.5,8.5-2.6
		c2.7-1.1,5.3-2.5,7.7-4.2c1.9-1.3,3.9-2.4,6-3.3c2.1-0.9,4.4-1.6,6.6-2.1c4.7-1,9.6-1,14.2,0c2.3,0.5,4.5,1.2,6.6,2.1
		c2.1,0.9,4.1,2,6,3.3c2.4,1.6,5,3,7.7,4.2c2.7,1.2,5.6,2,8.5,2.6c5.9,1.2,12.3,1.2,18.2,0c2.9-0.6,5.8-1.5,8.5-2.6
		c2.7-1.1,5.3-2.5,7.7-4.2c1.9-1.3,3.9-2.4,6-3.3c2.1-0.9,4.4-1.6,6.6-2.1c4.7-1,9.6-1,14.2,0c2.3,0.5,4.5,1.2,6.6,2.1
		c2.1,0.9,4.1,2,6,3.3c2.4,1.6,5,3,7.7,4.2c2.7,1.2,5.6,2,8.5,2.6c6,1.2,12.3,1.2,18.2,0c2.9-0.6,5.8-1.5,8.5-2.6
		c2.7-1.1,5.3-2.5,7.7-4.2c1.9-1.3,3.9-2.4,6-3.3c2.1-0.9,4.4-1.6,6.6-2.1c4.7-1,9.6-1,14.2,0c2.3,0.5,4.5,1.2,6.6,2.1
		c2.1,0.9,4.1,2,6,3.3c2.4,1.6,5,3,7.7,4.2c2.7,1.2,5.6,2,8.5,2.6c6,1.2,12.3,1.2,18.2,0c2.9-0.6,5.8-1.5,8.5-2.6
		c2.7-1.1,5.3-2.5,7.7-4.2c1.9-1.3,3.9-2.4,6-3.3c2.1-0.9,4.4-1.6,6.6-2.1c4.7-1,9.6-1,14.2,0c2.3,0.5,4.5,1.2,6.6,2.1
		c2.1,0.9,4.1,2,6,3.3c2.4,1.6,5,3,7.7,4.2c2.7,1.2,5.6,2,8.5,2.6c5.9,1.2,12.3,1.2,18.2,0c2.9-0.6,5.8-1.5,8.5-2.6
		c2.7-1.1,5.3-2.5,7.7-4.2c1.9-1.3,3.9-2.4,6-3.3c2.1-0.9,4.4-1.6,6.6-2.1c4.7-1,9.6-1,14.2,0c2.3,0.5,4.5,1.2,6.6,2.1
		c2.1,0.9,4.1,2,6,3.3c2.4,1.6,5,3,7.7,4.2c2.7,1.2,5.6,2,8.5,2.6c3,0.6,6,0.9,9.1,0.9v-9.9c-2.4,0-4.8-0.2-7.1-0.7
		c-2.3-0.5-4.5-1.2-6.6-2.1c-2.1-0.9-4.1-2-6-3.3c-2.4-1.6-5-3-7.7-4.2c-2.7-1.2-5.6-2-8.5-2.6c-6-1.2-12.2-1.2-18.2,0
		c-2.9,0.6-5.8,1.5-8.5,2.6c-2.7,1.1-5.3,2.5-7.7,4.2c-1.9,1.3-3.9,2.4-6,3.3c-2.1,0.9-4.4,1.6-6.6,2.1c-4.6,1-9.6,1-14.2,0
		c-2.3-0.5-4.5-1.2-6.6-2.1c-2.1-0.9-4.1-2-6-3.3c-2.4-1.6-5-3-7.7-4.2c-2.7-1.2-5.6-2-8.5-2.6c-6-1.2-12.2-1.2-18.2,0
		c-2.9,0.6-5.8,1.5-8.5,2.6c-2.7,1.1-5.3,2.5-7.7,4.2c-1.9,1.3-3.9,2.4-6,3.3c-2.1,0.9-4.4,1.6-6.6,2.1c-4.6,1-9.6,1-14.2,0
		c-2.3-0.5-4.5-1.2-6.6-2.1c-2.1-0.9-4.1-2-6-3.3c-2.4-1.6-5-3-7.7-4.2c-2.7-1.2-5.6-2-8.5-2.6c-6-1.2-12.2-1.2-18.2,0
		c-2.9,0.6-5.8,1.5-8.5,2.6c-2.7,1.1-5.3,2.5-7.7,4.2c-1.9,1.3-3.9,2.4-6,3.3c-2.1,0.9-4.4,1.6-6.6,2.1c-4.6,1-9.6,1-14.2,0
		c-2.3-0.5-4.5-1.2-6.6-2.1c-2.1-0.9-4.1-2-6-3.3c-2.4-1.6-5-3-7.7-4.2c-2.7-1.2-5.6-2-8.5-2.6c-6-1.2-12.2-1.2-18.2,0
		c-2.9,0.6-5.8,1.5-8.5,2.6c-2.7,1.1-5.3,2.5-7.7,4.2c-1.9,1.3-3.9,2.4-6,3.3c-2.1,0.9-4.4,1.6-6.6,2.1c-4.6,1-9.6,1-14.2,0
		c-2.3-0.5-4.5-1.2-6.6-2.1c-2.1-0.9-4.1-2-6-3.3c-2.4-1.6-5-3-7.7-4.2c-2.7-1.2-5.6-2-8.5-2.6c-6-1.2-12.2-1.2-18.2,0
		c-2.9,0.6-5.8,1.5-8.5,2.6c-2.7,1.1-5.3,2.5-7.7,4.2c-1.9,1.3-3.9,2.4-6,3.3c-2.1,0.9-4.4,1.6-6.6,2.1c-4.6,1-9.6,1-14.2,0
		c-2.3-0.5-4.5-1.2-6.6-2.1c-2.1-0.9-4.1-2-6-3.3c-2.4-1.6-5-3-7.7-4.2C470.3,659.2,467.4,658.3,464.5,657.7z"/>
	<path class="st1" d="M937.6,742.8c-2.1-0.9-4.1-2-6-3.3c-2.4-1.6-5-3-7.7-4.2c-2.7-1.2-5.6-2-8.5-2.6c-5.9-1.2-12.3-1.2-18.2,0
		c-2.9,0.6-5.8,1.5-8.5,2.6c-2.7,1.1-5.3,2.5-7.7,4.2c-1.9,1.3-3.9,2.4-6,3.3c-2.1,0.9-4.4,1.6-6.6,2.1c-4.7,1-9.6,1-14.2,0
		c-2.3-0.5-4.5-1.2-6.6-2.1c-2.1-0.9-4.1-2-6-3.3c-2.4-1.6-5-3-7.7-4.2c-2.7-1.2-5.6-2-8.5-2.6c-6-1.2-12.3-1.2-18.2,0
		c-2.9,0.6-5.8,1.5-8.5,2.6c-2.7,1.1-5.3,2.5-7.7,4.2c-1.9,1.3-3.9,2.4-6,3.3c-2.1,0.9-4.4,1.6-6.6,2.1c-4.7,1-9.6,1-14.2,0
		c-2.3-0.5-4.5-1.2-6.6-2.1c-2.1-0.9-4.1-2-6-3.3c-2.4-1.6-5-3-7.7-4.2c-2.7-1.2-5.6-2-8.5-2.6c-6-1.2-12.3-1.2-18.2,0
		c-2.9,0.6-5.8,1.5-8.5,2.6c-2.7,1.1-5.3,2.5-7.7,4.2c-1.9,1.3-3.9,2.4-6,3.3c-2.1,0.9-4.4,1.6-6.6,2.1c-4.7,1-9.6,1-14.2,0
		c-2.3-0.5-4.5-1.2-6.6-2.1c-2.1-0.9-4.1-2-6-3.3c-2.4-1.6-5-3-7.7-4.2c-2.7-1.2-5.6-2-8.5-2.6c-5.9-1.2-12.3-1.2-18.2,0
		c-2.9,0.6-5.8,1.5-8.5,2.6c-2.7,1.1-5.3,2.5-7.7,4.2c-1.9,1.3-3.9,2.4-6,3.3c-2.1,0.9-4.4,1.6-6.6,2.1c-4.7,1-9.6,1-14.2,0
		c-2.3-0.5-4.5-1.2-6.6-2.1c-2.1-0.9-4.1-2-6-3.3c-2.4-1.6-5-3-7.7-4.2c-2.7-1.2-5.6-2-8.5-2.6c-6-1.2-12.3-1.2-18.2,0
		c-2.9,0.6-5.8,1.5-8.5,2.6c-2.7,1.1-5.3,2.5-7.7,4.2c-1.9,1.3-3.9,2.4-6,3.3c-2.1,0.9-4.4,1.6-6.6,2.1c-4.7,1-9.6,1-14.2,0
		c-2.3-0.5-4.5-1.2-6.6-2.1c-2.1-0.9-4.1-2-6-3.3c-2.4-1.6-5-3-7.7-4.2c-2.7-1.2-5.6-2-8.5-2.6c-6-1.2-12.3-1.2-18.2,0
		c-2.9,0.6-5.8,1.5-8.5,2.6c-2.7,1.1-5.3,2.5-7.7,4.2c-1.9,1.3-3.9,2.4-6,3.3c-2.1,0.9-4.4,1.6-6.6,2.1c-2.3,0.5-4.7,0.7-7.1,0.7
		v9.9c3.1,0,6.1-0.3,9.1-0.9c2.9-0.6,5.8-1.5,8.5-2.6c2.7-1.1,5.3-2.5,7.7-4.2c1.9-1.3,3.9-2.4,6-3.3c2.1-0.9,4.4-1.6,6.6-2.1
		c4.6-1,9.6-1,14.2,0c2.3,0.5,4.5,1.2,6.6,2.1c2.1,0.9,4.1,2,6,3.3c2.4,1.6,5,3,7.7,4.2c2.7,1.2,5.6,2,8.5,2.6
		c6,1.2,12.2,1.2,18.2,0c2.9-0.6,5.8-1.5,8.5-2.6c2.7-1.1,5.3-2.5,7.7-4.2c1.9-1.3,3.9-2.4,6-3.3c2.1-0.9,4.4-1.6,6.6-2.1
		c4.6-1,9.6-1,14.2,0c2.3,0.5,4.5,1.2,6.6,2.1c2.1,0.9,4.1,2,6,3.3c2.4,1.6,5,3,7.7,4.2c2.7,1.2,5.6,2,8.5,2.6
		c6,1.2,12.2,1.2,18.2,0c2.9-0.6,5.8-1.5,8.5-2.6c2.7-1.1,5.3-2.5,7.7-4.2c1.9-1.3,3.9-2.4,6-3.3c2.1-0.9,4.4-1.6,6.6-2.1
		c4.6-1,9.6-1,14.2,0c2.3,0.5,4.5,1.2,6.6,2.1c2.1,0.9,4.1,2,6,3.3c2.4,1.6,5,3,7.7,4.2c2.7,1.2,5.6,2,8.5,2.6
		c6,1.2,12.2,1.2,18.2,0c2.9-0.6,5.8-1.5,8.5-2.6c2.7-1.1,5.3-2.5,7.7-4.2c1.9-1.3,3.9-2.4,6-3.3c2.1-0.9,4.4-1.6,6.6-2.1
		c4.6-1,9.6-1,14.2,0c2.3,0.5,4.5,1.2,6.6,2.1c2.1,0.9,4.1,2,6,3.3c2.4,1.6,5,3,7.7,4.2c2.7,1.2,5.6,2,8.5,2.6
		c6,1.2,12.2,1.2,18.2,0c2.9-0.6,5.8-1.5,8.5-2.6c2.7-1.1,5.3-2.5,7.7-4.2c1.9-1.3,3.9-2.4,6-3.3c2.1-0.9,4.4-1.6,6.6-2.1
		c4.6-1,9.6-1,14.2,0c2.3,0.5,4.5,1.2,6.6,2.1c2.1,0.9,4.1,2,6,3.3c2.4,1.6,5,3,7.7,4.2c2.7,1.2,5.6,2,8.5,2.6
		c6,1.2,12.2,1.2,18.2,0c2.9-0.6,5.8-1.5,8.5-2.6c2.7-1.1,5.3-2.5,7.7-4.2c1.9-1.3,3.9-2.4,6-3.3c2.1-0.9,4.4-1.6,6.6-2.1
		c4.6-1,9.6-1,14.2,0c2.3,0.5,4.5,1.2,6.6,2.1c2.1,0.9,4.1,2,6,3.3c2.4,1.6,5,3,7.7,4.2c2.7,1.2,5.6,2,8.5,2.6c3,0.6,6,0.9,9.1,0.9
		v-9.9c-2.4,0-4.8-0.2-7.1-0.7C941.9,744.4,939.7,743.7,937.6,742.8z"/>
	<polygon class="st1" points="303,118.7 310,111.7 275.3,77 240.5,111.7 247.5,118.7 270.3,95.9 270.3,119.9 240.5,149.7 
		247.5,156.7 270.3,133.9 270.3,157.9 240.5,187.7 247.5,194.7 270.3,171.9 270.3,195.9 240.5,225.7 247.5,232.7 270.3,209.9 
		270.3,233.9 240.5,263.7 247.5,270.7 270.3,247.9 270.3,271.9 240.5,301.7 247.5,308.7 270.3,285.9 270.3,309.9 240.5,339.7 
		247.5,346.7 270.3,323.9 270.3,347.9 240.5,377.7 247.5,384.7 270.3,361.9 270.3,385.9 240.5,415.7 247.5,422.7 270.3,399.9 
		270.3,423.9 240.5,453.7 247.5,460.7 270.3,437.9 270.3,461.9 240.5,491.7 247.5,498.7 270.3,475.9 270.3,499.9 240.5,529.7 
		247.5,536.7 270.3,513.9 270.3,537.9 240.5,567.7 247.5,574.7 270.3,551.9 270.3,575.9 240.5,605.7 247.5,612.7 270.3,589.9 
		270.3,613.9 240.5,643.7 247.5,650.7 270.3,627.9 270.3,651.9 240.5,681.7 247.5,688.7 270.3,665.9 270.3,689.9 240.5,719.7 
		247.5,726.7 270.3,703.9 270.3,768 280.2,768 280.2,703.9 303,726.7 310,719.7 280.2,689.9 280.2,665.9 303,688.7 310,681.7 
		280.2,651.9 280.2,627.9 303,650.7 310,643.7 280.2,613.9 280.2,589.9 303,612.7 310,605.7 280.2,575.9 280.2,551.9 303,574.7 
		310,567.7 280.2,537.9 280.2,513.9 303,536.7 310,529.7 280.2,499.9 280.2,475.9 303,498.7 310,491.7 280.2,461.9 280.2,437.9 
		303,460.7 310,453.7 280.2,423.9 280.2,399.9 303,422.7 310,415.7 280.2,385.9 280.2,361.9 303,384.7 310,377.7 280.2,347.9 
		280.2,323.9 303,346.7 310,339.7 280.2,309.9 280.2,285.9 303,308.7 310,301.7 280.2,271.9 280.2,247.9 303,270.7 310,263.7 
		280.2,233.9 280.2,209.9 303,232.7 310,225.7 280.2,195.9 280.2,171.9 303,194.7 310,187.7 280.2,157.9 280.2,133.9 303,156.7 
		310,149.7 280.2,119.9 280.2,95.9 	"/>
	<path class="st1" d="M145,274V210l22.8,22.8l7-7L145,196v-24l22.8,22.8l7-7L140.1,153l-34.7,34.7l7,7l22.8-22.8v24l-29.8,29.8l7,7
		l22.8-22.8v59.8c-34.4-16.1-59-37.2-59.4-37.5l-2-1.7L0,250.2l2.6,9.6l68.7-18.3c11.9,9.8,71.9,56.5,136.4,56.5v-9.9
		c-22,0-43.7-6-63-14.1H145z"/>
	<polygon class="st1" points="167.8,422.3 174.8,415.3 140.1,380.6 105.4,415.3 112.4,422.3 135.1,399.5 135.1,423.5 105.4,453.3 
		112.4,460.3 135.1,437.5 135.1,461.5 105.4,491.3 112.4,498.3 135.1,475.5 135.1,499.5 105.4,529.3 112.4,536.3 135.1,513.5 
		135.1,537.6 105.4,567.3 112.4,574.3 135.1,551.5 135.1,575.6 105.4,605.3 112.4,612.3 135.1,589.5 135.1,613.6 105.4,643.3 
		112.4,650.3 135.1,627.5 135.1,651.6 105.4,681.3 112.4,688.3 135.1,665.5 135.1,729.6 145,729.6 145,665.5 167.8,688.3 
		174.8,681.3 145,651.6 145,627.5 167.8,650.3 174.8,643.3 145,613.6 145,589.5 167.8,612.3 174.8,605.3 145,575.6 145,551.5 
		167.8,574.3 174.8,567.3 145,537.6 145,513.5 167.8,536.3 174.8,529.3 145,499.5 145,475.5 167.8,498.3 174.8,491.3 145,461.5 
		145,437.5 167.8,460.3 174.8,453.3 145,423.5 145,399.5 	"/>
	<polygon class="st1" points="415.4,578 415.4,513.9 438.2,536.7 445.2,529.7 415.4,499.9 415.4,475.9 438.2,498.7 445.2,491.7 
		415.4,461.9 415.4,437.9 438.2,460.7 445.2,453.7 415.4,423.9 415.4,399.9 438.2,422.7 445.2,415.7 415.4,385.9 415.4,361.9 
		438.2,384.7 445.2,377.7 410.4,343 375.7,377.7 382.7,384.7 405.5,361.9 405.5,385.9 375.7,415.7 382.7,422.7 405.5,399.9 
		405.5,423.9 375.7,453.7 382.7,460.7 405.5,437.9 405.5,461.9 375.7,491.7 382.7,498.7 405.5,475.9 405.5,499.9 375.7,529.7 
		382.7,536.7 405.5,513.9 405.5,578 	"/>
	<polygon class="st1" points="376.7,186.9 383.7,193.9 406.4,171.1 406.4,235.2 416.3,235.2 416.3,171.1 439.1,193.9 446.1,186.9 
		416.3,157.1 416.3,133.1 439.1,155.9 446.1,148.9 411.4,114.2 376.7,148.9 383.7,155.9 406.4,133.1 406.4,157.1 	"/>
	<polygon class="st1" points="511.1,224.3 518.1,231.3 540.9,208.5 540.9,272.5 550.8,272.5 550.8,208.5 573.6,231.3 580.6,224.3 
		550.8,194.5 550.8,170.5 573.6,193.3 580.6,186.3 550.8,156.5 550.8,132.5 573.6,155.3 580.6,148.3 550.8,118.5 550.8,94.5 
		573.6,117.3 580.6,110.3 550.8,80.5 550.8,56.5 573.6,79.3 580.6,72.3 545.9,37.5 511.1,72.3 518.1,79.3 540.9,56.5 540.9,80.5 
		511.1,110.3 518.1,117.3 540.9,94.5 540.9,118.5 511.1,148.3 518.1,155.3 540.9,132.5 540.9,156.5 511.1,186.3 518.1,193.3 
		540.9,170.5 540.9,194.5 	"/>
	<polygon class="st1" points="781.6,528.7 788.6,535.7 811.3,513 811.3,577 821.2,577 821.2,513 844,535.7 851,528.7 821.2,499 
		821.2,475 844,497.7 851,490.7 821.2,461 821.2,437 844,459.7 851,452.7 821.2,423 821.2,398.9 844,421.7 851,414.7 821.2,385 
		821.2,360.9 844,383.7 851,376.7 821.2,347 821.2,322.9 844,345.7 851,338.7 821.2,309 821.2,284.9 844,307.7 851,300.7 821.2,271 
		821.2,246.9 844,269.7 851,262.7 821.2,233 821.2,208.9 844,231.7 851,224.7 821.2,195 821.2,170.9 844,193.7 851,186.7 821.2,157 
		821.2,132.9 844,155.7 851,148.7 821.2,119 821.2,94.9 844,117.7 851,110.7 821.2,80.9 821.2,56.9 844,79.7 851,72.7 821.2,42.9 
		821.2,18.9 844,41.7 851,34.7 816.3,0 781.6,34.7 788.6,41.7 811.3,18.9 811.3,42.9 781.6,72.7 788.6,79.7 811.3,56.9 811.3,80.9 
		781.6,110.7 788.6,117.7 811.3,94.9 811.3,119 781.6,148.7 788.6,155.7 811.3,132.9 811.3,157 781.6,186.7 788.6,193.7 
		811.3,170.9 811.3,195 781.6,224.7 788.6,231.7 811.3,208.9 811.3,233 781.6,262.7 788.6,269.7 811.3,246.9 811.3,271 781.6,300.7 
		788.6,307.7 811.3,284.9 811.3,309 781.6,338.7 788.6,345.7 811.3,322.9 811.3,347 781.6,376.7 788.6,383.7 811.3,360.9 811.3,385 
		781.6,414.7 788.6,421.7 811.3,398.9 811.3,423 781.6,452.7 788.6,459.7 811.3,437 811.3,461 781.6,490.7 788.6,497.7 811.3,475 
		811.3,499 	"/>
	<polygon class="st1" points="510.9,454.3 517.9,461.3 540.7,438.5 540.7,502.6 550.6,502.6 550.6,438.5 573.3,461.3 580.3,454.3 
		550.6,424.5 550.6,400.5 573.3,423.3 580.3,416.3 545.6,381.6 510.9,416.3 517.9,423.3 540.7,400.5 540.7,424.5 	"/>
	<path class="st1" d="M646.6,491.7l7,7l22.8-22.8v59.1c-101.6,2.5-133.2,38.2-134.5,39.7l7.5,6.4c0.3-0.3,31.7-35,131.9-36.4l48,0.1
		h4.4l0.5-4.4c0-0.2,2.8-21.8,18.5-48.6l-8.5-5c-12.7,21.7-17.4,40-19,48l-38.9-0.1v-59l22.8,22.8l7-7l-29.8-29.8v-24l22.8,22.8l7-7
		l-29.8-29.8v-24l22.8,22.8l7-7l-29.8-29.8v-24l22.8,22.8l7-7l-29.8-29.8v-24l22.8,22.8l7-7l-29.8-29.8v-24l22.8,22.8l7-7
		l-29.8-29.8v-24l22.8,22.8l7-7l-29.8-29.8v-24l22.8,22.8l7-7l-29.8-29.8v-24l22.8,22.8l7-7l-29.8-29.8v-24l22.8,22.8l7-7
		l-29.8-29.8v-24l22.8,22.8l7-7L681.3,77l-34.7,34.7l7,7l22.8-22.8v24l-29.8,29.8l7,7l22.8-22.8v24l-29.8,29.8l7,7l22.8-22.8v24
		l-29.8,29.8l7,7l22.8-22.8v24l-29.8,29.8l7,7l22.8-22.8v24l-29.8,29.8l7,7l22.8-22.8v24l-29.8,29.8l7,7l22.8-22.8v24l-29.8,29.8
		l7,7l22.8-22.8v24l-29.8,29.8l7,7l22.8-22.8v24l-29.8,29.8l7,7l22.8-22.8v24L646.6,491.7z"/>
	<path class="st1" d="M887.6,326l5.2,8.4c0.3-0.2,19.8-12,60-22.3h3.4v-0.8c31.2-7.7,74.3-14.3,130.1-14.3v-9.9
		c-55.5,0-98.5,6.3-130.1,13.8v-52.8l22.8,22.8l7-7l-29.8-29.8v-24l22.8,22.8l7-7l-29.8-29.8v-24l22.8,22.8l7-7l-29.8-29.8v-24
		l22.8,22.8l7-7l-29.8-29.8v-24l22.8,22.8l7-7l-34.7-34.7l-34.7,34.7l7,7l22.8-22.8v24l-29.8,29.8l7,7l22.8-22.8v24l-29.8,29.8l7,7
		l22.8-22.8v24l-29.8,29.8l7,7l22.8-22.8v24l-29.8,29.8l7,7l22.8-22.8v55.3C907.7,313.7,888.9,325.2,887.6,326z"/>
	<rect x="444.2" y="288.5" class="st1" width="33.8" height="9.9"/>
	<polygon class="st1" points="979,460.7 986,453.7 951.3,419 916.6,453.7 923.6,460.7 946.3,437.9 946.3,461.9 916.6,491.7 
		923.6,498.7 946.3,475.9 946.3,540 956.2,540 956.2,475.9 979,498.7 986,491.7 956.2,461.9 956.2,437.9 	"/>
	<polygon class="st1" points="1114.7,422.7 1121.7,415.7 1086.9,381 1052.2,415.7 1059.2,422.7 1082,399.9 1082,423.9 1052.2,453.7 
		1059.2,460.7 1082,437.9 1082,461.9 1052.2,491.7 1059.2,498.7 1082,475.9 1082,499.9 1052.2,529.7 1059.2,536.7 1082,513.9 
		1082,537.9 1052.2,567.7 1059.2,574.7 1082,551.9 1082,575.9 1052.2,605.7 1059.2,612.7 1082,589.9 1082,613.9 1052.2,643.7 
		1059.2,650.7 1082,627.9 1082,651.9 1052.2,681.7 1059.2,688.7 1082,665.9 1082,730 1091.9,730 1091.9,665.9 1114.7,688.7 
		1121.7,681.7 1091.9,651.9 1091.9,627.9 1114.7,650.7 1121.7,643.7 1091.9,613.9 1091.9,589.9 1114.7,612.7 1121.7,605.7 
		1091.9,575.9 1091.9,551.9 1114.7,574.7 1121.7,567.7 1091.9,537.9 1091.9,513.9 1114.7,536.7 1121.7,529.7 1091.9,499.9 
		1091.9,475.9 1114.7,498.7 1121.7,491.7 1091.9,461.9 1091.9,437.9 1114.7,460.7 1121.7,453.7 1091.9,423.9 1091.9,399.9 	"/>
	<polygon class="st1" points="1052.2,186.7 1059.2,193.7 1082,170.9 1082,235 1091.9,235 1091.9,170.9 1114.7,193.7 1121.7,186.7 
		1091.9,157 1091.9,132.9 1114.7,155.7 1121.7,148.7 1086.9,114 1052.2,148.7 1059.2,155.7 1082,132.9 1082,157 	"/>
	<polygon class="st1" points="1249.3,79.7 1256.3,72.7 1221.5,38 1186.8,72.7 1193.8,79.7 1216.6,56.9 1216.6,80.9 1186.8,110.7 
		1193.8,117.7 1216.6,94.9 1216.6,119 1186.8,148.7 1193.8,155.7 1216.6,132.9 1216.6,157 1186.8,186.7 1193.8,193.7 1216.6,170.9 
		1216.6,195 1186.8,224.7 1193.8,231.7 1216.6,208.9 1216.6,233 1186.8,262.7 1193.8,269.7 1216.6,246.9 1216.6,271 1186.8,300.7 
		1193.8,307.7 1216.6,284.9 1216.6,309 1186.8,338.7 1193.8,345.7 1216.6,322.9 1216.6,347 1186.8,376.7 1193.8,383.7 1216.6,360.9 
		1216.6,385 1186.8,414.7 1193.8,421.7 1216.6,398.9 1216.6,423 1186.8,452.7 1193.8,459.7 1216.6,437 1216.6,461 1186.8,490.7 
		1193.8,497.7 1216.6,475 1216.6,499 1186.8,528.7 1193.8,535.7 1216.6,513 1216.6,537 1186.8,566.7 1193.8,573.7 1216.6,551 
		1216.6,615 1226.5,615 1226.5,551 1249.3,573.7 1256.3,566.7 1226.5,537 1226.5,513 1249.3,535.7 1256.3,528.7 1226.5,499 
		1226.5,475 1249.3,497.7 1256.3,490.7 1226.5,461 1226.5,437 1249.3,459.7 1256.3,452.7 1226.5,423 1226.5,398.9 1249.3,421.7 
		1256.3,414.7 1226.5,385 1226.5,360.9 1249.3,383.7 1256.3,376.7 1226.5,347 1226.5,322.9 1249.3,345.7 1256.3,338.7 1226.5,309 
		1226.5,284.9 1249.3,307.7 1256.3,300.7 1226.5,271 1226.5,246.9 1249.3,269.7 1256.3,262.7 1226.5,233 1226.5,208.9 1249.3,231.7 
		1256.3,224.7 1226.5,195 1226.5,170.9 1249.3,193.7 1256.3,186.7 1226.5,157 1226.5,132.9 1249.3,155.7 1256.3,148.7 1226.5,119 
		1226.5,94.9 1249.3,117.7 1256.3,110.7 1226.5,80.9 1226.5,56.9 	"/>
	<rect x="1120.1" y="287.1" class="st1" width="33.8" height="9.9"/>
	<path class="st1" d="M2501.5,649.1c-0.4,0.3-24.9,21.3-59.3,37.5v-59.1l22.8,22.8l7-7l-29.8-29.8v-24l22.8,22.8l7-7l-29.8-29.8v-24
		l22.8,22.8l7-7l-29.8-29.8v-24l22.8,22.8l7-7l-29.8-29.8v-24l22.8,22.8l7-7l-29.8-29.8v-24l22.8,22.8l7-7l-29.8-29.8v-24l22.8,22.8
		l7-7l-29.8-29.8v-24l22.8,22.8l7-7l-29.8-29.8v-24l22.8,22.8l7-7l-29.8-29.8v-24l22.8,22.8l7-7l-29.8-29.8v-24l22.8,22.8l7-7
		l-29.8-29.8v-24l22.8,22.8l7-7l-29.8-29.8v-24l22.8,22.8l7-7l-29.8-29.8v-24l22.8,22.8l7-7l-34.7-34.7l-34.7,34.7l7,7l22.8-22.8v24
		l-29.8,29.8l7,7l22.8-22.8v24l-29.8,29.8l7,7l22.8-22.8v24l-29.8,29.8l7,7l22.8-22.8v24l-29.8,29.8l7,7l22.8-22.8v24l-29.8,29.8
		l7,7l22.8-22.8v24l-29.8,29.8l7,7l22.8-22.8v24l-29.8,29.8l7,7l22.8-22.8v24l-29.8,29.8l7,7l22.8-22.8v24l-29.8,29.8l7,7l22.8-22.8
		v24l-29.8,29.8l7,7l22.8-22.8v24l-29.8,29.8l7,7l22.8-22.8v24l-29.8,29.8l7,7l22.8-22.8v24l-29.8,29.8l7,7l22.8-22.8V691
		c-19.2,8-40.9,14-62.8,14v9.9c64.5,0,124.5-46.7,136.4-56.5l68.7,18.3l2.6-9.6l-73.8-19.7L2501.5,649.1z"/>
	<rect x="2234.9" y="704.9" class="st1" width="67.6" height="9.9"/>
	<polygon class="st1" points="1520,117.7 1527,110.7 1492.3,76 1457.6,110.7 1464.6,117.7 1487.4,94.9 1487.4,119 1457.6,148.7 
		1464.6,155.7 1487.4,132.9 1487.4,157 1457.6,186.7 1464.6,193.7 1487.4,170.9 1487.4,195 1457.6,224.7 1464.6,231.7 1487.4,208.9 
		1487.4,233 1457.6,262.7 1464.6,269.7 1487.4,246.9 1487.4,271 1457.6,300.7 1464.6,307.7 1487.4,284.9 1487.4,309 1457.6,338.7 
		1464.6,345.7 1487.4,322.9 1487.4,347 1457.6,376.7 1464.6,383.7 1487.4,360.9 1487.4,385 1457.6,414.7 1464.6,421.7 1487.4,398.9 
		1487.4,423 1457.6,452.7 1464.6,459.7 1487.4,437 1487.4,461 1457.6,490.7 1464.6,497.7 1487.4,475 1487.4,499 1457.6,528.7 
		1464.6,535.7 1487.4,513 1487.4,537 1457.6,566.7 1464.6,573.7 1487.4,551 1487.4,575 1457.6,604.7 1464.6,611.7 1487.4,589 
		1487.4,613 1457.6,642.7 1464.6,649.7 1487.4,627 1487.4,651 1457.6,680.7 1464.6,687.7 1487.4,665 1487.4,689 1457.6,718.7 
		1464.6,725.7 1487.4,703 1487.4,767 1497.3,767 1497.3,703 1520,725.7 1527,718.7 1497.3,689 1497.3,665 1520,687.7 1527,680.7 
		1497.3,651 1497.3,627 1520,649.7 1527,642.7 1497.3,613 1497.3,589 1520,611.7 1527,604.7 1497.3,575 1497.3,551 1520,573.7 
		1527,566.7 1497.3,537 1497.3,513 1520,535.7 1527,528.7 1497.3,499 1497.3,475 1520,497.7 1527,490.7 1497.3,461 1497.3,437 
		1520,459.7 1527,452.7 1497.3,423 1497.3,398.9 1520,421.7 1527,414.7 1497.3,385 1497.3,360.9 1520,383.7 1527,376.7 1497.3,347 
		1497.3,322.9 1520,345.7 1527,338.7 1497.3,309 1497.3,284.9 1520,307.7 1527,300.7 1497.3,271 1497.3,246.9 1520,269.7 
		1527,262.7 1497.3,233 1497.3,208.9 1520,231.7 1527,224.7 1497.3,195 1497.3,170.9 1520,193.7 1527,186.7 1497.3,157 
		1497.3,132.9 1520,155.7 1527,148.7 1497.3,119 1497.3,94.9 	"/>
	<polygon class="st1" points="2330.7,79.7 2337.7,72.7 2303,38 2268.2,72.7 2275.2,79.7 2298,56.9 2298,80.9 2268.2,110.7 
		2275.2,117.7 2298,94.9 2298,159 2307.9,159 2307.9,94.9 2330.7,117.7 2337.7,110.7 2307.9,80.9 2307.9,56.9 	"/>
	<polygon class="st1" points="2133.1,414.6 2140.1,421.6 2162.8,398.8 2162.8,462.9 2172.7,462.9 2172.7,398.8 2195.5,421.6 
		2202.5,414.6 2172.7,384.8 2172.7,360.8 2195.5,383.6 2202.5,376.6 2172.7,346.8 2172.7,322.8 2195.5,345.6 2202.5,338.6 
		2172.7,308.8 2172.7,284.8 2195.5,307.6 2202.5,300.6 2172.7,270.8 2172.7,246.8 2195.5,269.6 2202.5,262.6 2172.7,232.8 
		2172.7,208.8 2195.5,231.6 2202.5,224.6 2172.7,194.8 2172.7,170.8 2195.5,193.6 2202.5,186.6 2172.7,156.8 2172.7,132.8 
		2195.5,155.6 2202.5,148.6 2167.8,113.9 2133.1,148.6 2140.1,155.6 2162.8,132.8 2162.8,156.8 2133.1,186.6 2140.1,193.6 
		2162.8,170.8 2162.8,194.8 2133.1,224.6 2140.1,231.6 2162.8,208.8 2162.8,232.8 2133.1,262.6 2140.1,269.6 2162.8,246.8 
		2162.8,270.8 2133.1,300.6 2140.1,307.6 2162.8,284.8 2162.8,308.8 2133.1,338.6 2140.1,345.6 2162.8,322.8 2162.8,346.8 
		2133.1,376.6 2140.1,383.6 2162.8,360.8 2162.8,384.8 	"/>
	<polygon class="st1" points="2196.5,574.4 2203.5,567.4 2168.8,532.7 2134,567.4 2141,574.4 2163.8,551.6 2163.8,575.6 2134,605.4 
		2141,612.4 2163.8,589.6 2163.8,613.6 2134,643.4 2141,650.4 2163.8,627.6 2163.8,651.6 2134,681.4 2141,688.4 2163.8,665.6 
		2163.8,689.6 2134,719.4 2141,726.4 2163.8,703.6 2163.8,767.7 2173.7,767.7 2173.7,703.6 2196.5,726.4 2203.5,719.4 2173.7,689.6 
		2173.7,665.6 2196.5,688.4 2203.5,681.4 2173.7,651.6 2173.7,627.6 2196.5,650.4 2203.5,643.4 2173.7,613.6 2173.7,589.6 
		2196.5,612.4 2203.5,605.4 2173.7,575.6 2173.7,551.6 	"/>
	<polygon class="st1" points="1728.2,148.1 1735.2,155.1 1758,132.3 1758,196.4 1767.9,196.4 1767.9,132.3 1790.7,155.1 
		1797.7,148.1 1767.9,118.3 1767.9,94.3 1790.7,117.1 1797.7,110.1 1762.9,75.4 1728.2,110.1 1735.2,117.1 1758,94.3 1758,118.3 	
		"/>
	<polygon class="st1" points="1998.2,186.7 2005.2,193.7 2028,170.9 2028,235 2037.9,235 2037.9,170.9 2060.7,193.7 2067.7,186.7 
		2037.9,157 2037.9,132.9 2060.7,155.7 2067.7,148.7 2037.9,119 2037.9,94.9 2060.7,117.7 2067.7,110.7 2037.9,80.9 2037.9,56.9 
		2060.7,79.7 2067.7,72.7 2037.9,42.9 2037.9,18.9 2060.7,41.7 2067.7,34.7 2033,0 1998.2,34.7 2005.2,41.7 2028,18.9 2028,42.9 
		1998.2,72.7 2005.2,79.7 2028,56.9 2028,80.9 1998.2,110.7 2005.2,117.7 2028,94.9 2028,119 1998.2,148.7 2005.2,155.7 2028,132.9 
		2028,157 	"/>
	<polygon class="st1" points="2330.7,498.7 2337.7,491.7 2303,457 2268.2,491.7 2275.2,498.7 2298,475.9 2298,499.9 2268.2,529.7 
		2275.2,536.7 2298,513.9 2298,578 2307.9,578 2307.9,513.9 2330.7,536.7 2337.7,529.7 2307.9,499.9 2307.9,475.9 	"/>
	<polygon class="st1" points="2599.7,155.8 2606.7,148.8 2576.9,119 2576.9,95 2599.7,117.8 2606.7,110.8 2572,76.1 2537.3,110.8 
		2544.3,117.8 2567,95 2567,119 2537.3,148.8 2544.3,155.8 2567,133 2567,157 2537.3,186.8 2544.3,193.8 2567,171 2567,195 
		2537.3,224.8 2544.3,231.8 2567,209 2567,233 2537.3,262.8 2544.3,269.8 2567,247 2567,271 2537.3,300.8 2544.3,307.8 2567,285 
		2567,309 2537.3,338.8 2544.3,345.8 2567,323 2567,347 2537.3,376.8 2544.3,383.8 2567,361 2567,385 2537.3,414.8 2544.3,421.8 
		2567,399 2567,423 2537.3,452.8 2544.3,459.8 2567,437 2567,461 2537.3,490.8 2544.3,497.8 2567,475 2567,539.1 2576.9,539.1 
		2576.9,475 2599.7,497.8 2606.7,490.8 2576.9,461 2576.9,437 2599.7,459.8 2606.7,452.8 2576.9,423 2576.9,399 2599.7,421.8 
		2606.7,414.8 2576.9,385 2576.9,361 2599.7,383.8 2606.7,376.8 2576.9,347 2576.9,323 2599.7,345.8 2606.7,338.8 2576.9,309 
		2576.9,285 2599.7,307.8 2606.7,300.8 2576.9,271 2576.9,247 2599.7,269.8 2606.7,262.8 2576.9,233 2576.9,209 2599.7,231.8 
		2606.7,224.8 2576.9,195 2576.9,171 2599.7,193.8 2606.7,186.8 2576.9,157 2576.9,133 	"/>
	<rect x="2066.4" y="704.9" class="st1" width="33.8" height="9.9"/>
	<polygon class="st1" points="1790.7,497.7 1797.7,490.7 1762.9,456 1728.2,490.7 1735.2,497.7 1758,475 1758,499 1728.2,528.7 
		1735.2,535.7 1758,513 1758,537 1728.2,566.7 1735.2,573.7 1758,551 1758,575 1728.2,604.7 1735.2,611.7 1758,589 1758,613 
		1728.2,642.7 1735.2,649.7 1758,627 1758,691 1767.9,691 1767.9,627 1790.7,649.7 1797.7,642.7 1767.9,613 1767.9,589 
		1790.7,611.7 1797.7,604.7 1767.9,575 1767.9,551 1790.7,573.7 1797.7,566.7 1767.9,537 1767.9,513 1790.7,535.7 1797.7,528.7 
		1767.9,499 1767.9,475 	"/>
	<polygon class="st1" points="2067.7,566.7 2037.9,537 2037.9,513 2060.7,535.7 2067.7,528.7 2033,494 1998.2,528.7 2005.2,535.7 
		2028,513 2028,537 1998.2,566.7 2005.2,573.7 2028,551 2028,615 2037.9,615 2037.9,551 2060.7,573.7 	"/>
	<polygon class="st1" points="1592.6,415.1 1599.6,422.1 1622.3,399.3 1622.3,463.4 1632.2,463.4 1632.2,399.3 1655,422.1 
		1662,415.1 1632.2,385.4 1632.2,361.3 1655,384.1 1662,377.1 1632.2,347.3 1632.2,323.3 1655,346.1 1662,339.1 1632.2,309.3 
		1632.2,285.3 1655,308.1 1662,301.1 1632.2,271.3 1632.2,247.3 1655,270.1 1662,263.1 1632.2,233.3 1632.2,209.3 1655,232.1 
		1662,225.1 1632.2,195.3 1632.2,171.3 1655,194.1 1662,187.1 1632.2,157.3 1632.2,133.3 1655,156.1 1662,149.1 1627.3,114.4 
		1592.6,149.1 1599.6,156.1 1622.3,133.3 1622.3,157.3 1592.6,187.1 1599.6,194.1 1622.3,171.3 1622.3,195.3 1592.6,225.1 
		1599.6,232.1 1622.3,209.3 1622.3,233.3 1592.6,263.1 1599.6,270.1 1622.3,247.3 1622.3,271.3 1592.6,301.1 1599.6,308.1 
		1622.3,285.3 1622.3,309.3 1592.6,339.1 1599.6,346.1 1622.3,323.3 1622.3,347.3 1592.6,377.1 1599.6,384.1 1622.3,361.3 
		1622.3,385.4 	"/>
	<polygon class="st1" points="1656,649.7 1663,642.7 1628.3,608 1593.5,642.7 1600.5,649.7 1623.3,627 1623.3,651 1593.5,680.7 
		1600.5,687.7 1623.3,665 1623.3,729 1633.2,729 1633.2,665 1656,687.7 1663,680.7 1633.2,651 1633.2,627 	"/>
	<path class="st1" d="M1901.8,664.7l22.8,22.8l7-7l-29.8-29.8v-24l22.8,22.8l7-7l-29.8-29.8v-24l22.8,22.8l7-7l-29.8-29.8v-24
		l22.8,22.8l7-7l-29.8-29.8v-24l22.8,22.8l7-7l-29.8-29.8v-24l22.8,22.8l7-7l-29.8-29.8v-24l22.8,22.8l7-7l-29.8-29.8v-24l22.8,22.8
		l7-7l-29.8-29.8v-24l22.8,22.8l7-7l-29.8-29.8v-24l22.8,22.8l7-7l-29.8-29.8v-24l22.8,22.8l7-7l-29.8-29.8v-24l22.8,22.8l7-7
		l-29.8-29.8v-24l22.8,22.8l7-7l-29.8-29.8v-24l22.8,22.8l7-7l-34.7-34.7l-34.7,34.7l7,7l22.8-22.8v24l-29.8,29.8l7,7l22.8-22.8v24
		l-29.8,29.8l7,7l22.8-22.8v24l-29.8,29.8l7,7l22.8-22.8v24l-29.8,29.8l7,7l22.8-22.8v24l-29.8,29.8l7,7l22.8-22.8v24l-29.8,29.8
		l7,7l22.8-22.8v24l-29.8,29.8l7,7l22.8-22.8v24l-29.8,29.8l7,7l22.8-22.8v24l-29.8,29.8l7,7l22.8-22.8v24l-29.8,29.8l7,7l22.8-22.8
		v24l-29.8,29.8l7,7l22.8-22.8v24l-29.8,29.8l7,7l22.8-22.8v24l-29.8,29.8l7,7l22.8-22.8v57.7c-37.5,10.1-55.7,21.3-57.1,22.1
		l5.2,8.4c0.6-0.4,61.7-37.4,193.5-37.4v-9.9c-56.5,0-100,6.5-131.8,14.2V664.7z"/>
	<polygon class="st1" points="1384.7,498.3 1391.7,491.3 1356.9,456.6 1322.2,491.3 1329.2,498.3 1352,475.6 1352,499.6 
		1322.2,529.3 1329.2,536.3 1352,513.6 1352,537.6 1322.2,567.3 1329.2,574.3 1352,551.6 1352,575.6 1322.2,605.4 1329.2,612.3 
		1352,589.6 1352,613.6 1322.2,643.4 1329.2,650.3 1352,627.6 1352,691.6 1361.9,691.6 1361.9,627.6 1384.7,650.3 1391.7,643.4 
		1361.9,613.6 1361.9,589.6 1384.7,612.3 1391.7,605.4 1361.9,575.6 1361.9,551.6 1384.7,574.3 1391.7,567.3 1361.9,537.6 
		1361.9,513.6 1384.7,536.3 1391.7,529.3 1361.9,499.6 1361.9,475.6 	"/>
	<polygon class="st1" points="1322,263.9 1329,270.9 1351.7,248.1 1351.7,312.2 1361.6,312.2 1361.6,248.1 1384.4,270.9 
		1391.4,263.9 1361.6,234.1 1361.6,210.1 1384.4,232.9 1391.4,225.9 1356.7,191.2 1322,225.9 1329,232.9 1351.7,210.1 1351.7,234.1 
			"/>
</g>
</svg>
