<?xml version="1.0" encoding="UTF-8" standalone="no"?><!DOCTYPE svg PUBLIC "-//W3C//DTD SVG 1.1//EN" "http://www.w3.org/Graphics/SVG/1.1/DTD/svg11.dtd"><svg width="100%" height="100%" viewBox="0 0 400 400" version="1.1" xmlns="http://www.w3.org/2000/svg" xmlns:xlink="http://www.w3.org/1999/xlink" xml:space="preserve" style="fill-rule:evenodd;clip-rule:evenodd;stroke-linejoin:round;stroke-miterlimit:1.41421;"><g><path d="M400,187.9l0,-187.9l-188.7,0c20.2,40.4 46.7,77.1 78.3,108.7c32,32 69.3,58.8 110.4,79.2Z" style="fill:#62a87b;fill-rule:nonzero;"/><path d="M200,0l-11.3,0l0,249.6c-10.1,17.5 -22.3,34.1 -36.5,49.8c-14.2,15.7 -30.4,30.4 -48.6,44c-15.3,11.5 -31.7,21.9 -49,31.3c-17.3,9.4 -35.6,17.7 -54.6,25l0,0.2l55,0c11,-5.6 21.8,-11.7 32.1,-18.1c10.3,-6.4 20.3,-13.2 30,-20.4c17,-12.8 32.5,-26.5 46.3,-41c13.8,-14.5 26,-29.9 36.5,-46c10.5,16.1 22.7,31.5 36.5,46c13.8,14.5 29.3,28.2 46.3,41c9.6,7.2 19.6,14 30,20.4c10.4,6.4 21.1,12.5 32.1,18.1l55.2,0l0,-0.1l0,-0.1c-19.1,-7.3 -37.3,-15.6 -54.6,-25c-17.3,-9.4 -33.7,-19.8 -49,-31.3c-18.2,-13.6 -34.4,-28.4 -48.6,-44c-14.2,-15.7 -26.4,-32.3 -36.5,-49.8l0,-124.8l0,-124.8l-11.3,0Z" style="fill:#62a87b;fill-rule:nonzero;"/><path d="M200,0l-11.3,0l0,249.6c-10.1,17.5 -22.3,34.1 -36.5,49.8c-14.2,15.7 -30.4,30.4 -48.6,44c-15.3,11.5 -31.7,21.9 -49,31.3c-17.3,9.4 -35.6,17.7 -54.6,25l0,0.2l55,0c11,-5.6 21.8,-11.7 32.1,-18.1c10.3,-6.4 20.3,-13.2 30,-20.4c17,-12.8 32.5,-26.5 46.3,-41c13.8,-14.5 26,-29.9 36.5,-46c10.5,16.1 22.7,31.5 36.5,46c13.8,14.5 29.3,28.2 46.3,41c9.6,7.2 19.6,14 30,20.4c10.4,6.4 21.1,12.5 32.1,18.1l55.2,0l0,-0.1l0,-0.1c-19.1,-7.3 -37.3,-15.6 -54.6,-25c-17.3,-9.4 -33.7,-19.8 -49,-31.3c-18.2,-13.6 -34.4,-28.4 -48.6,-44c-14.2,-15.7 -26.4,-32.3 -36.5,-49.8l0,-124.8l0,-124.8l-11.3,0Z" style="fill:#62a87b;fill-rule:nonzero;"/><path d="M0,187.9l0,-187.9l188.7,0c-20.2,40.4 -46.7,77.1 -78.3,108.7c-32,32 -69.3,58.8 -110.4,79.2Z" style="fill:#62a87b;fill-rule:nonzero;"/><path d="M211.3,345.6c-3.9,-4.1 -7.7,-8.3 -11.3,-12.5c-3.6,4.2 -7.4,8.4 -11.3,12.5c-13.8,14.5 -29.3,28.2 -46.3,41c-6.2,4.6 -12.5,9.1 -19,13.4l153.2,0c-6.5,-4.3 -12.8,-8.7 -19,-13.4c-17,-12.8 -32.4,-26.5 -46.3,-41Z" style="fill:#62a87b;fill-rule:nonzero;"/></g></svg>