<?xml version="1.0" encoding="UTF-8" standalone="no"?><!DOCTYPE svg PUBLIC "-//W3C//DTD SVG 1.1//EN" "http://www.w3.org/Graphics/SVG/1.1/DTD/svg11.dtd"><svg width="100%" height="100%" viewBox="0 0 600 152" version="1.1" xmlns="http://www.w3.org/2000/svg" xmlns:xlink="http://www.w3.org/1999/xlink" xml:space="preserve" style="fill-rule:evenodd;clip-rule:evenodd;stroke-linejoin:round;stroke-miterlimit:1.41421;"><g id="Layer-1"><path d="M233.876,48.212c-2.587,0 -4.742,-2.042 -4.742,-4.73c0,-2.579 2.155,-4.622 4.742,-4.622l47.199,0c2.586,0 4.742,2.043 4.742,4.622c0,2.688 -2.156,4.73 -4.742,4.73l-18.535,0l0,60.198c0,2.795 -2.156,5.053 -5.065,5.053c-2.802,0 -4.957,-2.258 -4.957,-5.053l0,-60.198l-18.642,0Z" style="fill:#63a97c;fill-rule:nonzero;"/><path d="M316.044,48.212l0,27.627l17.673,0c9.053,0 12.394,-6.881 12.394,-13.76c0,-6.771 -3.341,-13.867 -11.964,-13.867l-18.103,0Zm9.484,36.979l-9.592,0l0,23.219c0,2.795 -2.155,5.053 -5.064,5.053c-2.802,0 -4.958,-2.258 -4.958,-5.053l0,-65.25c0,-2.365 1.939,-4.3 4.204,-4.3l24.354,0c15.626,0 21.984,11.609 21.984,23.219c0,10.965 -5.497,21.607 -19.397,22.789l14.547,20.639c1.616,2.365 1.184,5.376 -1.186,6.988c-2.262,1.72 -5.28,1.075 -7.004,-1.29l-17.888,-26.014Z" style="fill:#63a97c;fill-rule:nonzero;"/><path d="M415.134,85.083l-12.286,-34.721l-12.285,34.721l24.571,0Zm18.858,21.5c1.078,2.687 -0.108,5.481 -2.802,6.558c-2.695,0.966 -5.497,-0.323 -6.465,-2.904l-6.142,-16.124l-31.468,0l-6.251,16.124c-0.969,2.581 -3.773,3.87 -6.465,2.904c-2.694,-1.077 -3.88,-3.871 -2.801,-6.558l24.139,-63.423c1.291,-3.011 3.338,-4.838 6.897,-4.838l0.536,0c3.341,0 5.497,1.827 6.682,4.838l24.14,63.423Z" style="fill:#63a97c;fill-rule:nonzero;"/><path d="M464.648,108.41c0,2.795 -2.154,5.053 -5.064,5.053c-2.802,0 -4.959,-2.258 -4.959,-5.053l0,-65.035c0,-2.795 2.157,-5.053 4.959,-5.053c2.91,0 5.064,2.258 5.064,5.053l0,65.035Z" style="fill:#63a97c;fill-rule:nonzero;"/><path d="M497.789,112.925c-2.694,0 -5.066,-2.365 -5.066,-5.16l0,-64.39c0,-2.795 2.154,-5.053 4.956,-5.053c2.911,0 5.066,2.258 5.066,5.053l0,60.198l26.08,0c2.584,0 4.741,2.043 4.741,4.622c0,2.687 -2.157,4.73 -4.741,4.73l-31.036,0Z" style="fill:#63a97c;fill-rule:nonzero;"/><path d="M575,104.648c9.806,0 14.98,-5.912 14.98,-11.932c0.107,-7.31 -6.251,-10.535 -12.61,-12.147l-9.592,-2.365c-15.731,-3.87 -18.103,-13.007 -18.103,-19.35c0,-12.469 11.424,-20.854 24.032,-20.854c11.853,0 20.368,6.128 23.06,15.695c0.217,0.752 0.325,1.613 0.325,2.472c0,2.365 -1.187,4.514 -4.958,4.514c-1.832,0 -3.879,-0.751 -4.634,-3.439c-1.833,-6.88 -7.111,-9.675 -13.901,-9.675c-7.221,0 -13.901,4.408 -13.901,11.18c0,3.225 1.184,8.062 10.56,10.32l9.698,2.364c12.718,3.118 20.044,10.212 20.044,20.317c0,11.932 -9.051,22.252 -25,22.252c-13.039,0 -21.769,-6.987 -24.786,-16.447c-0.214,-0.752 -0.324,-1.505 -0.324,-2.15c0,-3.01 2.372,-4.622 4.959,-4.622c2.154,0 3.878,1.505 4.524,3.547c1.509,5.482 7.544,10.32 15.627,10.32" style="fill:#63a97c;fill-rule:nonzero;"/><path d="M152.378,71.383l0,-71.383l-71.887,0c7.703,15.336 17.8,29.289 29.834,41.293c12.203,12.191 26.41,22.372 42.053,30.09" style="fill:#63a97c;fill-rule:nonzero;"/><path d="M76.189,0l-4.294,0l0,94.844c-3.845,6.642 -8.489,12.962 -13.903,18.919c-5.415,5.956 -11.597,11.549 -18.519,16.736c-5.832,4.36 -12.062,8.33 -18.654,11.899c-6.591,3.57 -13.544,6.74 -20.819,9.5l0,0.102l20.984,0c4.209,-2.145 8.289,-4.44 12.232,-6.882c3.944,-2.442 7.75,-5.031 11.41,-7.768c6.491,-4.864 12.385,-10.07 17.654,-15.591c5.27,-5.521 9.914,-11.355 13.909,-17.476c3.996,6.121 8.64,11.955 13.909,17.476c5.27,5.521 11.163,10.727 17.655,15.591c3.66,2.737 7.466,5.326 11.41,7.768c3.943,2.442 8.024,4.737 12.231,6.882l20.985,0l0,-0.051l0,-0.051c-7.276,-2.76 -14.228,-5.93 -20.819,-9.5c-6.592,-3.569 -12.822,-7.539 -18.654,-11.899c-6.921,-5.187 -13.104,-10.78 -18.519,-16.736c-5.413,-5.957 -10.059,-12.277 -13.904,-18.919l0,-47.422l0,-47.422l-4.294,0Z" style="fill:#63a97c;fill-rule:nonzero;"/><path d="M76.189,0l-4.294,0l0,94.844c-3.845,6.642 -8.489,12.962 -13.903,18.919c-5.415,5.956 -11.597,11.549 -18.519,16.736c-5.832,4.36 -12.062,8.33 -18.654,11.899c-6.591,3.57 -13.544,6.74 -20.819,9.5l0,0.102l20.984,0c4.209,-2.145 8.289,-4.44 12.232,-6.882c3.944,-2.442 7.75,-5.031 11.41,-7.768c6.491,-4.864 12.385,-10.07 17.654,-15.591c5.27,-5.521 9.914,-11.355 13.909,-17.476c3.996,6.121 8.64,11.955 13.909,17.476c5.27,5.521 11.163,10.727 17.655,15.591c3.66,2.737 7.466,5.326 11.41,7.768c3.943,2.442 8.024,4.737 12.231,6.882l20.985,0l0,-0.051l0,-0.051c-7.276,-2.76 -14.228,-5.93 -20.819,-9.5c-6.592,-3.569 -12.822,-7.539 -18.654,-11.899c-6.921,-5.187 -13.104,-10.78 -18.519,-16.736c-5.413,-5.957 -10.059,-12.277 -13.904,-18.919l0,-47.422l0,-47.422l-4.294,0Z" style="fill:#63a97c;fill-rule:nonzero;"/><path d="M0.001,71.383l0,-71.383l71.887,0c-7.703,15.336 -17.8,29.289 -29.834,41.293c-12.203,12.191 -26.41,22.372 -42.053,30.09" style="fill:#63a97c;fill-rule:nonzero;"/><path d="M80.503,131.331c-1.49,-1.561 -2.924,-3.15 -4.311,-4.763c-1.391,1.612 -2.825,3.202 -4.316,4.763c-5.269,5.521 -11.163,10.727 -17.655,15.591c-2.348,1.755 -4.761,3.443 -7.228,5.078l58.392,0c-2.465,-1.635 -4.88,-3.323 -7.228,-5.078c-6.492,-4.864 -12.385,-10.07 -17.654,-15.591" style="fill:#63a97c;fill-rule:nonzero;"/></g></svg>