<?xml version="1.0" encoding="utf-8"?>
<!-- Generator: Adobe Illustrator 21.0.0, SVG Export Plug-In . SVG Version: 6.00 Build 0)  -->
<svg version="1.1" xmlns="http://www.w3.org/2000/svg" xmlns:xlink="http://www.w3.org/1999/xlink" x="0px" y="0px"
	 viewBox="0 0 528 264" style="enable-background:new 0 0 528 264;" xml:space="preserve">
<style type="text/css">
	.st0{display:none;}
	.st1{display:inline;fill:#D4E59D;}
	.st2{display:inline;fill:#62A87B;}
	.st3{display:inline;fill:#3E3B32;}
	.st4{display:inline;fill:#3B5666;}
	.st5{fill:#D4E59D;}
	.st6{fill:#CCCCCC;}
	.st7{fill:#3B5666;}
	.st8{fill:#62A87B;}
</style>
<g id="Colors" class="st0">
	<circle class="st1" cx="123.3" cy="132" r="32.9"/>
	<circle class="st2" cx="217.1" cy="132" r="32.9"/>
	<circle class="st3" cx="404.7" cy="132" r="32.9"/>
	<circle class="st4" cx="310.9" cy="132" r="32.9"/>
</g>
<g id="Illo_3">
	<rect x="402.3" y="209.3" class="st5" width="125.7" height="10"/>
	<path class="st5" d="M177.7,51.4c-14.2,0-25.7-11.5-25.7-25.7S163.5,0,177.7,0s25.7,11.5,25.7,25.7S191.9,51.4,177.7,51.4z
		 M177.7,10c-8.7,0-15.7,7-15.7,15.7s7,15.7,15.7,15.7s15.7-7,15.7-15.7S186.4,10,177.7,10z"/>
	<path class="st6" d="M528,116.9l-77-77L420.9,70l3.5,3.5L451,47l11.2,11.2c-3.5-1.2-7.4-2.1-11.5-2.2l-0.1,5
		c14.6,0.3,26.4,12,26.5,12.1l0,0l47.3,47.3L528,116.9z"/>
	<path class="st6" d="M91.2,39.9L61.5,69.7c-0.2,0.2-0.3,0.3-0.3,0.3l0,0l-45.8,45.8L0,115.8l0,5l55.7,0.2l0-5l-33.4-0.1l42.5-42.5
		c1.7-1.6,12.8-11.5,26.3-11.8l-0.1-5c-4.1,0.1-8,0.9-11.5,2.2L91.2,47l39.9,39.9l3.5-3.5L91.2,39.9z"/>
	<path class="st5" d="M121.4,253.9L121.4,253.9C85.8,253.6,57,224.5,57,188.8c0-16.3,6-31.2,16-42.7c-2.6,6.2-4.1,13.1-4.1,20.3
		c0,29.1,23.7,52.8,52.8,52.8l5-0.1h117.8v-10H121.7l-1.8,0c-22.8-1-41-19.8-41-42.8c0-22.8,17.9-41.5,40.4-42.7
		c1,0,1.9-0.1,2.9-0.1v0l33.7-0.1l0-10l-34.2,0.1c-1,0-2,0-3,0.1C78.9,115.5,47,148.5,47,188.8c0,41.5,33.7,75.2,75.2,75.2l0-0.1
		H528v-10H121.4z"/>
	<path class="st6" d="M437.7,113.5L324.2,0L210.6,113.5h-32.9v10h66.8v-10h-19.7l99.4-99.4l22.5,22.5c-7-2.5-14.8-4.2-23.1-4.4
		l-0.2,10c29.1,0.7,52.8,23.9,53,24.2l0,0l47.1,47.1h-21v10h93.9v-10H437.7z"/>
	<g>
		<path class="st7" d="M284.5,206.9l26.2,33l7.8-6.2l-28.7-36C288.5,200.8,286.8,204,284.5,206.9z"/>
		<path class="st7" d="M289.9,151.7c-2.5,0.9-5.2,1.4-8,1.4c-1.7,0-3.4-0.2-5-0.5v23.7c0,0.1-0.1,13.3-6.3,20.8
			c-0.3,0.4-8.1,10.1-8.1,27.3v17.1h10v-17.1c0-13.4,5.6-20.7,5.8-21c8.5-10.3,8.6-26.5,8.6-27.2v-12.3l23.9,30.1l7.8-6.2
			L289.9,151.7z"/>
		<path class="st7" d="M281.8,145.6c-8.8,0-16-7.2-16-16s7.2-16,16-16s16,7.2,16,16S290.7,145.6,281.8,145.6z M281.8,123.5
			c-3.3,0-6,2.7-6,6c0,3.3,2.7,6,6,6s6-2.7,6-6C287.9,126.2,285.1,123.5,281.8,123.5z"/>
		<g>
			<polygon class="st7" points="269.3,156.6 244.6,187.7 252.4,194 269.3,172.6 			"/>
			<polygon class="st7" points="278,145.9 277.9,145.8 277.8,145.9 			"/>
		</g>
	</g>
	<g>
		<path class="st8" d="M368.4,206.9l26.2,33l7.8-6.2l-28.7-36C372.5,200.8,370.7,204,368.4,206.9z"/>
		<path class="st8" d="M373.8,151.7c-2.5,0.9-5.2,1.4-8,1.4c-1.7,0-3.4-0.2-5-0.5v23.7c0,3.6-1.1,14.5-6.3,20.8
			c-0.3,0.4-8.1,10.1-8.1,27.3v17.1h10v-17.1c0-13.4,5.6-20.7,5.8-21c8.5-10.3,8.6-26.5,8.6-27.2v-12.3l23.9,30.1l7.8-6.2
			L373.8,151.7z"/>
		<path class="st8" d="M365.8,145.6c-8.8,0-16-7.2-16-16s7.2-16,16-16s16,7.2,16,16S374.6,145.6,365.8,145.6z M365.8,123.5
			c-3.3,0-6,2.7-6,6c0,3.3,2.7,6,6,6s6-2.7,6-6C371.8,126.2,369.1,123.5,365.8,123.5z"/>
		<g>
			<polygon class="st8" points="361.9,145.9 361.8,145.8 361.7,145.9 			"/>
			<polygon class="st8" points="353.3,156.6 328.5,187.7 336.3,194 353.3,172.6 			"/>
		</g>
	</g>
</g>
</svg>
