<?xml version="1.0" encoding="utf-8"?>
<!-- Generator: Adobe Illustrator 21.0.0, SVG Export Plug-In . SVG Version: 6.00 Build 0)  -->
<svg version="1.1" xmlns="http://www.w3.org/2000/svg" xmlns:xlink="http://www.w3.org/1999/xlink" x="0px" y="0px"
	 viewBox="0 0 528 264" style="enable-background:new 0 0 528 264;" xml:space="preserve">
<style type="text/css">
	.st0{display:none;}
	.st1{display:inline;fill:#D4E59D;}
	.st2{display:inline;fill:#62A87B;}
	.st3{display:inline;fill:#3E3B32;}
	.st4{display:inline;fill:#3B5666;}
	.st5{fill:#CCCCCC;}
	.st6{fill:#D4E59D;}
	.st7{fill:#62A87B;}
	.st8{fill:#3B5666;}
</style>
<g id="Colors" class="st0">
	<circle class="st1" cx="123.3" cy="132" r="32.9"/>
	<circle class="st2" cx="217.1" cy="132" r="32.9"/>
	<circle class="st3" cx="404.7" cy="132" r="32.9"/>
	<circle class="st4" cx="310.9" cy="132" r="32.9"/>
</g>
<g id="Illo_1">
	<g>
		<path class="st5" d="M0,0.9h36v4.4H4.8v21h30.5v4.4H4.8v22.4H36v4.4H0V0.9z"/>
		<path class="st5" d="M52.2,46c3.7,4.3,9.6,8.2,17.7,8.2c11.6,0,15-6.5,15-11.3c0-8-7.6-10.2-15.6-12.3c-8.9-2.5-18.4-5-18.4-15.5
			C50.8,5.9,59.2,0,69.4,0c8.5,0,14.8,3,19.2,8l-3.2,3.6c-4.1-4.9-9.9-7.1-16.2-7.1c-7.6,0-13.3,4.3-13.3,10.5
			c0,6.7,7.1,8.7,14.8,10.7c9.2,2.6,19.2,5.5,19.2,17c0,7.3-4.8,16.1-20.1,16.1c-9.4,0-16.4-3.7-20.7-9L52.2,46z"/>
		<path class="st5" d="M125.4,0.1c7.4,0,11.9,3,15.3,7.2l-2.9,3.6c-2.7-3.7-6.2-6.4-12.4-6.4c-12.2,0-16.7,12.8-16.7,24.9
			c0,0.9,0,1.8,0.1,2.6c2.4-3.9,8.9-9.4,16.6-9.4c10.2,0,18.3,5.9,18.3,17.9c0,9.3-7,18.1-19,18.1c-15.3,0-20.8-14.1-20.8-29.3
			C103.7,14.8,109.7,0.1,125.4,0.1z M124.4,26.9c-6.2,0-12.2,4-15.5,9.7c0.7,7.7,4.8,17.6,15.4,17.6c9.7,0,14.3-7.5,14.3-13.6
			C138.6,31.4,132.6,26.9,124.4,26.9z"/>
	</g>
	<g>
		<path class="st6" d="M220.6,151.7H85.3c-4,0-7.2-3.2-7.2-7.2v-1.4c0-4,3.2-7.2,7.2-7.2h135.3c4,0,7.2,3.2,7.2,7.2v1.4
			C227.8,148.5,224.6,151.7,220.6,151.7z"/>
		<path class="st7" d="M330,151.7h-75.1c-4,0-7.2-3.2-7.2-7.2v-0.6c0-4,3.2-7.2,7.2-7.2H330c4,0,7.2,3.2,7.2,7.2v0.6
			C337.2,148.5,334,151.7,330,151.7z"/>
	</g>
	<g>
		<path class="st7" d="M85.3,189.3h159.2c4,0,7.2-3.2,7.2-7.2v-1.7c0-4-3.2-7.2-7.2-7.2H85.3c-4,0-7.2,3.2-7.2,7.2v1.7
			C78.1,186.1,81.4,189.3,85.3,189.3z"/>
		<path class="st6" d="M280.4,189.3h-1.7c-4,0-7.2-3.2-7.2-7.2v-1.7c0-4,3.2-7.2,7.2-7.2h1.7c4,0,7.2,3.2,7.2,7.2v1.7
			C287.6,186.1,284.3,189.3,280.4,189.3z"/>
	</g>
	<g>
		<path class="st6" d="M160.5,226.2H85.3c-4,0-7.2-3.2-7.2-7.2v-0.6c0-4,3.2-7.2,7.2-7.2h75.1c4,0,7.2,3.2,7.2,7.2v0.6
			C167.7,223,164.4,226.2,160.5,226.2z"/>
		<path class="st7" d="M388.2,226.7H195.9c-4,0-7.2-3.2-7.2-7.2v-1.7c0-4,3.2-7.2,7.2-7.2h192.2c4,0,7.2,3.2,7.2,7.2v1.7
			C395.4,223.5,392.1,226.7,388.2,226.7z"/>
	</g>
	<g>
		<path class="st8" d="M145.8,114.3H7.2c-4,0-7.2-3.2-7.2-7.2l0-1.4c0-4,3.2-7.2,7.2-7.2h138.6c4,0,7.2,3.2,7.2,7.2v1.4
			C153,111,149.7,114.3,145.8,114.3z"/>
		<path class="st8" d="M289.2,114.3H182.3c-4,0-7.2-3.2-7.2-7.2v-1.4c0-4,3.2-7.2,7.2-7.2h106.9c4,0,7.2,3.2,7.2,7.2v1.4
			C296.4,111,293.2,114.3,289.2,114.3z"/>
	</g>
	<g>
		<path class="st8" d="M145.8,264H7.2c-4,0-7.2-3.2-7.2-7.2l0-1.4c0-4,3.2-7.2,7.2-7.2h138.6c4,0,7.2,3.2,7.2,7.2v1.4
			C153,260.8,149.7,264,145.8,264z"/>
		<path class="st8" d="M289.2,264H182.3c-4,0-7.2-3.2-7.2-7.2v-1.4c0-4,3.2-7.2,7.2-7.2h106.9c4,0,7.2,3.2,7.2,7.2v1.4
			C296.4,260.8,293.2,264,289.2,264z"/>
	</g>
	<path class="st5" d="M422.7,58.1v-5h-23.4c-1.1-11.3-9.9-20.5-21.2-22.2C375.5,13.1,360.4,0,342.3,0c-18.9,0-34.4,14.5-36.1,32.9
		c-3.3-1.5-6.9-2.3-10.5-2.3c-13,0-23.7,9.9-24.9,22.5h-23.4v5h28.3v-2.5c0-11,9-20,20-20c4.1,0,8.1,1.3,11.5,3.6l4,2.8l-0.1-5.3
		c0-0.1,0-0.3,0-0.4C311,19,325,5,342.3,5c16.2,0,29.6,12.2,31.2,28.3l0.2,2.1l2.1,0.1c9.7,0.6,17.4,8.1,18.5,17.5h-23.1v5h23.3h2.5
		H422.7z"/>
	<polygon class="st5" points="496.7,254 496.7,191.5 520.9,215.7 527.9,208.6 496.7,177.4 496.7,151.8 520.9,175.9 527.9,168.8 
		496.7,137.6 496.7,112 520.9,136.1 527.9,129.1 496.7,97.8 496.7,72.2 520.9,96.3 527.9,89.3 496.7,58.1 496.7,32.4 520.9,56.6 
		527.9,49.5 491.7,13.3 455.5,49.5 462.6,56.6 486.7,32.4 486.7,58.1 455.5,89.3 462.6,96.3 486.7,72.2 486.7,97.8 455.5,129.1 
		462.6,136.1 486.7,112 486.7,137.6 455.5,168.8 462.6,175.9 486.7,151.8 486.7,177.4 455.5,208.6 462.6,215.7 486.7,191.5 
		486.7,254 395.4,254 395.4,264 528,264 528,254 	"/>
</g>
</svg>
