<?xml version="1.0" encoding="utf-8"?>
<!-- Generator: Adobe Illustrator 21.0.0, SVG Export Plug-In . SVG Version: 6.00 Build 0)  -->
<svg version="1.1" xmlns="http://www.w3.org/2000/svg" xmlns:xlink="http://www.w3.org/1999/xlink" x="0px" y="0px"
	 viewBox="0 0 528 264" style="enable-background:new 0 0 528 264;" xml:space="preserve">
<style type="text/css">
	.st0{display:none;}
	.st1{display:inline;fill:#D4E59D;}
	.st2{display:inline;fill:#62A87B;}
	.st3{display:inline;fill:#3E3B32;}
	.st4{display:inline;fill:#3B5666;}
	.st5{display:inline;}
	.st6{fill:#CCCCCC;}
	.st7{display:inline;fill:none;stroke:#CCCCCC;stroke-width:10;stroke-miterlimit:10;}
	.st8{display:inline;fill:none;stroke:#CCCCCC;stroke-width:5;stroke-miterlimit:10;}
	.st9{fill:#D4E59D;}
	.st10{fill:#62A87B;}
	.st11{fill:#3B5666;}
	.st12{display:inline;fill:none;stroke:#62A87B;stroke-width:10;stroke-linejoin:bevel;stroke-miterlimit:10;}
	.st13{display:inline;fill:none;stroke:#FFFFFF;stroke-width:25;stroke-linejoin:bevel;stroke-miterlimit:10;}
	.st14{display:inline;fill:none;stroke:#FFFFFF;stroke-width:25;stroke-miterlimit:10;}
	.st15{display:inline;fill:none;stroke:#62A87B;stroke-width:10;stroke-miterlimit:10;}
	.st16{display:inline;fill:none;stroke:#3B5666;stroke-width:10;stroke-linejoin:bevel;stroke-miterlimit:10;}
	.st17{display:inline;fill:none;stroke:#3B5666;stroke-width:10;stroke-miterlimit:10;}
	.st18{display:inline;fill:none;stroke:#D4E59D;stroke-width:10;stroke-miterlimit:10;}
	.st19{display:inline;fill:none;stroke:#CCCCCC;stroke-width:10;stroke-linejoin:bevel;stroke-miterlimit:10;}
	.st20{display:inline;fill:none;stroke:#CCCCCC;stroke-width:5;stroke-linejoin:bevel;stroke-miterlimit:10;}
</style>
<g id="Colors" class="st0">
	<circle class="st1" cx="123.3" cy="132" r="32.9"/>
	<circle class="st2" cx="217.1" cy="132" r="32.9"/>
	<circle class="st3" cx="404.7" cy="132" r="32.9"/>
	<circle class="st4" cx="310.9" cy="132" r="32.9"/>
</g>
<g id="Illo_1" class="st0">
	<g class="st5">
		<path class="st6" d="M0,0.9h36v4.4H4.8v21h30.5v4.4H4.8v22.4H36v4.4H0V0.9z"/>
		<path class="st6" d="M52.2,46c3.7,4.3,9.6,8.2,17.7,8.2c11.6,0,15-6.5,15-11.3c0-8-7.6-10.2-15.6-12.3c-8.9-2.5-18.4-5-18.4-15.5
			C50.8,5.9,59.2,0,69.4,0c8.5,0,14.8,3,19.2,8l-3.2,3.6c-4.1-4.9-9.9-7.1-16.2-7.1c-7.6,0-13.3,4.3-13.3,10.5
			c0,6.7,7.1,8.7,14.8,10.7c9.2,2.6,19.2,5.5,19.2,17c0,7.3-4.8,16.1-20.1,16.1c-9.4,0-16.4-3.7-20.7-9L52.2,46z"/>
		<path class="st6" d="M125.4,0.1c7.4,0,11.9,3,15.3,7.2l-2.9,3.6c-2.7-3.7-6.2-6.4-12.4-6.4c-12.2,0-16.7,12.8-16.7,24.9
			c0,0.9,0,1.8,0.1,2.6c2.4-3.9,8.9-9.4,16.6-9.4c10.2,0,18.3,5.9,18.3,17.9c0,9.3-7,18.1-19,18.1c-15.3,0-20.8-14.1-20.8-29.3
			C103.7,14.8,109.7,0.1,125.4,0.1z M124.4,26.9c-6.2,0-12.2,4-15.5,9.7c0.7,7.7,4.8,17.6,15.4,17.6c9.7,0,14.3-7.5,14.3-13.6
			C138.6,31.4,132.6,26.9,124.4,26.9z"/>
	</g>
	<line class="st7" x1="491.7" y1="139.7" x2="491.7" y2="259"/>
	<polyline class="st7" points="524.4,172.4 491.7,139.7 459,172.4 	"/>
	<polyline class="st7" points="524.4,212.1 491.7,179.5 459,212.1 	"/>
	<line class="st7" x1="491.7" y1="20.4" x2="491.7" y2="139.7"/>
	<polyline class="st7" points="524.4,53 491.7,20.4 459,53 	"/>
	<polyline class="st7" points="524.4,92.8 491.7,60.1 459,92.8 	"/>
	<polyline class="st7" points="524.4,132.6 491.7,99.9 459,132.6 	"/>
	<path class="st8" d="M247.3,55.6H273c0-12.4,10.1-22.5,22.5-22.5c4.8,0,9.2,1.5,12.9,4.1c0-0.3,0-0.5,0-0.8
		c0-18.7,15.1-33.8,33.8-33.8c17.6,0,32,13.4,33.6,30.6c11.8,0.8,21.1,10.5,21.1,22.5h25.8"/>
	<g class="st5">
		<path class="st9" d="M220.6,151.7H85.3c-4,0-7.2-3.2-7.2-7.2v-1.4c0-4,3.2-7.2,7.2-7.2h135.3c4,0,7.2,3.2,7.2,7.2v1.4
			C227.8,148.5,224.6,151.7,220.6,151.7z"/>
		<path class="st10" d="M330,151.7h-75.1c-4,0-7.2-3.2-7.2-7.2v-0.6c0-4,3.2-7.2,7.2-7.2H330c4,0,7.2,3.2,7.2,7.2v0.6
			C337.2,148.5,334,151.7,330,151.7z"/>
	</g>
	<g class="st5">
		<path class="st10" d="M85.3,189.3h159.2c4,0,7.2-3.2,7.2-7.2v-1.7c0-4-3.2-7.2-7.2-7.2H85.3c-4,0-7.2,3.2-7.2,7.2v1.7
			C78.1,186.1,81.4,189.3,85.3,189.3z"/>
		<path class="st9" d="M280.4,189.3h-1.7c-4,0-7.2-3.2-7.2-7.2v-1.7c0-4,3.2-7.2,7.2-7.2h1.7c4,0,7.2,3.2,7.2,7.2v1.7
			C287.6,186.1,284.3,189.3,280.4,189.3z"/>
	</g>
	<line class="st7" x1="528" y1="259" x2="395.4" y2="259"/>
	<g class="st5">
		<path class="st9" d="M160.5,226.2H85.3c-4,0-7.2-3.2-7.2-7.2v-0.6c0-4,3.2-7.2,7.2-7.2h75.1c4,0,7.2,3.2,7.2,7.2v0.6
			C167.7,223,164.4,226.2,160.5,226.2z"/>
		<path class="st10" d="M388.2,226.7H195.9c-4,0-7.2-3.2-7.2-7.2v-1.7c0-4,3.2-7.2,7.2-7.2h192.2c4,0,7.2,3.2,7.2,7.2v1.7
			C395.4,223.5,392.1,226.7,388.2,226.7z"/>
	</g>
	<g class="st5">
		<path class="st11" d="M145.8,114.3H7.2c-4,0-7.2-3.2-7.2-7.2l0-1.4c0-4,3.2-7.2,7.2-7.2h138.6c4,0,7.2,3.2,7.2,7.2v1.4
			C153,111,149.7,114.3,145.8,114.3z"/>
		<path class="st11" d="M289.2,114.3H182.3c-4,0-7.2-3.2-7.2-7.2v-1.4c0-4,3.2-7.2,7.2-7.2h106.9c4,0,7.2,3.2,7.2,7.2v1.4
			C296.4,111,293.2,114.3,289.2,114.3z"/>
	</g>
	<g class="st5">
		<path class="st11" d="M145.8,264H7.2c-4,0-7.2-3.2-7.2-7.2l0-1.4c0-4,3.2-7.2,7.2-7.2h138.6c4,0,7.2,3.2,7.2,7.2v1.4
			C153,260.8,149.7,264,145.8,264z"/>
		<path class="st11" d="M289.2,264H182.3c-4,0-7.2-3.2-7.2-7.2v-1.4c0-4,3.2-7.2,7.2-7.2h106.9c4,0,7.2,3.2,7.2,7.2v1.4
			C296.4,260.8,293.2,264,289.2,264z"/>
	</g>
	<line class="st8" x1="371.2" y1="55.6" x2="397" y2="55.6"/>
</g>
<g id="Illo_2">
	<path class="st6" d="M469.8,126.2c5.2-1.1,10.6-2.2,16.1-3.2c5.8-1.1,11.7-2,17.7-2.9c6.3-0.9,12.9-1.7,19.4-2.4l5-0.5l-1.1-9.9
		l-5,0.5c-6.7,0.7-13.3,1.6-19.8,2.5c-6.1,0.9-12.2,1.9-18.1,2.9c-5.5,1-11.1,2.1-16.4,3.3c0,0,0,0,0,0V57.5l23,23l7.1-7.1
		l-30.1-30.1V19.1l23,23l7.1-7.1L462.7,0l-35.1,35.1l7.1,7.1l23-23v24.3l-30.1,30.1l7.1,7.1l23-23v61.2c-1.6,0.4-3.2,0.8-4.7,1.2
		c-4.5,1.2-8.9,2.4-13.2,3.6c-3.9,1.2-7.8,2.4-11.6,3.7c-3.4,1.1-6.7,2.3-10,3.5c-2.9,1.1-5.7,2.2-8.4,3.3c-2.4,1-4.7,2-6.9,3
		c-1.8,0.8-3.6,1.7-5.3,2.5c-1.4,0.7-2.7,1.3-3.8,2l-4.4,2.4l4.8,8.8l4.4-2.4c1.1-0.6,2.3-1.2,3.5-1.8c1.6-0.8,3.3-1.6,5-2.4
		c2.1-0.9,4.3-1.9,6.5-2.9c2.6-1.1,5.3-2.2,8.1-3.2c3.1-1.2,6.4-2.3,9.6-3.4c3.6-1.2,7.4-2.4,11.2-3.5c4.2-1.2,8.5-2.4,12.8-3.5
		C460.1,128.4,465,127.3,469.8,126.2z"/>
	<path class="st6" d="M364.5,15.1C362.8,6.4,355.2,0,346.1,0c-9.2,0-16.9,6.6-18.5,15.4c-1.3-0.4-2.7-0.6-4-0.6
		c-6.5,0-12,4.7-13.1,10.9h-10.2v5h14.9v-2.5c0-4.6,3.8-8.4,8.4-8.4c1.7,0,3.4,0.5,4.8,1.5l4.1,2.9l-0.2-5.3
		c0-7.6,6.2-13.8,13.8-13.8c7.2,0,13.1,5.4,13.8,12.5l0.2,2.1l2.1,0.1c4.4,0.3,7.8,4,7.8,8.3v2.5h14.9v-5h-10.2
		C373.7,20.4,369.7,16.2,364.5,15.1z"/>
	<polygon class="st6" points="63.1,51.9 70.2,44.8 35.1,9.7 0,44.8 7.1,51.9 30.1,28.9 30.1,53.1 0,83.2 7.1,90.3 30.1,67.3 
		30.1,91.5 0,121.6 7.1,128.7 30.1,105.7 30.1,129.9 0,160 7.1,167.1 30.1,144.1 30.1,168.3 0,198.4 7.1,205.5 30.1,182.5 
		30.1,247.2 40.1,247.2 40.1,182.5 63.1,205.5 70.2,198.4 40.1,168.3 40.1,144.1 63.1,167.1 70.2,160 40.1,129.9 40.1,105.7 
		63.1,128.7 70.2,121.6 40.1,91.5 40.1,67.3 63.1,90.3 70.2,83.2 40.1,53.1 40.1,28.9 	"/>
	<path class="st6" d="M489.6,169.7c-21.2,0-38.4,17.2-38.4,38.4c0,19.5,14.6,35.6,33.4,38V264h10v-17.9c18.8-2.5,33.4-18.6,33.4-38
		C528,187,510.8,169.7,489.6,169.7z M494.6,236v-29.4h-10V236c-13.3-2.4-23.4-14-23.4-27.9c0-15.6,12.7-28.4,28.4-28.4
		s28.4,12.7,28.4,28.4C518,222,507.9,233.7,494.6,236z"/>
	<g>
		<polygon class="st11" points="184.8,59.2 238.4,32.4 184.8,5.6 131.2,32.4 		"/>
		<polygon class="st11" points="179.8,128.9 179.8,67.9 125,40.5 125,156.3 		"/>
		<polygon class="st11" points="189.8,67.9 189.8,123.9 244.6,96.5 244.6,40.5 		"/>
		<polygon class="st9" points="184.8,191.2 238.4,164.4 184.8,137.6 131.2,164.4 		"/>
		<polygon class="st10" points="196,132 249.6,158.8 303.2,132 249.6,105.2 		"/>
		<polygon class="st9" points="179.8,255.8 179.8,199.9 125,172.5 125,227.4 		"/>
		<polygon class="st9" points="244.6,227.9 244.6,172.5 189.8,199.9 189.8,255.8 		"/>
		<polygon class="st10" points="254.6,222.8 309.4,194.9 309.4,140.1 260.8,164.4 260.8,164.4 254.6,167.5 		"/>
	</g>
</g>
<g id="Illo_3" class="st0">
	<line class="st12" x1="365.8" y1="149.1" x2="332.4" y2="191.1"/>
	<line class="st12" x1="365.8" y1="195.8" x2="398.6" y2="237"/>
	<path class="st13" d="M394.6,185.4l-28.8-36.2v26.6c0,0,0,14.9-7.4,24c0,0-7,8.5-7,24.2V241"/>
	<path class="st12" d="M398.6,191.1l-32.8-41.3v26.6c0,0,0,14.9-7.4,24c0,0-7,8.5-7,24.2v17.1"/>
	<circle class="st14" cx="365.8" cy="129.8" r="11"/>
	<circle class="st15" cx="365.8" cy="129.8" r="11"/>
	<line class="st16" x1="281.8" y1="149.1" x2="248.5" y2="191.1"/>
	<line class="st16" x1="281.8" y1="195.8" x2="314.6" y2="237"/>
	<path class="st13" d="M310.6,185.4l-28.8-36.2v26.6c0,0,0,14.9-7.4,24c0,0-7,8.5-7,24.2V241"/>
	<path class="st16" d="M314.6,191.1l-32.8-41.3v26.6c0,0,0,14.9-7.4,24c0,0-7,8.5-7,24.2v17.1"/>
	<circle class="st14" cx="281.8" cy="129.8" r="11"/>
	<circle class="st17" cx="281.8" cy="129.8" r="11"/>
	<line class="st18" x1="528" y1="214.3" x2="402.3" y2="214.3"/>
	<polyline class="st7" points="212.7,118.8 324.2,7.2 435.7,118.8 	"/>
	<path class="st18" d="M122.2,118.8C83.4,118.8,52,150.2,52,189s31.4,70.2,70.2,70.2l-0.7-0.1H528"/>
	<polyline class="st8" points="132.9,85.1 91.2,43.5 16,118.7 	"/>
	<polyline class="st8" points="422.7,71.8 451,43.5 526.2,118.7 	"/>
	<circle class="st18" cx="177.7" cy="26" r="20.7"/>
	<path class="st19" d="M380,63.1c0,0-24.9-24.9-56.4-25.6"/>
	<path class="st20" d="M478.9,71.4c0,0-12.4-12.4-28.2-12.8"/>
	<path class="st20" d="M62.9,71.8c0,0,12.4-12.4,28.2-12.8"/>
	<line class="st19" x1="402.6" y1="118.7" x2="496.4" y2="118.7"/>
	<line class="st8" x1="0" y1="118.3" x2="55.7" y2="118.5"/>
	<path class="st18" d="M155.9,118.7l-34.2,0.1c-26.4,0-47.8,21.4-47.8,47.8s21.4,47.8,47.8,47.8v-0.1l122.8,0"/>
	<line class="st19" x1="177.7" y1="118.7" x2="244.5" y2="118.7"/>
</g>
</svg>
